<svg width="800" height="400" viewBox="0 0 800 400" fill="none" xmlns="http://www.w3.org/2000/svg">
<rect width="800" height="400" fill="white"/>
<g clip-path="url(#clip0_1903_13)">
<path d="M321.208 186.193V213.931C321.208 216.064 320.239 217.902 318.271 219.176C293.687 235.091 275.075 241.775 268.561 243.636C259.583 246.206 254.823 245.935 254.045 245.882C237.646 244.714 210.026 222.409 210.026 222.409C210.026 222.409 232.566 227.849 284.64 203.358C294.404 198.769 305.304 193.811 317.974 188.009C317.974 188.009 320.743 186.825 321.208 186.2V186.193Z" fill="#5427C1"/>
<path d="M319.911 185.251C320.056 185.13 320.239 184.972 320.323 184.866C320.438 184.723 320.537 184.58 320.598 184.407C320.765 183.939 320.712 183.359 320.445 182.93C319.965 182.146 319.156 181.626 318.271 181.053C293.687 165.138 275.075 158.454 268.561 156.593C259.583 154.023 254.823 154.294 254.045 154.347C237.646 155.515 210.026 177.821 210.026 177.821C210.026 177.821 232.566 172.38 284.64 196.871C286.318 197.662 288.027 198.461 289.774 199.267L318.225 186.23C318.225 186.23 319.659 185.447 319.911 185.251Z" fill="#986DFA"/>
<path d="M236.425 200.088C236.456 194.173 237.203 188.25 238.584 182.395L238.767 181.663C228.515 179.282 220.948 178.778 216.41 178.778C212.665 178.778 210.674 179.116 209.995 179.26C208.775 179.523 207.913 180.488 207.295 181.294C203.626 186.102 201.528 192.952 201.528 200.088C201.528 207.224 203.626 214.082 207.295 218.882C207.913 219.688 208.775 220.645 209.995 220.917C210.674 221.06 212.665 221.399 216.41 221.399C220.948 221.399 228.508 220.894 238.767 218.513L238.584 217.782C237.203 211.927 236.456 206.004 236.425 200.088Z" fill="#B99AFA"/>
<path d="M365.332 168.704H382.479L409.808 232.651H390.732L386.056 221.312H361.297L356.712 232.651H338.002L365.332 168.704ZM380.923 207.619L373.768 189.565L366.522 207.619H380.923Z" fill="#2C2067"/>
<path d="M405.583 201.085V200.904C405.583 182.398 419.984 167.889 439.419 167.889C452.531 167.889 460.967 173.329 466.657 181.13L453.271 191.383C449.602 186.849 445.384 183.944 439.236 183.944C430.25 183.944 423.92 191.474 423.92 200.723V200.904C423.92 210.426 430.25 217.864 439.236 217.864C445.933 217.864 449.876 214.779 453.728 210.154L467.115 219.584C461.058 227.838 452.897 233.919 438.687 233.919C420.342 233.919 405.583 220.037 405.583 201.085Z" fill="#2C2067"/>
<path d="M472.698 169.157H490.486V194.921L512.591 169.157H533.681L509.379 196.461L534.505 232.651H513.14L497 209.067L490.486 216.235V232.651H472.698V169.157Z" fill="#2C2067"/>
<path d="M529.234 201.085V200.904C529.234 182.669 544.093 167.889 563.902 167.889C583.711 167.889 598.386 182.496 598.386 200.723V200.904C598.386 219.14 583.528 233.919 563.719 233.919C543.91 233.919 529.234 219.313 529.234 201.085ZM580.225 201.085V200.904C580.225 191.745 573.528 183.763 563.719 183.763C553.91 183.763 547.487 191.564 547.487 200.723V200.904C547.487 210.063 554.184 218.045 563.902 218.045C573.62 218.045 580.225 210.244 580.225 201.085Z" fill="#2C2067"/>
</g>
<defs>
<clipPath id="clip0_1903_13">
<rect width="400" height="94.6565" fill="white" transform="translate(200 153.168)"/>
</clipPath>
</defs>
</svg>
