<svg width="400" height="400" viewBox="0 0 400 400" fill="none" xmlns="http://www.w3.org/2000/svg">
<rect width="400" height="400" fill="white"/>
<path d="M176.007 60.2C175.367 60.2 174.761 60.0933 174.187 59.88C173.614 59.6667 173.114 59.3733 172.687 59C172.261 58.6267 171.914 58.2 171.647 57.72C171.394 57.2267 171.261 56.7067 171.247 56.16H173.007C173.167 56.84 173.514 57.4067 174.047 57.86C174.594 58.3 175.247 58.52 176.007 58.52C176.447 58.52 176.854 58.44 177.227 58.28C177.601 58.12 177.921 57.9067 178.187 57.64C178.467 57.36 178.681 57.04 178.827 56.68C178.987 56.3067 179.067 55.9067 179.067 55.48C179.067 55.0533 178.994 54.6533 178.847 54.28C178.701 53.9067 178.494 53.5867 178.227 53.32C177.974 53.04 177.661 52.82 177.287 52.66C176.927 52.5 176.527 52.42 176.087 52.42C175.474 52.42 174.941 52.5533 174.487 52.82C174.034 53.0867 173.674 53.4333 173.407 53.86L171.767 53.38L173.227 45.8H179.867V47.48H174.607L173.827 51.54C174.107 51.34 174.454 51.1667 174.867 51.02C175.294 50.8733 175.774 50.8 176.307 50.8C176.974 50.8 177.581 50.9267 178.127 51.18C178.687 51.42 179.167 51.76 179.567 52.2C179.967 52.64 180.274 53.16 180.487 53.76C180.714 54.36 180.827 55.0067 180.827 55.7C180.827 56.3267 180.701 56.9133 180.447 57.46C180.207 58.0067 179.874 58.4867 179.447 58.9C179.021 59.3 178.514 59.62 177.927 59.86C177.341 60.0867 176.701 60.2 176.007 60.2ZM187.841 60.2C187.108 60.2 186.434 60.0733 185.821 59.82C185.208 59.5533 184.674 59.1867 184.221 58.72C183.781 58.2533 183.434 57.6933 183.181 57.04C182.941 56.3733 182.821 55.6467 182.821 54.86V50.9C182.821 50.1133 182.941 49.3933 183.181 48.74C183.434 48.0867 183.781 47.5267 184.221 47.06C184.674 46.58 185.208 46.2133 185.821 45.96C186.434 45.6933 187.108 45.56 187.841 45.56C188.574 45.56 189.248 45.6933 189.861 45.96C190.474 46.2133 191.001 46.58 191.441 47.06C191.894 47.5267 192.248 48.0867 192.501 48.74C192.754 49.3933 192.881 50.1133 192.881 50.9V54.86C192.881 55.6467 192.754 56.3733 192.501 57.04C192.248 57.6933 191.894 58.2533 191.441 58.72C191.001 59.1867 190.474 59.5533 189.861 59.82C189.248 60.0733 188.574 60.2 187.841 60.2ZM187.841 58.52C188.814 58.52 189.608 58.2 190.221 57.56C190.848 56.92 191.161 56.02 191.161 54.86V50.9C191.161 49.74 190.848 48.84 190.221 48.2C189.608 47.56 188.814 47.24 187.841 47.24C187.361 47.24 186.914 47.3267 186.501 47.5C186.101 47.66 185.754 47.9 185.461 48.22C185.181 48.5267 184.954 48.9067 184.781 49.36C184.621 49.8133 184.541 50.3267 184.541 50.9V54.86C184.541 55.4333 184.621 55.9467 184.781 56.4C184.954 56.8533 185.181 57.24 185.461 57.56C185.754 57.8667 186.101 58.1067 186.501 58.28C186.914 58.44 187.361 58.52 187.841 58.52ZM208.582 54.12C208.582 53.3067 208.415 52.6467 208.082 52.14C207.749 51.6333 207.255 51.38 206.602 51.38C205.802 51.38 205.149 51.6933 204.642 52.32C204.149 52.9467 203.889 53.8 203.862 54.88V60H202.142V54.12C202.142 53.3067 201.975 52.6467 201.642 52.14C201.322 51.6333 200.835 51.38 200.182 51.38C199.369 51.38 198.702 51.7067 198.182 52.36C197.675 53.0133 197.422 53.9067 197.422 55.04V60H195.702V50H197.422V51.54C197.715 51.0067 198.122 50.5867 198.642 50.28C199.162 49.96 199.762 49.8 200.442 49.8C201.189 49.8 201.822 49.9933 202.342 50.38C202.875 50.7533 203.269 51.2733 203.522 51.94C203.789 51.2867 204.209 50.7667 204.782 50.38C205.369 49.9933 206.042 49.8 206.802 49.8C207.349 49.8 207.835 49.9 208.262 50.1C208.702 50.2867 209.069 50.56 209.362 50.92C209.669 51.2667 209.902 51.6933 210.062 52.2C210.222 52.6933 210.302 53.2467 210.302 53.86V60H208.582V54.12ZM226.277 54.12C226.277 53.3067 226.111 52.6467 225.777 52.14C225.444 51.6333 224.951 51.38 224.297 51.38C223.497 51.38 222.844 51.6933 222.337 52.32C221.844 52.9467 221.584 53.8 221.557 54.88V60H219.837V54.12C219.837 53.3067 219.671 52.6467 219.337 52.14C219.017 51.6333 218.531 51.38 217.877 51.38C217.064 51.38 216.397 51.7067 215.877 52.36C215.371 53.0133 215.117 53.9067 215.117 55.04V60H213.397V50H215.117V51.54C215.411 51.0067 215.817 50.5867 216.337 50.28C216.857 49.96 217.457 49.8 218.137 49.8C218.884 49.8 219.517 49.9933 220.037 50.38C220.571 50.7533 220.964 51.2733 221.217 51.94C221.484 51.2867 221.904 50.7667 222.477 50.38C223.064 49.9933 223.737 49.8 224.497 49.8C225.044 49.8 225.531 49.9 225.957 50.1C226.397 50.2867 226.764 50.56 227.057 50.92C227.364 51.2667 227.597 51.6933 227.757 52.2C227.917 52.6933 227.997 53.2467 227.997 53.86V60H226.277V54.12Z" fill="#747474"/>
<path d="M175.945 342.5H173.205L174.605 340.8H177.665V355H175.945V342.5ZM185.029 355.2C184.389 355.2 183.782 355.093 183.209 354.88C182.635 354.667 182.135 354.373 181.709 354C181.282 353.627 180.935 353.2 180.669 352.72C180.415 352.227 180.282 351.707 180.269 351.16H182.029C182.189 351.84 182.535 352.407 183.069 352.86C183.615 353.3 184.269 353.52 185.029 353.52C185.469 353.52 185.875 353.44 186.249 353.28C186.622 353.12 186.942 352.907 187.209 352.64C187.489 352.36 187.702 352.04 187.849 351.68C188.009 351.307 188.089 350.907 188.089 350.48C188.089 350.053 188.015 349.653 187.869 349.28C187.722 348.907 187.515 348.587 187.249 348.32C186.995 348.04 186.682 347.82 186.309 347.66C185.949 347.5 185.549 347.42 185.109 347.42C184.495 347.42 183.962 347.553 183.509 347.82C183.055 348.087 182.695 348.433 182.429 348.86L180.789 348.38L182.249 340.8H188.889V342.48H183.629L182.849 346.54C183.129 346.34 183.475 346.167 183.889 346.02C184.315 345.873 184.795 345.8 185.329 345.8C185.995 345.8 186.602 345.927 187.149 346.18C187.709 346.42 188.189 346.76 188.589 347.2C188.989 347.64 189.295 348.16 189.509 348.76C189.735 349.36 189.849 350.007 189.849 350.7C189.849 351.327 189.722 351.913 189.469 352.46C189.229 353.007 188.895 353.487 188.469 353.9C188.042 354.3 187.535 354.62 186.949 354.86C186.362 355.087 185.722 355.2 185.029 355.2ZM196.863 355.2C196.129 355.2 195.456 355.073 194.843 354.82C194.229 354.553 193.696 354.187 193.243 353.72C192.803 353.253 192.456 352.693 192.203 352.04C191.963 351.373 191.843 350.647 191.843 349.86V345.9C191.843 345.113 191.963 344.393 192.203 343.74C192.456 343.087 192.803 342.527 193.243 342.06C193.696 341.58 194.229 341.213 194.843 340.96C195.456 340.693 196.129 340.56 196.863 340.56C197.596 340.56 198.269 340.693 198.883 340.96C199.496 341.213 200.023 341.58 200.463 342.06C200.916 342.527 201.269 343.087 201.523 343.74C201.776 344.393 201.903 345.113 201.903 345.9V349.86C201.903 350.647 201.776 351.373 201.523 352.04C201.269 352.693 200.916 353.253 200.463 353.72C200.023 354.187 199.496 354.553 198.883 354.82C198.269 355.073 197.596 355.2 196.863 355.2ZM196.863 353.52C197.836 353.52 198.629 353.2 199.243 352.56C199.869 351.92 200.183 351.02 200.183 349.86V345.9C200.183 344.74 199.869 343.84 199.243 343.2C198.629 342.56 197.836 342.24 196.863 342.24C196.383 342.24 195.936 342.327 195.523 342.5C195.123 342.66 194.776 342.9 194.483 343.22C194.203 343.527 193.976 343.907 193.803 344.36C193.643 344.813 193.563 345.327 193.563 345.9V349.86C193.563 350.433 193.643 350.947 193.803 351.4C193.976 351.853 194.203 352.24 194.483 352.56C194.776 352.867 195.123 353.107 195.523 353.28C195.936 353.44 196.383 353.52 196.863 353.52ZM204.724 359.18V345H206.444V346.54C206.777 346.06 207.257 345.653 207.884 345.32C208.51 344.973 209.204 344.8 209.964 344.8C210.657 344.8 211.304 344.94 211.904 345.22C212.504 345.487 213.024 345.86 213.464 346.34C213.904 346.807 214.244 347.353 214.484 347.98C214.737 348.607 214.864 349.28 214.864 350C214.864 350.72 214.737 351.393 214.484 352.02C214.244 352.647 213.904 353.2 213.464 353.68C213.024 354.147 212.504 354.52 211.904 354.8C211.304 355.067 210.657 355.2 209.964 355.2C209.204 355.2 208.51 355.033 207.884 354.7C207.257 354.353 206.777 353.94 206.444 353.46V359.18H204.724ZM209.704 353.62C210.21 353.62 210.67 353.527 211.084 353.34C211.497 353.153 211.85 352.9 212.144 352.58C212.45 352.247 212.684 351.86 212.844 351.42C213.017 350.98 213.104 350.507 213.104 350C213.104 349.493 213.017 349.02 212.844 348.58C212.684 348.14 212.45 347.76 212.144 347.44C211.85 347.107 211.497 346.847 211.084 346.66C210.67 346.473 210.21 346.38 209.704 346.38C209.197 346.38 208.737 346.473 208.324 346.66C207.91 346.847 207.55 347.107 207.244 347.44C206.95 347.76 206.717 348.14 206.544 348.58C206.384 349.02 206.304 349.493 206.304 350C206.304 350.507 206.384 350.98 206.544 351.42C206.717 351.86 206.95 352.247 207.244 352.58C207.55 352.9 207.91 353.153 208.324 353.34C208.737 353.527 209.197 353.62 209.704 353.62ZM220.65 351.22L217.61 355H215.47L219.57 349.94L215.81 345H217.89L220.65 348.62L223.39 345H225.49L221.71 349.94L225.81 355H223.69L220.65 351.22Z" fill="#747474"/>
<path d="M39.25 155V93.2503C39.25 86.6229 44.6226 81.2503 51.25 81.2503L350.375 81.25C357.002 81.25 362.375 86.6226 362.375 93.25V155" stroke="#CCC4E6" stroke-miterlimit="10"/>
<path d="M39.25 247.5V309.25C39.25 315.877 44.6226 321.25 51.25 321.25L350.375 321.25C357.002 321.25 362.375 315.878 362.375 309.25V247.5" stroke="#CCC4E6" stroke-miterlimit="10"/>
<path d="M176.832 173.997H190.524L212.346 225.994H197.111L193.367 216.773H173.591L169.933 225.994H154.993L176.814 173.997H176.832ZM189.294 205.629L183.574 190.948L177.785 205.629H189.294Z" fill="#2A2063"/>
<path d="M208.984 200.134V199.995C208.984 185.055 220.493 173.321 236.023 173.321C246.492 173.321 253.234 177.723 257.775 184.015L247.081 192.3C244.152 188.643 240.789 186.285 235.867 186.285C228.691 186.285 223.63 192.369 223.63 199.84V199.978C223.63 207.674 228.691 213.671 235.867 213.671C241.223 213.671 244.36 211.175 247.445 207.448L258.139 215.075C253.303 221.748 246.786 226.653 235.434 226.653C220.788 226.653 208.984 215.439 208.984 200.134Z" fill="#2A2063"/>
<path d="M262.594 173.997H276.806V195.09L294.468 173.997H311.315L291.903 196.356L311.974 225.994H294.901L282.006 206.686L276.806 212.562V226.012H262.594V174.014V173.997Z" fill="#2A2063"/>
<path d="M307.76 200.134V199.995C307.76 185.263 319.633 173.321 335.458 173.321C351.282 173.321 362.999 185.107 362.999 199.84V199.978C362.999 214.711 351.126 226.653 335.302 226.653C319.477 226.653 307.76 214.849 307.76 200.134ZM348.492 200.134V199.995C348.492 192.595 343.136 186.147 335.302 186.147C327.467 186.147 322.337 192.456 322.337 199.84V199.978C322.337 207.379 327.693 213.827 335.458 213.827C343.223 213.827 348.492 207.535 348.492 200.134Z" fill="#2A2063"/>
<path d="M142.011 188.14V211.764C142.011 213.584 141.162 215.144 139.463 216.219C118.11 229.773 101.921 235.458 96.2706 237.052C88.471 239.236 84.3285 239.011 83.6526 238.959C69.4053 237.953 45.3998 218.974 45.3998 218.974C45.3998 218.974 64.9855 223.602 110.241 202.751C118.734 198.834 128.197 194.622 139.203 189.682C139.203 189.682 141.612 188.677 142.011 188.14Z" fill="#4E29BB"/>
<path d="M140.747 187.481C141.024 187.308 141.388 187.083 141.509 186.632C141.613 186.233 141.579 185.713 141.336 185.367C140.92 184.708 140.227 184.258 139.447 183.772C118.093 170.218 101.905 164.533 96.2541 162.939C88.4545 160.755 84.3121 160.98 83.6361 161.032C69.3888 162.037 45.3833 181.016 45.3833 181.016C45.3833 181.016 64.969 176.389 110.224 197.24C111.68 197.916 113.171 198.592 114.679 199.285L139.395 188.192C139.395 188.192 140.296 187.759 140.729 187.481H140.747Z" fill="#926FF3"/>
<path d="M68.3319 199.978C68.3665 194.934 69.0078 189.891 70.2038 184.916L70.3598 184.292C61.4509 182.264 54.8818 181.831 50.93 181.831C47.6715 181.831 45.9383 182.126 45.349 182.247C44.2917 182.472 43.5291 183.287 43.0091 183.98C39.8199 188.071 38 193.912 38 199.978C38 206.062 39.8199 211.886 43.0091 215.976C43.5464 216.669 44.2917 217.484 45.349 217.709C45.9383 217.831 47.6715 218.125 50.93 218.125C54.8818 218.125 61.4509 217.692 70.3598 215.664L70.2038 215.04C69.0078 210.048 68.3492 205.022 68.3319 199.978Z" fill="#B59CF5"/>
</svg>
