<svg width="400" height="400" viewBox="0 0 400 400" fill="none" xmlns="http://www.w3.org/2000/svg">
<rect width="400" height="400" fill="white"/>
<path d="M115 131.268V85.8027C115 79.1753 120.373 73.8027 127 73.8027H272.014C278.642 73.8027 284.014 79.1753 284.014 85.8027V131.268" stroke="#CCC4E6" stroke-miterlimit="10"/>
<path d="M115 267.972V316.451C115 323.078 120.373 328.451 127 328.451H272.014C278.642 328.451 284.014 323.078 284.014 316.451V267.972" stroke="#CCC4E6" stroke-miterlimit="10"/>
<path d="M133.302 214.64H144.423L162.161 256.901H149.789L146.758 249.422H130.688L127.713 256.901H115.563L133.302 214.64ZM143.422 240.33L138.779 228.403L134.08 240.33H143.422Z" fill="#2A2063"/>
<path d="M159.436 235.882V235.771C159.436 223.621 168.778 214.112 181.4 214.112C189.908 214.112 195.385 217.671 199.083 222.815L190.38 229.543C187.989 226.568 185.265 224.65 181.261 224.65C175.422 224.65 171.308 229.598 171.308 235.659V235.771C171.308 242.026 175.422 246.892 181.261 246.892C185.598 246.892 188.156 244.862 190.658 241.832L199.361 248.032C195.44 253.453 190.13 257.429 180.9 257.429C169 257.429 159.408 248.31 159.408 235.882H159.436Z" fill="#2A2063"/>
<path d="M203.004 214.64H214.542V231.795L228.888 214.64H242.567L226.803 232.796L243.123 256.873H229.25L218.768 241.192L214.542 245.974V256.901H203.004V214.64Z" fill="#2A2063"/>
<path d="M239.705 235.882V235.771C239.705 223.815 249.353 214.112 262.198 214.112C275.042 214.112 284.579 223.704 284.579 235.659V235.771C284.579 247.726 274.931 257.429 262.086 257.429C249.241 257.429 239.705 247.837 239.705 235.882ZM272.79 235.882V235.771C272.79 229.765 268.453 224.511 262.086 224.511C255.72 224.511 251.549 229.626 251.549 235.632V235.743C251.549 241.748 255.886 247.003 262.198 247.003C268.509 247.003 272.79 241.887 272.79 235.882Z" fill="#2A2063"/>
<path d="M256.412 145.44V171.018C256.412 172.992 255.494 174.688 253.659 175.856C230.527 190.536 212.984 196.708 206.867 198.432C198.415 200.795 193.939 200.545 193.188 200.489C177.758 199.405 151.734 178.831 151.734 178.831C151.734 178.831 172.948 183.863 221.992 161.26C231.195 157.033 241.454 152.446 253.381 147.108C253.381 147.108 255.995 146.024 256.412 145.44Z" fill="#4E29BB"/>
<path d="M255.051 144.745C255.357 144.55 255.746 144.327 255.885 143.827C255.996 143.382 255.941 142.854 255.69 142.437C255.245 141.714 254.467 141.241 253.633 140.713C230.501 126.033 212.957 119.861 206.841 118.137C198.389 115.774 193.912 116.024 193.162 116.08C177.731 117.164 151.708 137.738 151.708 137.738C151.708 137.738 172.921 132.706 221.966 155.31C223.55 156.032 225.163 156.783 226.803 157.534L253.577 145.523C253.577 145.523 254.55 145.05 255.023 144.772L255.051 144.745Z" fill="#926FF3"/>
<path d="M176.59 158.285C176.617 152.835 177.312 147.358 178.619 141.964L178.786 141.297C169.138 139.101 162.021 138.628 157.739 138.628C154.208 138.628 152.345 138.934 151.706 139.073C150.566 139.323 149.732 140.213 149.176 140.936C145.728 145.356 143.754 151.695 143.754 158.285C143.754 164.874 145.728 171.185 149.176 175.633C149.76 176.384 150.566 177.274 151.706 177.496C152.345 177.635 154.208 177.941 157.739 177.941C162.021 177.941 169.138 177.468 178.786 175.272L178.619 174.605C177.312 169.211 176.617 163.734 176.59 158.285Z" fill="#B59CF5"/>
<path d="M182.791 58H174.498V57.387C174.498 56.702 174.63 56.101 174.894 55.5842C175.171 55.0674 175.513 54.6047 175.922 54.1961C176.343 53.7754 176.805 53.3908 177.31 53.0423C177.827 52.6817 178.32 52.3271 178.789 51.9786C179.161 51.7022 179.486 51.4498 179.762 51.2214C180.05 50.981 180.291 50.7407 180.483 50.5003C180.675 50.2479 180.82 49.9835 180.916 49.707C181.012 49.4186 181.06 49.0881 181.06 48.7155C181.06 48.0424 180.844 47.5076 180.411 47.111C179.978 46.7023 179.414 46.498 178.716 46.498C178.368 46.498 178.031 46.5521 177.707 46.6603C177.394 46.7685 177.112 46.9307 176.86 47.147C176.619 47.3514 176.427 47.6158 176.283 47.9403C176.138 48.2528 176.066 48.6133 176.066 49.022H174.48C174.48 48.409 174.588 47.8561 174.804 47.3634C175.021 46.8586 175.315 46.4319 175.688 46.0834C176.072 45.7348 176.523 45.4644 177.04 45.2721C177.557 45.0798 178.109 44.9837 178.698 44.9837C179.227 44.9837 179.732 45.0618 180.213 45.218C180.694 45.3743 181.114 45.6086 181.475 45.9211C181.835 46.2336 182.118 46.6242 182.322 47.093C182.538 47.5617 182.647 48.1085 182.647 48.7335C182.647 49.2023 182.586 49.6289 182.466 50.0135C182.358 50.3981 182.184 50.7647 181.943 51.1132C181.715 51.4498 181.409 51.7923 181.024 52.1408C180.651 52.4774 180.207 52.8319 179.69 53.2045C179.317 53.4809 178.951 53.7393 178.59 53.9797C178.23 54.2081 177.899 54.4485 177.599 54.7008C177.31 54.9532 177.058 55.2237 176.841 55.5121C176.625 55.8006 176.481 56.1311 176.409 56.5037H182.791V58ZM188.607 58.1803C188.03 58.1803 187.483 58.0841 186.966 57.8918C186.45 57.6995 185.999 57.4351 185.614 57.0986C185.23 56.7621 184.917 56.3775 184.677 55.9448C184.448 55.5001 184.328 55.0314 184.316 54.5386H185.903C186.047 55.1515 186.359 55.6623 186.84 56.071C187.333 56.4676 187.922 56.6659 188.607 56.6659C189.004 56.6659 189.37 56.5938 189.707 56.4496C190.043 56.3054 190.332 56.1131 190.572 55.8727C190.824 55.6203 191.017 55.3318 191.149 55.0073C191.293 54.6708 191.365 54.3102 191.365 53.9256C191.365 53.541 191.299 53.1805 191.167 52.8439C191.035 52.5074 190.848 52.219 190.608 51.9786C190.38 51.7262 190.097 51.5279 189.761 51.3837C189.436 51.2394 189.076 51.1673 188.679 51.1673C188.126 51.1673 187.645 51.2875 187.237 51.5279C186.828 51.7683 186.504 52.0808 186.263 52.4654L184.785 52.0327L186.101 45.2H192.086V46.7144H187.345L186.642 50.3741C186.894 50.1938 187.207 50.0376 187.579 49.9054C187.964 49.7731 188.397 49.707 188.877 49.707C189.478 49.707 190.025 49.8212 190.518 50.0496C191.023 50.2659 191.455 50.5724 191.816 50.969C192.177 51.3656 192.453 51.8344 192.645 52.3752C192.85 52.9161 192.952 53.499 192.952 54.1239C192.952 54.6888 192.838 55.2177 192.609 55.7104C192.393 56.2032 192.092 56.6359 191.708 57.0085C191.323 57.369 190.867 57.6575 190.338 57.8738C189.809 58.0781 189.232 58.1803 188.607 58.1803ZM206.738 52.6997C206.738 51.9666 206.587 51.3716 206.287 50.9149C205.987 50.4582 205.542 50.2299 204.953 50.2299C204.232 50.2299 203.643 50.5123 203.186 51.0772C202.741 51.6421 202.507 52.4113 202.483 53.3848V58H200.933V52.6997C200.933 51.9666 200.782 51.3716 200.482 50.9149C200.193 50.4582 199.755 50.2299 199.166 50.2299C198.433 50.2299 197.832 50.5243 197.363 51.1132C196.906 51.7022 196.678 52.5074 196.678 53.529V58H195.128V48.9859H196.678V50.3741C196.942 49.8933 197.309 49.5147 197.778 49.2383C198.246 48.9499 198.787 48.8056 199.4 48.8056C200.073 48.8056 200.644 48.9799 201.113 49.3284C201.594 49.665 201.948 50.1337 202.177 50.7346C202.417 50.1457 202.796 49.677 203.312 49.3284C203.841 48.9799 204.448 48.8056 205.133 48.8056C205.626 48.8056 206.065 48.8958 206.449 49.0761C206.846 49.2443 207.176 49.4907 207.441 49.8152C207.717 50.1277 207.928 50.5123 208.072 50.969C208.216 51.4137 208.288 51.9125 208.288 52.4654V58H206.738V52.6997ZM222.688 52.6997C222.688 51.9666 222.538 51.3716 222.238 50.9149C221.937 50.4582 221.493 50.2299 220.904 50.2299C220.182 50.2299 219.594 50.5123 219.137 51.0772C218.692 51.6421 218.458 52.4113 218.434 53.3848V58H216.883V52.6997C216.883 51.9666 216.733 51.3716 216.433 50.9149C216.144 50.4582 215.705 50.2299 215.117 50.2299C214.383 50.2299 213.782 50.5243 213.314 51.1132C212.857 51.7022 212.629 52.5074 212.629 53.529V58H211.078V48.9859H212.629V50.3741C212.893 49.8933 213.26 49.5147 213.728 49.2383C214.197 48.9499 214.738 48.8056 215.351 48.8056C216.024 48.8056 216.595 48.9799 217.064 49.3284C217.544 49.665 217.899 50.1337 218.127 50.7346C218.368 50.1457 218.746 49.677 219.263 49.3284C219.792 48.9799 220.399 48.8056 221.084 48.8056C221.577 48.8056 222.015 48.8958 222.4 49.0761C222.797 49.2443 223.127 49.4907 223.391 49.8152C223.668 50.1277 223.878 50.5123 224.022 50.969C224.167 51.4137 224.239 51.9125 224.239 52.4654V58H222.688V52.6997Z" fill="#747474"/>
<path d="M180.536 355.465L186.504 344.179H179.959V342.665H188.361V343.963L182.267 355.465H180.536ZM193.355 355.645C192.778 355.645 192.231 355.549 191.715 355.357C191.198 355.164 190.747 354.9 190.363 354.563C189.978 354.227 189.665 353.842 189.425 353.41C189.197 352.965 189.077 352.496 189.064 352.003H190.651C190.795 352.616 191.108 353.127 191.588 353.536C192.081 353.932 192.67 354.131 193.355 354.131C193.752 354.131 194.118 354.059 194.455 353.914C194.791 353.77 195.08 353.578 195.32 353.338C195.573 353.085 195.765 352.797 195.897 352.472C196.041 352.136 196.114 351.775 196.114 351.39C196.114 351.006 196.047 350.645 195.915 350.309C195.783 349.972 195.597 349.684 195.356 349.443C195.128 349.191 194.846 348.993 194.509 348.849C194.184 348.704 193.824 348.632 193.427 348.632C192.874 348.632 192.394 348.752 191.985 348.993C191.576 349.233 191.252 349.546 191.012 349.93L189.533 349.498L190.849 342.665H196.835V344.179H192.093L191.39 347.839C191.643 347.659 191.955 347.502 192.328 347.37C192.712 347.238 193.145 347.172 193.626 347.172C194.227 347.172 194.773 347.286 195.266 347.514C195.771 347.731 196.204 348.037 196.564 348.434C196.925 348.83 197.201 349.299 197.394 349.84C197.598 350.381 197.7 350.964 197.7 351.589C197.7 352.154 197.586 352.682 197.357 353.175C197.141 353.668 196.841 354.101 196.456 354.473C196.071 354.834 195.615 355.122 195.086 355.339C194.557 355.543 193.98 355.645 193.355 355.645ZM199.876 359.233V346.451H201.426V347.839C201.727 347.406 202.159 347.04 202.724 346.739C203.289 346.427 203.914 346.27 204.599 346.27C205.224 346.27 205.807 346.397 206.348 346.649C206.889 346.889 207.357 347.226 207.754 347.659C208.151 348.079 208.457 348.572 208.674 349.137C208.902 349.702 209.016 350.309 209.016 350.958C209.016 351.607 208.902 352.214 208.674 352.779C208.457 353.344 208.151 353.842 207.754 354.275C207.357 354.696 206.889 355.032 206.348 355.285C205.807 355.525 205.224 355.645 204.599 355.645C203.914 355.645 203.289 355.495 202.724 355.194C202.159 354.882 201.727 354.509 201.426 354.077V359.233H199.876ZM204.365 354.221C204.821 354.221 205.236 354.137 205.609 353.969C205.981 353.8 206.3 353.572 206.564 353.283C206.841 352.983 207.051 352.634 207.195 352.238C207.351 351.841 207.43 351.415 207.43 350.958C207.43 350.501 207.351 350.074 207.195 349.678C207.051 349.281 206.841 348.939 206.564 348.65C206.3 348.35 205.981 348.115 205.609 347.947C205.236 347.779 204.821 347.695 204.365 347.695C203.908 347.695 203.493 347.779 203.121 347.947C202.748 348.115 202.424 348.35 202.147 348.65C201.883 348.939 201.673 349.281 201.516 349.678C201.372 350.074 201.3 350.501 201.3 350.958C201.3 351.415 201.372 351.841 201.516 352.238C201.673 352.634 201.883 352.983 202.147 353.283C202.424 353.572 202.748 353.8 203.121 353.969C203.493 354.137 203.908 354.221 204.365 354.221ZM214.232 352.058L211.491 355.465H209.562L213.258 350.904L209.869 346.451H211.744L214.232 349.714L216.702 346.451H218.594L215.187 350.904L218.883 355.465H216.972L214.232 352.058Z" fill="#747474"/>
</svg>
