<svg width="400" height="400" viewBox="0 0 400 400" fill="none" xmlns="http://www.w3.org/2000/svg">
<rect width="400" height="400" fill="white"/>
<path d="M100 152.941V112C100 105.373 105.373 100 112 100H288C294.627 100 300 105.373 300 112V152.941" stroke="#CCC4E6" stroke-miterlimit="10"/>
<path d="M100 243.529V288C100 294.627 105.373 300 112 300H288C294.627 300 300 294.627 300 288V243.529" stroke="#CCC4E6" stroke-miterlimit="10"/>
<path d="M300 177.803V223.219C300 226.724 298.371 229.736 295.114 231.809C254.048 257.874 222.903 268.834 212.044 271.894C197.039 276.09 189.092 275.646 187.76 275.547C160.366 273.622 114.166 237.091 114.166 237.091C114.166 237.091 151.827 246.027 238.895 205.892C255.232 198.388 273.445 190.243 294.62 180.765C294.62 180.765 299.26 178.839 300 177.803Z" fill="#4E29BB"/>
<path d="M297.584 176.569C298.127 176.223 298.818 175.828 299.065 174.939C299.262 174.15 299.163 173.212 298.719 172.471C297.929 171.188 296.547 170.348 295.067 169.41C254.001 143.345 222.856 132.386 211.997 129.325C196.992 125.129 189.045 125.573 187.713 125.672C160.319 127.597 114.12 164.128 114.12 164.128C114.12 164.128 151.78 155.193 238.848 195.328C241.661 196.611 244.524 197.944 247.436 199.277L294.968 177.951C294.968 177.951 296.696 177.112 297.535 176.618L297.584 176.569Z" fill="#926FF3"/>
<path d="M158.292 200.61C158.341 190.934 159.575 181.209 161.895 171.632L162.191 170.447C145.064 166.547 132.428 165.708 124.827 165.708C118.559 165.708 115.252 166.251 114.116 166.498C112.093 166.942 110.612 168.522 109.625 169.805C103.504 177.654 100 188.91 100 200.61C100 212.309 103.504 223.515 109.625 231.414C110.661 232.747 112.093 234.327 114.116 234.721C115.252 234.968 118.559 235.511 124.827 235.511C132.428 235.511 145.064 234.672 162.191 230.772L161.895 229.587C159.575 220.01 158.341 210.285 158.292 200.61Z" fill="#B59CF5"/>
<path d="M184.147 58.1803C183.522 58.1803 182.945 58.0841 182.417 57.8918C181.888 57.6875 181.431 57.4051 181.046 57.0445C180.674 56.6839 180.379 56.2573 180.163 55.7645C179.947 55.2717 179.839 54.7369 179.839 54.16C179.839 53.3908 180.013 52.7238 180.361 52.1589C180.722 51.582 181.221 51.1373 181.858 50.8248C181.449 50.5363 181.125 50.1758 180.884 49.7431C180.656 49.3104 180.542 48.8237 180.542 48.2828C180.542 47.8021 180.632 47.3634 180.812 46.9668C180.992 46.5581 181.245 46.2096 181.569 45.9211C181.894 45.6207 182.272 45.3923 182.705 45.2361C183.15 45.0678 183.63 44.9837 184.147 44.9837C184.676 44.9837 185.157 45.0678 185.59 45.2361C186.034 45.3923 186.413 45.6207 186.725 45.9211C187.05 46.2096 187.296 46.5581 187.464 46.9668C187.645 47.3634 187.735 47.8021 187.735 48.2828C187.735 48.8237 187.621 49.3104 187.392 49.7431C187.164 50.1758 186.845 50.5363 186.437 50.8248C187.074 51.1373 187.567 51.582 187.915 52.1589C188.264 52.7238 188.438 53.3908 188.438 54.16C188.438 54.7369 188.33 55.2717 188.113 55.7645C187.909 56.2573 187.615 56.6839 187.23 57.0445C186.857 57.4051 186.407 57.6875 185.878 57.8918C185.361 58.0841 184.784 58.1803 184.147 58.1803ZM184.147 56.702C184.58 56.702 184.965 56.6359 185.301 56.5037C185.638 56.3715 185.92 56.1912 186.148 55.9628C186.389 55.7345 186.569 55.464 186.689 55.1515C186.809 54.8391 186.87 54.5085 186.87 54.16C186.87 53.7994 186.809 53.4629 186.689 53.1504C186.569 52.8379 186.389 52.5675 186.148 52.3392C185.92 52.1108 185.638 51.9305 185.301 51.7983C184.965 51.6661 184.58 51.6 184.147 51.6C183.727 51.6 183.348 51.6661 183.011 51.7983C182.675 51.9305 182.387 52.1108 182.146 52.3392C181.906 52.5675 181.719 52.8379 181.587 53.1504C181.467 53.4629 181.407 53.7994 181.407 54.16C181.407 54.5085 181.467 54.8391 181.587 55.1515C181.719 55.464 181.906 55.7345 182.146 55.9628C182.387 56.1912 182.675 56.3715 183.011 56.5037C183.348 56.6359 183.727 56.702 184.147 56.702ZM184.147 50.2118C184.472 50.2118 184.76 50.1638 185.013 50.0676C185.265 49.9594 185.481 49.8212 185.662 49.653C185.842 49.4727 185.974 49.2684 186.058 49.04C186.154 48.8116 186.202 48.5713 186.202 48.3189C186.202 47.778 186.022 47.3333 185.662 46.9848C185.301 46.6242 184.796 46.4439 184.147 46.4439C183.522 46.4439 183.017 46.6242 182.633 46.9848C182.26 47.3333 182.074 47.778 182.074 48.3189C182.074 48.5713 182.122 48.8116 182.218 49.04C182.314 49.2684 182.453 49.4727 182.633 49.653C182.813 49.8212 183.03 49.9594 183.282 50.0676C183.546 50.1638 183.835 50.2118 184.147 50.2118ZM202.361 52.6997C202.361 51.9666 202.211 51.3716 201.91 50.9149C201.61 50.4582 201.165 50.2299 200.576 50.2299C199.855 50.2299 199.266 50.5123 198.809 51.0772C198.365 51.6421 198.13 52.4113 198.106 53.3848V58H196.556V52.6997C196.556 51.9666 196.406 51.3716 196.105 50.9149C195.817 50.4582 195.378 50.2299 194.789 50.2299C194.056 50.2299 193.455 50.5243 192.986 51.1132C192.53 51.7022 192.301 52.5074 192.301 53.529V58H190.751V48.9859H192.301V50.3741C192.566 49.8933 192.932 49.5147 193.401 49.2383C193.87 48.9499 194.41 48.8056 195.023 48.8056C195.697 48.8056 196.267 48.9799 196.736 49.3284C197.217 49.665 197.571 50.1337 197.8 50.7346C198.04 50.1457 198.419 49.677 198.936 49.3284C199.464 48.9799 200.071 48.8056 200.756 48.8056C201.249 48.8056 201.688 48.8958 202.072 49.0761C202.469 49.2443 202.8 49.4907 203.064 49.8152C203.34 50.1277 203.551 50.5123 203.695 50.969C203.839 51.4137 203.911 51.9125 203.911 52.4654V58H202.361V52.6997ZM218.312 52.6997C218.312 51.9666 218.161 51.3716 217.861 50.9149C217.56 50.4582 217.116 50.2299 216.527 50.2299C215.806 50.2299 215.217 50.5123 214.76 51.0772C214.315 51.6421 214.081 52.4113 214.057 53.3848V58H212.507V52.6997C212.507 51.9666 212.356 51.3716 212.056 50.9149C211.767 50.4582 211.329 50.2299 210.74 50.2299C210.007 50.2299 209.406 50.5243 208.937 51.1132C208.48 51.7022 208.252 52.5074 208.252 53.529V58H206.701V48.9859H208.252V50.3741C208.516 49.8933 208.883 49.5147 209.352 49.2383C209.82 48.9499 210.361 48.8056 210.974 48.8056C211.647 48.8056 212.218 48.9799 212.687 49.3284C213.168 49.665 213.522 50.1337 213.75 50.7346C213.991 50.1457 214.369 49.677 214.886 49.3284C215.415 48.9799 216.022 48.8056 216.707 48.8056C217.2 48.8056 217.639 48.8958 218.023 49.0761C218.42 49.2443 218.75 49.4907 219.015 49.8152C219.291 50.1277 219.501 50.5123 219.646 50.969C219.79 51.4137 219.862 51.9125 219.862 52.4654V58H218.312V52.6997Z" fill="#747474"/>
<path d="M187.636 355.465H179.343V354.852C179.343 354.167 179.475 353.566 179.74 353.049C180.016 352.532 180.358 352.07 180.767 351.661C181.188 351.24 181.65 350.856 182.155 350.507C182.672 350.147 183.165 349.792 183.634 349.443C184.006 349.167 184.331 348.915 184.607 348.686C184.896 348.446 185.136 348.206 185.328 347.965C185.521 347.713 185.665 347.448 185.761 347.172C185.857 346.883 185.905 346.553 185.905 346.18C185.905 345.507 185.689 344.972 185.256 344.576C184.823 344.167 184.259 343.963 183.561 343.963C183.213 343.963 182.876 344.017 182.552 344.125C182.239 344.233 181.957 344.396 181.705 344.612C181.464 344.816 181.272 345.081 181.128 345.405C180.983 345.718 180.911 346.078 180.911 346.487H179.325C179.325 345.874 179.433 345.321 179.649 344.828C179.866 344.323 180.16 343.897 180.533 343.548C180.917 343.2 181.368 342.929 181.885 342.737C182.402 342.545 182.955 342.449 183.543 342.449C184.072 342.449 184.577 342.527 185.058 342.683C185.539 342.839 185.959 343.073 186.32 343.386C186.68 343.698 186.963 344.089 187.167 344.558C187.383 345.027 187.492 345.573 187.492 346.198C187.492 346.667 187.432 347.094 187.311 347.478C187.203 347.863 187.029 348.23 186.789 348.578C186.56 348.915 186.254 349.257 185.869 349.606C185.497 349.942 185.052 350.297 184.535 350.669C184.162 350.946 183.796 351.204 183.435 351.445C183.075 351.673 182.744 351.913 182.444 352.166C182.155 352.418 181.903 352.689 181.687 352.977C181.47 353.265 181.326 353.596 181.254 353.969H187.636V355.465ZM195.387 351.985H188.572V350.741L195.585 342.665H196.937V350.525H198.704V351.985H196.937V355.465H195.387V351.985ZM195.387 350.525V345.009L190.591 350.525H195.387ZM200.853 359.233V346.451H202.403V347.839C202.704 347.406 203.136 347.04 203.701 346.739C204.266 346.427 204.891 346.27 205.576 346.27C206.201 346.27 206.784 346.397 207.325 346.649C207.866 346.889 208.335 347.226 208.731 347.659C209.128 348.079 209.434 348.572 209.651 349.137C209.879 349.702 209.993 350.309 209.993 350.958C209.993 351.607 209.879 352.214 209.651 352.779C209.434 353.344 209.128 353.842 208.731 354.275C208.335 354.696 207.866 355.032 207.325 355.285C206.784 355.525 206.201 355.645 205.576 355.645C204.891 355.645 204.266 355.495 203.701 355.194C203.136 354.882 202.704 354.509 202.403 354.077V359.233H200.853ZM205.342 354.221C205.799 354.221 206.213 354.137 206.586 353.969C206.958 353.8 207.277 353.572 207.541 353.283C207.818 352.983 208.028 352.634 208.172 352.238C208.329 351.841 208.407 351.415 208.407 350.958C208.407 350.501 208.329 350.074 208.172 349.678C208.028 349.281 207.818 348.939 207.541 348.65C207.277 348.35 206.958 348.115 206.586 347.947C206.213 347.779 205.799 347.695 205.342 347.695C204.885 347.695 204.471 347.779 204.098 347.947C203.725 348.115 203.401 348.35 203.124 348.65C202.86 348.939 202.65 349.281 202.493 349.678C202.349 350.074 202.277 350.501 202.277 350.958C202.277 351.415 202.349 351.841 202.493 352.238C202.65 352.634 202.86 352.983 203.124 353.283C203.401 353.572 203.725 353.8 204.098 353.969C204.471 354.137 204.885 354.221 205.342 354.221ZM215.209 352.058L212.469 355.465H210.54L214.235 350.904L210.846 346.451H212.721L215.209 349.714L217.679 346.451H219.572L216.164 350.904L219.86 355.465H217.949L215.209 352.058Z" fill="#747474"/>
</svg>
