<svg width="400" height="400" viewBox="0 0 400 400" fill="none" xmlns="http://www.w3.org/2000/svg">
<rect width="400" height="400" fill="#5427C1"/>
<g clip-path="url(#clip0_1906_659)">
<path d="M150.754 191.104V208.001C150.754 209.3 150.153 210.42 148.933 211.196C133.691 220.891 122.152 224.963 118.113 226.096C112.547 227.662 109.596 227.497 109.114 227.464C98.946 226.753 81.8218 213.165 81.8218 213.165C81.8218 213.165 95.7964 216.479 128.082 201.56C134.136 198.765 140.894 195.745 148.749 192.21C148.749 192.21 150.466 191.489 150.754 191.108V191.104Z" fill="#5427C1"/>
<path d="M149.95 190.53C150.04 190.456 150.153 190.36 150.205 190.296C150.276 190.208 150.338 190.121 150.376 190.016C150.48 189.731 150.447 189.378 150.281 189.116C149.983 188.639 149.482 188.322 148.933 187.973C133.691 178.278 122.152 174.206 118.113 173.072C112.547 171.507 109.596 171.672 109.114 171.704C98.9459 172.416 81.8217 186.004 81.8217 186.004C81.8217 186.004 95.7963 182.689 128.082 197.608C129.123 198.09 130.182 198.577 131.265 199.068L148.905 191.126C148.905 191.126 149.794 190.649 149.95 190.53Z" fill="#986DFA"/>
<path d="M98.1894 199.569C98.2083 195.965 98.6717 192.357 99.5277 188.79L99.6412 188.345C93.2852 186.894 88.5939 186.587 85.7801 186.587C83.458 186.587 82.2237 186.793 81.8028 186.881C81.0462 187.041 80.5118 187.629 80.1287 188.12C77.854 191.049 76.5535 195.221 76.5535 199.569C76.5535 203.916 77.854 208.093 80.1287 211.017C80.5118 211.508 81.0462 212.091 81.8028 212.257C82.2237 212.344 83.458 212.55 85.7801 212.55C88.5939 212.55 93.2805 212.243 99.6412 210.792L99.5277 210.347C98.6717 206.78 98.2083 203.172 98.1894 199.569Z" fill="#B99AFA"/>
<path d="M178.11 180.45H188.741L205.686 219.405H193.858L190.959 212.497H175.609L172.767 219.405H161.166L178.11 180.45ZM187.777 204.156L183.341 193.158L178.848 204.156H187.777Z" fill="#2C2067"/>
<path d="M203.066 200.176V200.066C203.066 188.792 211.994 179.954 224.044 179.954C232.173 179.954 237.404 183.268 240.931 188.02L232.632 194.266C230.357 191.504 227.742 189.734 223.93 189.734C218.36 189.734 214.434 194.321 214.434 199.955V200.066C214.434 205.866 218.36 210.397 223.93 210.397C228.083 210.397 230.528 208.517 232.916 205.7L241.215 211.445C237.46 216.473 232.4 220.177 223.59 220.177C212.217 220.177 203.066 211.721 203.066 200.176Z" fill="#2C2067"/>
<path d="M244.677 180.726H255.705V196.421L269.41 180.726H282.486L267.419 197.359L282.997 219.405H269.751L259.744 205.038L255.705 209.404V219.405H244.677V180.726Z" fill="#2C2067"/>
<path d="M279.729 200.176V200.066C279.729 188.958 288.941 179.954 301.223 179.954C313.504 179.954 322.603 188.852 322.603 199.955V200.066C322.603 211.174 313.39 220.177 301.109 220.177C288.828 220.177 279.729 211.28 279.729 200.176ZM311.343 200.176V200.066C311.343 194.486 307.191 189.624 301.109 189.624C295.027 189.624 291.046 194.376 291.046 199.955V200.066C291.046 205.645 295.198 210.507 301.223 210.507C307.247 210.507 311.343 205.755 311.343 200.176Z" fill="#2C2067"/>
</g>
<defs>
<clipPath id="clip0_1906_659">
<rect width="248" height="57.681" fill="white" transform="translate(75.6045 170.977)"/>
</clipPath>
</defs>
</svg>
