<svg width="400" height="400" viewBox="0 0 400 400" fill="none" xmlns="http://www.w3.org/2000/svg">
<rect width="400" height="400" fill="white"/>
<g clip-path="url(#clip0_1906_660)">
<path d="M141.479 180.793L145.952 199.728C146.296 201.183 145.933 202.594 144.797 203.78C130.616 218.601 119.015 226.159 114.877 228.478C109.175 231.677 105.889 232.258 105.351 232.347C93.9899 234.189 71.5768 223.408 71.5768 223.408C71.5768 223.408 87.8095 223.494 119.336 198.396C125.247 193.692 131.873 188.553 139.569 182.553C139.569 182.553 141.264 181.3 141.48 180.798L141.479 180.793Z" fill="#5427C1"/>
<path d="M140.444 180.359C140.523 180.253 140.622 180.116 140.663 180.03C140.717 179.914 140.762 179.8 140.775 179.672C140.814 179.326 140.685 178.939 140.433 178.689C139.98 178.231 139.345 178.006 138.65 177.757C119.335 170.85 105.578 169.283 100.84 169.061C94.3098 168.752 91.111 169.703 90.5894 169.864C79.6056 173.301 64.3865 192.972 64.3865 192.972C64.3865 192.972 78.8644 185.63 118.29 193.967C119.56 194.237 120.853 194.507 122.173 194.777L139.454 181.299C139.454 181.299 140.304 180.533 140.444 180.359Z" fill="#986DFA"/>
<path d="M85.9619 203.923C85.0288 199.88 84.5828 195.717 84.5792 191.498L84.586 190.969C77.218 190.994 71.9819 191.867 68.89 192.598C66.3386 193.2 65.0369 193.752 64.5975 193.959C63.8087 194.336 63.3771 195.133 63.0862 195.783C61.362 199.655 61.0376 204.668 62.1884 209.539C63.3392 214.411 65.8741 218.754 69.1476 221.44C69.6985 221.891 70.4401 222.406 71.3152 222.395C71.8008 222.383 73.2117 222.294 75.7631 221.691C78.855 220.961 83.9232 219.4 90.5284 216.123L90.2858 215.654C88.401 211.879 86.9366 207.956 85.9619 203.923Z" fill="#B99AFA"/>
<path d="M165.732 177.896H177.734L196.865 222.748H183.512L180.239 214.795H162.907L159.698 222.748H146.601L165.732 177.896ZM176.645 205.19L171.637 192.527L166.565 205.19H176.645Z" fill="#2C2067"/>
<path d="M193.908 200.608V200.481C193.908 187.5 203.988 177.324 217.593 177.324C226.771 177.324 232.676 181.14 236.66 186.611L227.289 193.803C224.721 190.622 221.768 188.585 217.465 188.585C211.175 188.585 206.743 193.866 206.743 200.354V200.481C206.743 207.159 211.175 212.377 217.465 212.377C222.153 212.377 224.913 210.212 227.609 206.969L236.98 213.583C232.741 219.372 227.028 223.637 217.08 223.637C204.239 223.637 193.908 213.901 193.908 200.608Z" fill="#2C2067"/>
<path d="M240.888 178.213H253.34V196.285L268.813 178.213H283.576L266.565 197.364L284.153 222.748H269.197L257.899 206.207L253.34 211.234V222.748H240.888V178.213Z" fill="#2C2067"/>
<path d="M280.464 200.608V200.481C280.464 187.691 290.865 177.324 304.731 177.324C318.597 177.324 328.87 187.569 328.87 200.354V200.481C328.87 213.271 318.469 223.637 304.603 223.637C290.736 223.637 280.464 213.393 280.464 200.608ZM316.157 200.608V200.481C316.157 194.057 311.469 188.458 304.603 188.458C297.736 188.458 293.241 193.93 293.241 200.354V200.481C293.241 206.905 297.929 212.504 304.731 212.504C311.533 212.504 316.157 207.032 316.157 200.608Z" fill="#2C2067"/>
</g>
<defs>
<clipPath id="clip0_1906_660">
<rect width="280" height="66.39" fill="white" transform="translate(60 167)"/>
</clipPath>
</defs>
</svg>
