<svg width="400" height="400" viewBox="0 0 400 400" fill="none" xmlns="http://www.w3.org/2000/svg">
<rect width="400" height="400" fill="white"/>
<g clip-path="url(#clip0_1906_661)">
<path d="M339.115 190.162V209.618C339.115 211.114 338.437 212.403 337.06 213.297C319.851 224.46 306.823 229.148 302.263 230.453C295.978 232.256 292.646 232.065 292.102 232.028C280.622 231.209 261.288 215.564 261.288 215.564C261.288 215.564 277.066 219.38 313.518 202.202C320.353 198.983 327.983 195.506 336.852 191.436C336.852 191.436 338.79 190.606 339.115 190.167V190.162Z" fill="#5427C1"/>
<path d="M338.208 189.501C338.309 189.417 338.437 189.306 338.496 189.232C338.576 189.131 338.646 189.031 338.688 188.909C338.806 188.582 338.768 188.175 338.582 187.874C338.245 187.324 337.679 186.959 337.06 186.557C319.851 175.394 306.823 170.706 302.263 169.401C295.978 167.598 292.646 167.789 292.102 167.826C280.622 168.645 261.288 184.29 261.288 184.29C261.288 184.29 277.066 180.474 313.518 197.652C314.693 198.207 315.889 198.767 317.112 199.333L337.028 190.188C337.028 190.188 338.032 189.639 338.208 189.501Z" fill="#986DFA"/>
<path d="M279.768 199.909C279.789 195.76 280.312 191.605 281.279 187.498L281.407 186.986C274.23 185.315 268.934 184.961 265.757 184.961C263.135 184.961 261.742 185.199 261.266 185.3C260.412 185.485 259.809 186.161 259.376 186.727C256.808 190.099 255.34 194.903 255.34 199.909C255.34 204.914 256.808 209.724 259.376 213.091C259.809 213.656 260.412 214.328 261.266 214.518C261.742 214.618 263.135 214.856 265.757 214.856C268.934 214.856 274.225 214.502 281.407 212.832L281.279 212.319C280.312 208.212 279.789 204.058 279.768 199.909Z" fill="#B99AFA"/>
<path d="M80.2013 177.896H92.2042L111.335 222.748H97.9814L94.7084 214.795H77.3768L74.1679 222.748H61.0705L80.2013 177.896ZM91.115 205.19L86.1067 192.527L81.0343 205.19H91.115Z" fill="#2C2067"/>
<path d="M108.377 200.608V200.481C108.377 187.5 118.458 177.324 132.062 177.324C141.241 177.324 147.146 181.14 151.129 186.611L141.759 193.803C139.191 190.622 136.238 188.585 131.934 188.585C125.645 188.585 121.213 193.866 121.213 200.354V200.481C121.213 207.159 125.645 212.377 131.934 212.377C136.622 212.377 139.383 210.212 142.079 206.969L151.45 213.583C147.21 219.372 141.497 223.637 131.55 223.637C118.709 223.637 108.377 213.901 108.377 200.608Z" fill="#2C2067"/>
<path d="M155.358 178.213H167.809V196.285L183.282 178.213H198.046L181.034 197.364L198.622 222.748H183.667L172.369 206.207L167.809 211.234V222.748H155.358V178.213Z" fill="#2C2067"/>
<path d="M194.933 200.608V200.481C194.933 187.691 205.334 177.324 219.2 177.324C233.066 177.324 243.339 187.569 243.339 200.354V200.481C243.339 213.271 232.938 223.637 219.072 223.637C205.206 223.637 194.933 213.393 194.933 200.608ZM230.626 200.608V200.481C230.626 194.057 225.938 188.458 219.072 188.458C212.206 188.458 207.71 193.93 207.71 200.354V200.481C207.71 206.905 212.398 212.504 219.2 212.504C226.002 212.504 230.626 207.032 230.626 200.608Z" fill="#2C2067"/>
</g>
<defs>
<clipPath id="clip0_1906_661">
<rect width="280" height="66.39" fill="white" transform="translate(60 167)"/>
</clipPath>
</defs>
</svg>
