<svg width="400" height="400" viewBox="0 0 400 400" fill="none" xmlns="http://www.w3.org/2000/svg">
<rect width="400" height="400" fill="white"/>
<g clip-path="url(#clip0_1906_662)">
<path d="M144.644 190.267V210.047C144.644 211.568 143.963 212.879 142.58 213.787C125.303 225.136 112.223 229.903 107.644 231.23C101.335 233.062 97.9898 232.869 97.443 232.831C85.9174 231.998 66.5062 216.093 66.5062 216.093C66.5062 216.093 82.3472 219.972 118.945 202.508C125.807 199.235 133.467 195.7 142.371 191.562C142.371 191.562 144.317 190.718 144.644 190.272V190.267Z" fill="#F87171"/>
<path d="M143.733 189.596C143.835 189.51 143.964 189.397 144.023 189.321C144.103 189.219 144.173 189.117 144.215 188.994C144.333 188.661 144.296 188.247 144.108 187.94C143.771 187.382 143.202 187.011 142.58 186.602C125.303 175.253 112.223 170.487 107.645 169.16C101.335 167.327 97.9899 167.521 97.4431 167.558C85.9175 168.391 66.5063 184.297 66.5063 184.297C66.5063 184.297 82.3472 180.417 118.945 197.882C120.124 198.446 121.325 199.016 122.553 199.59L142.548 190.294C142.548 190.294 143.556 189.735 143.733 189.596Z" fill="#F87171"/>
<path d="M85.0597 200.176C85.0811 195.958 85.6065 191.734 86.5768 187.559L86.7054 187.037C79.5006 185.339 74.1828 184.979 70.9931 184.979C68.361 184.979 66.9619 185.221 66.4847 185.323C65.627 185.511 65.0213 186.199 64.5871 186.774C62.0086 190.203 60.5343 195.087 60.5343 200.176C60.5343 205.265 62.0086 210.155 64.5871 213.578C65.0213 214.152 65.627 214.835 66.4847 215.028C66.9619 215.131 68.361 215.372 70.9931 215.372C74.1828 215.372 79.4952 215.012 86.7054 213.314L86.5768 212.793C85.6065 208.618 85.0811 204.394 85.0597 200.176Z" fill="#F87171"/>
<path d="M175.677 177.233H187.727L206.935 222.834H193.528L190.242 214.748H172.841L169.619 222.834H156.469L175.677 177.233ZM186.634 204.983L181.606 192.109L176.513 204.983H186.634Z" fill="#F87171"/>
<path d="M203.965 200.324V200.195C203.965 186.998 214.086 176.652 227.744 176.652C236.959 176.652 242.888 180.531 246.887 186.094L237.479 193.406C234.901 190.172 231.937 188.101 227.616 188.101C221.301 188.101 216.852 193.47 216.852 200.066V200.195C216.852 206.985 221.301 212.289 227.616 212.289C232.322 212.289 235.094 210.089 237.801 206.791L247.209 213.516C242.953 219.401 237.217 223.737 227.23 223.737C214.338 223.737 203.965 213.838 203.965 200.324Z" fill="#F87171"/>
<path d="M251.133 177.556H263.634V195.929L279.169 177.556H293.991L276.912 197.026L294.57 222.833H279.555L268.212 206.016L263.634 211.127V222.833H251.133V177.556Z" fill="#F87171"/>
<path d="M290.866 200.324V200.195C290.866 187.192 301.309 176.652 315.23 176.652C329.152 176.652 339.466 187.068 339.466 200.066V200.195C339.466 213.198 329.023 223.737 315.101 223.737C301.18 223.737 290.866 213.322 290.866 200.324ZM326.702 200.324V200.195C326.702 193.664 321.995 187.972 315.101 187.972C308.208 187.972 303.694 193.535 303.694 200.066V200.195C303.694 206.726 308.401 212.418 315.23 212.418C322.06 212.418 326.702 206.855 326.702 200.324Z" fill="#F87171"/>
</g>
<defs>
<clipPath id="clip0_1906_662">
<rect width="280" height="66.39" fill="white" transform="translate(60 167)"/>
</clipPath>
</defs>
</svg>
