<svg width="400" height="400" viewBox="0 0 400 400" fill="none" xmlns="http://www.w3.org/2000/svg">
<rect width="400" height="400" fill="white"/>
<g filter="url(#filter0_d_1906_663)">
<path d="M146.411 190.162V209.618C146.411 211.114 145.753 212.403 144.415 213.297C127.703 224.46 115.051 229.148 110.623 230.453C104.52 232.256 101.284 232.065 100.755 232.028C89.6066 231.209 70.8307 215.564 70.8307 215.564C70.8307 215.564 86.1532 219.38 121.553 202.202C128.19 198.983 135.6 195.506 144.213 191.436C144.213 191.436 146.095 190.606 146.411 190.167V190.162Z" fill="#5427C1"/>
<path d="M145.53 189.502C145.628 189.417 145.753 189.306 145.81 189.232C145.888 189.132 145.955 189.032 145.997 188.91C146.111 188.582 146.074 188.175 145.893 187.874C145.566 187.324 145.016 186.959 144.415 186.558C127.703 175.395 115.051 170.707 110.622 169.401C104.519 167.599 101.284 167.789 100.755 167.826C89.6065 168.645 70.8306 184.291 70.8306 184.291C70.8306 184.291 86.1531 180.474 121.553 197.652C122.694 198.207 123.855 198.767 125.043 199.333L144.384 190.189C144.384 190.189 145.359 189.639 145.53 189.502Z" fill="#986DFA"/>
<path d="M88.7769 199.909C88.7976 195.76 89.3058 191.605 90.2443 187.498L90.3688 186.986C83.3997 185.315 78.256 184.961 75.1707 184.961C72.6247 184.961 71.2713 185.199 70.8099 185.3C69.9802 185.485 69.3943 186.161 68.9743 186.727C66.4802 190.099 65.0542 194.903 65.0542 199.909C65.0542 204.914 66.4802 209.724 68.9743 213.091C69.3943 213.656 69.9802 214.328 70.8099 214.518C71.2713 214.618 72.6247 214.856 75.1707 214.856C78.256 214.856 83.3945 214.502 90.3688 212.832L90.2443 212.319C89.3058 208.212 88.7976 204.058 88.7769 199.909Z" fill="#B99AFA"/>
<path d="M176.406 177.896H188.063L206.641 222.748H193.673L190.495 214.795H173.663L170.547 222.748H157.828L176.406 177.896ZM187.005 205.19L182.141 192.527L177.215 205.19H187.005Z" fill="#2C2067"/>
<path d="M203.769 200.608V200.481C203.769 187.5 213.558 177.324 226.77 177.324C235.684 177.324 241.418 181.14 245.287 186.611L236.187 193.803C233.693 190.622 230.825 188.585 226.646 188.585C220.538 188.585 216.234 193.866 216.234 200.354V200.481C216.234 207.159 220.538 212.377 226.646 212.377C231.198 212.377 233.879 210.212 236.498 206.969L245.598 213.583C241.481 219.372 235.933 223.637 226.273 223.637C213.802 223.637 203.769 213.901 203.769 200.608Z" fill="#2C2067"/>
<path d="M249.393 178.213H261.485V196.285L276.512 178.213H290.849L274.329 197.364L291.409 222.748H276.885L265.913 206.207L261.485 211.234V222.748H249.393V178.213Z" fill="#2C2067"/>
<path d="M287.826 200.608V200.481C287.826 187.691 297.927 177.324 311.393 177.324C324.859 177.324 334.835 187.569 334.835 200.354V200.481C334.835 213.271 324.734 223.637 311.268 223.637C297.802 223.637 287.826 213.393 287.826 200.608ZM322.489 200.608V200.481C322.489 194.057 317.937 188.458 311.268 188.458C304.6 188.458 300.234 193.93 300.234 200.354V200.481C300.234 206.905 304.787 212.504 311.393 212.504C317.999 212.504 322.489 207.032 322.489 200.608Z" fill="#2C2067"/>
</g>
<defs>
<filter id="filter0_d_1906_663" x="62" y="166" width="279.948" height="74.3901" filterUnits="userSpaceOnUse" color-interpolation-filters="sRGB">
<feFlood flood-opacity="0" result="BackgroundImageFix"/>
<feColorMatrix in="SourceAlpha" type="matrix" values="0 0 0 0 0 0 0 0 0 0 0 0 0 0 0 0 0 0 127 0" result="hardAlpha"/>
<feOffset dx="2" dy="3"/>
<feGaussianBlur stdDeviation="2"/>
<feComposite in2="hardAlpha" operator="out"/>
<feColorMatrix type="matrix" values="0 0 0 0 0 0 0 0 0 0 0 0 0 0 0 0 0 0 0.55 0"/>
<feBlend mode="normal" in2="BackgroundImageFix" result="effect1_dropShadow_1906_663"/>
<feBlend mode="normal" in="SourceGraphic" in2="effect1_dropShadow_1906_663" result="shape"/>
</filter>
</defs>
</svg>
