<svg width="400" height="400" viewBox="0 0 400 400" fill="none" xmlns="http://www.w3.org/2000/svg">
<rect width="400" height="400" fill="white"/>
<g clip-path="url(#clip0_1906_664)">
<path d="M146.412 190.162V209.618C146.412 211.114 145.754 212.403 144.416 213.297C127.704 224.46 115.052 229.148 110.623 230.453C104.52 232.256 101.285 232.065 100.756 232.028C89.6074 231.209 70.8315 215.564 70.8315 215.564C70.8315 215.564 86.154 219.38 121.554 202.202C128.191 198.983 135.601 195.506 144.214 191.436C144.214 191.436 146.096 190.606 146.412 190.167V190.162Z" fill="#5427C1"/>
<path d="M145.531 189.501C145.629 189.417 145.754 189.306 145.811 189.232C145.889 189.131 145.956 189.031 145.997 188.909C146.112 188.582 146.075 188.175 145.894 187.874C145.567 187.324 145.017 186.959 144.416 186.557C127.704 175.394 115.052 170.706 110.623 169.401C104.52 167.598 101.285 167.789 100.756 167.826C89.6074 168.645 70.8315 184.29 70.8315 184.29C70.8315 184.29 86.154 180.474 121.554 197.652C122.695 198.207 123.856 198.767 125.044 199.333L144.385 190.188C144.385 190.188 145.36 189.639 145.531 189.501Z" fill="#986DFA"/>
<path d="M88.7776 199.909C88.7983 195.76 89.3065 191.605 90.245 187.498L90.3694 186.986C83.4004 185.315 78.2566 184.961 75.1714 184.961C72.6254 184.961 71.272 185.199 70.8105 185.3C69.9809 185.485 69.395 186.161 68.975 186.727C66.4809 190.099 65.0549 194.903 65.0549 199.909C65.0549 204.914 66.4809 209.724 68.975 213.091C69.395 213.656 69.9809 214.328 70.8105 214.518C71.272 214.618 72.6254 214.856 75.1714 214.856C78.2566 214.856 83.3952 214.502 90.3694 212.832L90.245 212.319C89.3065 208.212 88.7983 204.058 88.7776 199.909Z" fill="#B99AFA"/>
<path d="M173.42 219.84C166.21 219.84 160.68 215.71 160.68 208.15V208.01C160.68 200.17 166.63 196.11 175.52 196.11C179.02 196.11 182.45 196.81 184.62 197.58V196.95C184.62 193.03 182.17 190.79 177.06 190.79C173.07 190.79 169.99 191.56 166.63 192.89L163.9 183.51C168.17 181.76 172.72 180.57 179.23 180.57C186.02 180.57 190.64 182.18 193.65 185.19C196.52 187.99 197.71 191.91 197.71 197.23V219H184.55V215.08C181.96 217.95 178.39 219.84 173.42 219.84ZM178.18 211.51C182.03 211.51 184.76 209.06 184.76 205.28V203.53C183.43 202.97 181.54 202.55 179.58 202.55C175.73 202.55 173.49 204.44 173.49 207.24V207.38C173.49 209.97 175.45 211.51 178.18 211.51ZM222.744 219.91C211.334 219.91 202.934 210.95 202.934 200.24V200.1C202.934 189.39 211.264 180.36 223.234 180.36C231.004 180.36 236.184 183.72 239.404 188.83L230.374 195.55C228.554 193.03 226.524 191.56 223.304 191.56C219.034 191.56 215.884 195.34 215.884 199.96V200.1C215.884 205 218.964 208.71 223.444 208.71C226.594 208.71 228.624 207.24 230.724 204.79L239.614 211.23C236.114 216.41 231.074 219.91 222.744 219.91ZM244.328 219V167.9H257.628V193.8L267.918 181.13H282.968L269.808 196.32L283.318 219H268.688L261.058 206.12L257.628 210.11V219H244.328ZM303.707 219.91C291.597 219.91 282.847 211.02 282.847 200.24V200.1C282.847 189.32 291.667 180.29 303.847 180.29C315.957 180.29 324.707 189.18 324.707 199.96V200.1C324.707 210.88 315.887 219.91 303.707 219.91ZM303.847 208.64C308.677 208.64 311.757 204.79 311.757 200.24V200.1C311.757 195.48 308.397 191.56 303.707 191.56C298.877 191.56 295.797 195.41 295.797 199.96V200.1C295.797 204.72 299.157 208.64 303.847 208.64Z" fill="black"/>
</g>
<defs>
<clipPath id="clip0_1906_664">
<rect width="271.948" height="66.39" fill="white" transform="translate(64 167)"/>
</clipPath>
</defs>
</svg>
