<svg width="400" height="400" viewBox="0 0 400 400" fill="none" xmlns="http://www.w3.org/2000/svg">
<rect width="400" height="400" fill="white"/>
<g clip-path="url(#clip0_1906_665)">
<path d="M135.917 190.027V209.367C135.917 210.854 135.292 212.136 134.023 213.024C118.172 224.12 106.171 228.78 101.971 230.078C96.1821 231.87 93.113 231.68 92.6114 231.644C82.037 230.829 64.2279 215.278 64.2279 215.278C64.2279 215.278 78.7614 219.071 112.339 201.996C118.634 198.796 125.662 195.339 133.832 191.294C133.832 191.294 135.617 190.469 135.917 190.032V190.027Z" fill="#5427C1"/>
<path d="M135.081 189.37C135.174 189.286 135.292 189.176 135.347 189.102C135.42 189.003 135.484 188.903 135.524 188.782C135.632 188.456 135.597 188.052 135.425 187.752C135.115 187.206 134.594 186.843 134.023 186.444C118.172 175.348 106.171 170.687 101.971 169.39C96.1821 167.598 93.113 167.787 92.6114 167.824C82.037 168.638 64.2279 184.19 64.2279 184.19C64.2279 184.19 78.7614 180.397 112.339 197.472C113.421 198.024 114.522 198.581 115.649 199.143L133.994 190.053C133.994 190.053 134.919 189.507 135.081 189.37Z" fill="#986DFA"/>
<path d="M81.2502 199.715C81.2698 195.591 81.7518 191.462 82.642 187.379L82.76 186.869C76.1499 185.209 71.2709 184.857 68.3445 184.857C65.9297 184.857 64.646 185.094 64.2082 185.193C63.4213 185.377 62.8656 186.05 62.4672 186.612C60.1015 189.964 58.7489 194.74 58.7489 199.715C58.7489 204.691 60.1015 209.472 62.4672 212.819C62.8656 213.381 63.4213 214.048 64.2082 214.237C64.646 214.337 65.9297 214.573 68.3445 214.573C71.2709 214.573 76.1449 214.222 82.76 212.561L82.642 212.052C81.7518 207.969 81.2698 203.84 81.2502 199.715Z" fill="#B99AFA"/>
<path d="M164.366 177.834H175.423L193.045 222.419H180.744L177.729 214.513H161.765L158.809 222.419H146.745L164.366 177.834ZM174.419 204.966L169.806 192.378L165.134 204.966H174.419Z" fill="#2C2067"/>
<path d="M190.32 200.411V200.285C190.32 187.381 199.606 177.266 212.138 177.266C220.592 177.266 226.032 181.059 229.701 186.498L221.069 193.646C218.703 190.485 215.984 188.46 212.02 188.46C206.226 188.46 202.144 193.709 202.144 200.158V200.285C202.144 206.923 206.226 212.109 212.02 212.109C216.338 212.109 218.881 209.958 221.364 206.733L229.996 213.309C226.091 219.063 220.828 223.303 211.666 223.303C199.837 223.303 190.32 213.624 190.32 200.411Z" fill="#2C2067"/>
<path d="M233.595 178.15H245.065V196.113L259.318 178.15H272.916L257.247 197.186L273.448 222.419H259.672L249.265 205.976L245.065 210.973V222.419H233.595V178.15Z" fill="#2C2067"/>
<path d="M270.049 200.411V200.285C270.049 187.571 279.63 177.266 292.402 177.266C305.175 177.266 314.638 187.45 314.638 200.158V200.285C314.638 212.998 305.057 223.303 292.284 223.303C279.512 223.303 270.049 213.119 270.049 200.411ZM302.927 200.411V200.285C302.927 193.899 298.609 188.333 292.284 188.333C285.959 188.333 281.818 193.772 281.818 200.158V200.285C281.818 206.67 286.137 212.235 292.402 212.235C298.668 212.235 302.927 206.797 302.927 200.411Z" fill="#2C2067"/>
</g>
<defs>
<clipPath id="clip0_1906_665">
<rect width="258" height="66" fill="white" transform="translate(71 167)"/>
</clipPath>
</defs>
</svg>
