<svg width="400" height="400" viewBox="0 0 400 400" fill="none" xmlns="http://www.w3.org/2000/svg">
<rect width="400" height="400" fill="white"/>
<g clip-path="url(#clip0_1906_666)">
<path d="M146.427 192.485V207.059C146.427 208.179 145.769 209.146 144.431 209.815C127.715 218.177 115.061 221.689 110.632 222.666C104.527 224.017 101.291 223.874 100.762 223.846C89.6115 223.233 70.8319 211.513 70.8319 211.513C70.8319 211.513 86.1574 214.372 121.564 201.504C128.203 199.093 135.614 196.488 144.228 193.439C144.228 193.439 146.111 192.817 146.427 192.489V192.485Z" fill="#5427C1"/>
<path d="M145.546 191.99C145.644 191.926 145.769 191.843 145.826 191.788C145.904 191.713 145.971 191.637 146.012 191.546C146.127 191.301 146.09 190.996 145.909 190.77C145.582 190.359 145.032 190.085 144.431 189.784C127.715 181.422 115.061 177.911 110.632 176.933C104.527 175.582 101.291 175.725 100.762 175.753C89.6115 176.366 70.8319 188.086 70.8319 188.086C70.8319 188.086 86.1574 185.227 121.564 198.095C122.705 198.511 123.867 198.931 125.055 199.354L144.4 192.504C144.4 192.504 145.375 192.093 145.546 191.99Z" fill="#986DFA"/>
<path d="M88.7817 199.786C88.8024 196.678 89.3107 193.566 90.2494 190.489L90.3738 190.105C83.4035 188.854 78.2587 188.589 75.1728 188.589C72.6264 188.589 71.2727 188.767 70.8112 188.842C69.9813 188.981 69.3953 189.488 68.9752 189.911C66.4806 192.437 65.0544 196.036 65.0544 199.786C65.0544 203.535 66.4806 207.138 68.9752 209.66C69.3953 210.084 69.9813 210.587 70.8112 210.729C71.2727 210.804 72.6264 210.982 75.1728 210.982C78.2587 210.982 83.3983 210.717 90.3738 209.466L90.2494 209.082C89.3107 206.006 88.8024 202.894 88.7817 199.786Z" fill="#B99AFA"/>
<path d="M176.428 183.296H188.087L206.669 216.895H193.698L190.519 210.937H173.685L170.568 216.895H157.846L176.428 183.296ZM187.029 203.743L182.164 194.257L177.237 203.743H187.029Z" fill="#2C2067"/>
<path d="M203.796 200.31V200.215C203.796 190.491 213.587 182.868 226.802 182.868C235.717 182.868 241.453 185.726 245.322 189.825L236.22 195.212C233.725 192.83 230.857 191.304 226.677 191.304C220.568 191.304 216.263 195.26 216.263 200.119V200.215C216.263 205.217 220.568 209.126 226.677 209.126C231.231 209.126 233.912 207.504 236.531 205.074L245.633 210.029C241.515 214.366 235.966 217.561 226.304 217.561C213.831 217.561 203.796 210.267 203.796 200.31Z" fill="#2C2067"/>
<path d="M249.429 183.534H261.523V197.071L276.553 183.534H290.893L274.37 197.88L291.453 216.895H276.926L265.952 204.504L261.523 208.269V216.895H249.429V183.534Z" fill="#2C2067"/>
<path d="M287.869 200.31V200.215C287.869 190.634 297.972 182.868 311.441 182.868C324.909 182.868 334.888 190.542 334.888 200.119V200.215C334.888 209.795 324.785 217.561 311.316 217.561C297.848 217.561 287.869 209.887 287.869 200.31ZM322.539 200.31V200.215C322.539 195.402 317.986 191.208 311.316 191.208C304.647 191.208 300.28 195.307 300.28 200.119V200.215C300.28 205.027 304.833 209.221 311.441 209.221C318.048 209.221 322.539 205.122 322.539 200.31Z" fill="#2C2067"/>
</g>
<defs>
<clipPath id="clip0_1906_666">
<rect width="272" height="50" fill="white" transform="translate(64 175)"/>
</clipPath>
</defs>
</svg>
