<svg width="800" height="400" viewBox="0 0 800 400" fill="none" xmlns="http://www.w3.org/2000/svg">
<rect width="800" height="400" fill="white"/>
<g clip-path="url(#clip0_1903_27)">
<path d="M479.554 141.627V177.766C479.554 180.55 478.255 182.936 475.657 184.58C442.992 205.313 418.228 214.01 409.585 216.449C397.653 219.79 391.317 219.445 390.283 219.366C368.488 217.828 331.767 188.795 331.767 188.795C331.767 188.795 361.727 195.874 430.955 163.978C443.946 157.986 458.423 151.543 475.259 143.987C475.259 143.987 478.945 142.449 479.554 141.627Z" fill="#4E29BB"/>
<path d="M477.645 140.62C478.07 140.355 478.626 140.01 478.812 139.321C478.971 138.711 478.918 137.916 478.547 137.385C477.911 136.378 476.85 135.688 475.657 134.946C442.992 114.212 418.228 105.489 409.585 103.076C397.653 99.7357 391.317 100.08 390.283 100.16C368.488 101.698 331.767 130.73 331.767 130.73C331.767 130.73 361.727 123.651 430.955 155.547C433.182 156.581 435.462 157.615 437.769 158.676L475.577 141.707C475.577 141.707 476.956 141.044 477.619 140.62H477.645Z" fill="#926FF3"/>
<path d="M366.845 159.736C366.898 152.021 367.879 144.305 369.708 136.696L369.947 135.742C356.319 132.639 346.27 131.977 340.225 131.977C335.24 131.977 332.589 132.427 331.687 132.613C330.07 132.958 328.904 134.204 328.108 135.264C323.23 141.522 320.446 150.457 320.446 159.736C320.446 169.043 323.23 177.951 328.108 184.209C328.93 185.269 330.07 186.515 331.687 186.86C332.589 187.046 335.24 187.496 340.225 187.496C346.27 187.496 356.319 186.834 369.947 183.731L369.708 182.777C367.879 175.141 366.871 167.452 366.845 159.736Z" fill="#B59CF5"/>
<path d="M305.744 239.072H321.466L346.522 298.728H329.049L324.754 288.149H302.058L297.842 298.728H280.688L305.744 239.072ZM320.008 275.37L313.459 258.533L306.831 275.37H320.034H320.008Z" fill="#2C2067"/>
<path d="M342.624 269.059V268.9C342.624 251.746 355.828 238.303 373.645 238.303C385.656 238.303 393.398 243.341 398.594 250.579L386.318 260.071C382.951 255.856 379.08 253.178 373.459 253.178C365.213 253.178 359.433 260.151 359.433 268.715V268.874C359.433 277.703 365.24 284.596 373.459 284.596C379.584 284.596 383.216 281.733 386.743 277.464L399.018 286.214C393.477 293.85 386 299.497 372.955 299.497C356.146 299.497 342.624 286.638 342.624 269.059Z" fill="#2C2067"/>
<path d="M404.137 239.072H420.443V263.279L440.699 239.072H460.028L437.756 264.738L460.796 298.728H441.203L426.408 276.563L420.443 283.297V298.728H404.137V239.072Z" fill="#2C2067"/>
<path d="M455.944 269.059V268.9C455.944 252.011 469.572 238.303 487.708 238.303C505.843 238.303 519.312 251.825 519.312 268.715V268.874C519.312 285.763 505.684 299.471 487.548 299.471C469.413 299.471 455.944 285.949 455.944 269.033V269.059ZM502.661 269.059V268.9C502.661 260.416 496.537 253.019 487.522 253.019C478.507 253.019 472.648 260.257 472.648 268.741V268.9C472.648 277.385 478.772 284.782 487.681 284.782C496.59 284.782 502.635 277.544 502.635 269.059H502.661Z" fill="#2C2067"/>
</g>
<defs>
<clipPath id="clip0_1903_27">
<rect width="240" height="201.608" fill="white" transform="translate(280 99)"/>
</clipPath>
</defs>
</svg>
