<svg width="800" height="400" viewBox="0 0 800 400" fill="none" xmlns="http://www.w3.org/2000/svg">
<rect width="800" height="400" fill="white"/>
<path d="M370.415 152.715H387.231L414.029 216.549H395.325L390.739 205.233H366.458L361.959 216.549H343.617L370.415 152.715ZM385.706 191.553L378.689 173.535L371.587 191.553H385.706Z" fill="#2A2063"/>
<path d="M409.882 184.813V184.632C409.882 166.29 424 151.895 443.066 151.895C455.927 151.895 464.201 157.291 469.778 165.022L456.651 175.185C453.057 170.685 448.92 167.806 442.895 167.806C434.086 167.806 427.88 175.27 427.88 184.441V184.622C427.88 194.07 434.086 201.439 442.895 201.439C449.463 201.439 453.324 198.379 457.099 193.793L470.226 203.145C464.287 211.325 456.289 217.35 442.351 217.35C424.362 217.35 409.891 203.593 409.891 184.794L409.882 184.813Z" fill="#2A2063"/>
<path d="M475.698 152.715H493.144V178.617L514.813 152.715H535.5L511.667 180.161L536.31 216.549H515.356L499.531 192.84L493.144 200.047V216.549H475.698V152.715Z" fill="#2A2063"/>
<path d="M531.134 184.813V184.632C531.134 166.557 545.7 151.895 565.129 151.895C584.558 151.895 598.943 166.376 598.943 184.451V184.632C598.943 202.707 584.376 217.369 564.948 217.369C545.519 217.369 531.134 202.888 531.134 184.813ZM581.135 184.813V184.632C581.135 175.547 574.567 167.634 564.948 167.634C555.329 167.634 549.028 175.366 549.028 184.451V184.632C549.028 193.717 555.596 201.629 565.119 201.629C574.643 201.629 581.126 193.898 581.126 184.813H581.135Z" fill="#2A2063"/>
<path d="M327.667 186.033V215.033C327.667 217.254 326.628 219.18 324.541 220.515C298.315 237.15 278.457 244.138 271.517 246.083C261.936 248.761 256.855 248.485 256.035 248.428C238.542 247.207 209.075 223.889 209.075 223.889C209.075 223.889 233.118 229.581 288.667 203.975C299.087 199.17 310.708 193.993 324.226 187.93C324.226 187.93 327.181 186.701 327.677 186.033H327.667Z" fill="#4E29BB"/>
<path d="M326.123 185.223C326.457 185.013 326.905 184.737 327.057 184.184C327.2 183.688 327.134 183.069 326.848 182.62C326.333 181.801 325.475 181.257 324.531 180.657C298.315 164.031 278.458 157.043 271.508 155.098C261.927 152.42 256.846 152.696 256.026 152.753C238.533 153.973 209.066 177.291 209.066 177.291C209.066 177.291 233.108 171.6 288.658 197.206C290.45 198.026 292.271 198.865 294.13 199.713L324.474 186.091C324.474 186.091 325.589 185.547 326.114 185.223H326.123Z" fill="#926FF3"/>
<path d="M237.227 200.562C237.256 194.375 238.056 188.188 239.524 182.067L239.725 181.305C228.781 178.817 220.716 178.292 215.873 178.292C211.878 178.292 209.753 178.645 209.028 178.797C207.722 179.074 206.807 180.075 206.149 180.923C202.24 185.947 200 193.107 200 200.571C200 208.036 202.24 215.195 206.149 220.219C206.807 221.058 207.722 222.068 209.028 222.345C209.753 222.497 211.878 222.85 215.873 222.85C220.716 222.85 228.781 222.326 239.725 219.838L239.524 219.075C238.056 212.955 237.256 206.768 237.227 200.581V200.562Z" fill="#B59CF5"/>
<g clip-path="url(#clip0_1903_113)">
<path d="M357.557 248.457L354.151 240.619L350.744 248.457H347.337L343.624 232.428H347.462L349.653 242.591L354.141 232.16L358.658 242.591L360.849 232.428H364.687L360.964 248.457H357.557Z" fill="#2A2063"/>
<path d="M369.538 248.457V232.428H379.701V235.863H373.126V238.734H378.342V242.169H373.126V245.04H379.701V248.476H369.538V248.457Z" fill="#2A2063"/>
<path d="M385.251 248.457V232.428H388.84V245.021H395.481V248.457H385.251Z" fill="#2A2063"/>
<path d="M407.194 248.734C404.907 248.734 402.955 247.921 401.338 246.303C399.721 244.686 398.907 242.734 398.907 240.447C398.907 238.16 399.711 236.208 401.338 234.59C402.955 232.973 404.907 232.16 407.194 232.16C408.831 232.16 410.314 232.562 411.644 233.356C412.965 234.15 413.989 235.212 414.687 236.543L411.529 238.256C410.563 236.514 409.118 235.634 407.194 235.634C405.902 235.634 404.802 236.112 403.883 237.059C402.974 238.007 402.515 239.136 402.515 240.447C402.515 241.758 402.974 242.887 403.883 243.835C404.792 244.782 405.893 245.26 407.194 245.26C409.118 245.26 410.563 244.39 411.529 242.638L414.687 244.351C413.979 245.672 412.965 246.734 411.644 247.538C410.323 248.332 408.84 248.734 407.194 248.734Z" fill="#2A2063"/>
<path d="M432.86 246.294C431.242 247.921 429.29 248.734 427.003 248.734C424.716 248.734 422.764 247.921 421.146 246.303C419.529 244.686 418.716 242.734 418.716 240.447C418.716 238.16 419.52 236.208 421.146 234.59C422.764 232.973 424.716 232.16 427.003 232.16C429.29 232.16 431.242 232.973 432.86 234.6C434.477 236.227 435.29 238.179 435.29 240.447C435.29 242.715 434.477 244.667 432.86 246.294ZM423.692 243.835C424.601 244.782 425.702 245.26 427.003 245.26C428.304 245.26 429.395 244.782 430.295 243.835C431.194 242.887 431.654 241.758 431.654 240.447C431.654 239.136 431.204 238.007 430.295 237.059C429.395 236.112 428.295 235.634 427.003 235.634C425.711 235.634 424.611 236.112 423.692 237.059C422.783 238.007 422.324 239.136 422.324 240.447C422.324 241.758 422.783 242.887 423.692 243.835Z" fill="#2A2063"/>
<path d="M440.592 232.428H443.865L448.851 239.337L453.884 232.428H457.157V248.457H453.549V238.59L448.879 245.05L444.181 238.571V248.457H440.592V232.428Z" fill="#2A2063"/>
<path d="M463.367 248.457V232.428H473.53V235.863H466.956V238.734H472.171V242.169H466.956V245.04H473.53V248.476H463.367V248.457Z" fill="#2A2063"/>
<path d="M495.959 248.734C493.672 248.734 491.72 247.921 490.103 246.303C488.485 244.686 487.672 242.734 487.672 240.447C487.672 238.16 488.476 236.208 490.103 234.59C491.72 232.973 493.672 232.16 495.959 232.16C497.595 232.16 499.079 232.562 500.409 233.356C501.73 234.15 502.753 235.212 503.452 236.543L500.294 238.256C499.328 236.514 497.883 235.634 495.959 235.634C494.667 235.634 493.567 236.112 492.648 237.059C491.739 238.007 491.28 239.136 491.28 240.447C491.28 241.758 491.739 242.887 492.648 243.835C493.557 244.782 494.658 245.26 495.959 245.26C497.883 245.26 499.328 244.39 500.294 242.638L503.452 244.351C502.744 245.672 501.73 246.734 500.409 247.538C499.088 248.332 497.605 248.734 495.959 248.734Z" fill="#2A2063"/>
<path d="M508.381 248.457V232.428H511.969V238.705H518.429V232.428H522.017V248.457H518.429V242.112H511.969V248.457H508.381Z" fill="#2A2063"/>
<path d="M526.505 248.457L533.376 232.428H536.629L543.491 248.457H539.74L538.314 245.069H531.672L530.247 248.457H526.495H526.505ZM534.993 237.145L532.964 241.949H537.003L534.993 237.145Z" fill="#2A2063"/>
<path d="M562.467 248.457H559.376L551.567 238.543V248.457H547.979V232.428H551.07L558.859 242.342V232.428H562.467V248.457Z" fill="#2A2063"/>
<path d="M576.515 248.734C574.027 248.734 571.96 247.94 570.295 246.351C568.63 244.763 567.798 242.791 567.798 240.447C567.798 238.102 568.592 236.169 570.18 234.562C571.769 232.954 573.788 232.16 576.238 232.16C578.994 232.16 581.185 233.069 582.812 234.887L580.286 237.346C579.214 236.198 577.874 235.634 576.247 235.634C574.831 235.634 573.673 236.102 572.774 237.04C571.874 237.978 571.415 239.117 571.415 240.437C571.415 241.758 571.874 242.973 572.793 243.882C573.711 244.792 574.936 245.251 576.467 245.251C577.884 245.251 578.917 244.992 579.587 244.485V242.112H576.448V238.744H583.09V246.351C582.401 247.136 581.472 247.729 580.314 248.122C579.157 248.524 577.893 248.715 576.525 248.715L576.515 248.734Z" fill="#2A2063"/>
<path d="M588.726 248.457V232.428H598.889V235.863H592.315V238.734H597.53V242.169H592.315V245.04H598.889V248.476H588.726V248.457Z" fill="#2A2063"/>
</g>
<defs>
<clipPath id="clip0_1903_113">
<rect width="256.376" height="16.5743" fill="white" transform="translate(343.624 232.16)"/>
</clipPath>
</defs>
</svg>
