<svg width="800" height="400" viewBox="0 0 800 400" fill="none" xmlns="http://www.w3.org/2000/svg">
<rect width="800" height="400" fill="white"/>
<path d="M479.554 129.627V165.766C479.554 168.55 478.255 170.936 475.657 172.58C442.992 193.313 418.228 202.01 409.585 204.449C397.653 207.79 391.317 207.445 390.283 207.366C368.488 205.828 331.767 176.795 331.767 176.795C331.767 176.795 361.727 183.874 430.955 151.978C443.946 145.986 458.423 139.543 475.259 131.987C475.259 131.987 478.945 130.449 479.554 129.627Z" fill="#4E29BB"/>
<path d="M477.645 128.62C478.07 128.355 478.626 128.01 478.812 127.321C478.971 126.711 478.918 125.916 478.547 125.385C477.911 124.378 476.85 123.688 475.657 122.946C442.992 102.212 418.228 93.4892 409.585 91.0764C397.653 87.7357 391.317 88.0804 390.283 88.1599C368.488 89.6977 331.767 118.73 331.767 118.73C331.767 118.73 361.727 111.651 430.955 143.547C433.182 144.581 435.462 145.615 437.769 146.676L475.577 129.707C475.577 129.707 476.956 129.044 477.619 128.62H477.645Z" fill="#926FF3"/>
<path d="M366.845 147.736C366.898 140.021 367.879 132.305 369.708 124.696L369.947 123.742C356.319 120.639 346.27 119.977 340.225 119.977C335.24 119.977 332.589 120.427 331.687 120.613C330.07 120.958 328.904 122.204 328.108 123.264C323.23 129.522 320.446 138.457 320.446 147.736C320.446 157.043 323.23 165.951 328.108 172.209C328.93 173.269 330.07 174.515 331.687 174.86C332.589 175.046 335.24 175.496 340.225 175.496C346.27 175.496 356.319 174.834 369.947 171.731L369.708 170.777C367.879 163.141 366.871 155.452 366.845 147.736Z" fill="#B59CF5"/>
<path d="M305.744 227.072H321.466L346.522 286.728H329.049L324.754 276.149H302.058L297.842 286.728H280.688L305.744 227.072ZM320.008 263.37L313.459 246.533L306.831 263.37H320.034H320.008Z" fill="#2C2067"/>
<path d="M342.624 257.059V256.9C342.624 239.746 355.828 226.303 373.645 226.303C385.656 226.303 393.398 231.341 398.594 238.579L386.318 248.071C382.951 243.856 379.08 241.178 373.459 241.178C365.213 241.178 359.433 248.151 359.433 256.715V256.874C359.433 265.703 365.24 272.596 373.459 272.596C379.584 272.596 383.216 269.733 386.743 265.464L399.018 274.214C393.477 281.85 386 287.497 372.955 287.497C356.146 287.497 342.624 274.638 342.624 257.059Z" fill="#2C2067"/>
<path d="M404.137 227.072H420.443V251.279L440.699 227.072H460.028L437.756 252.738L460.796 286.728H441.203L426.408 264.563L420.443 271.297V286.728H404.137V227.072Z" fill="#2C2067"/>
<path d="M455.944 257.059V256.9C455.944 240.011 469.572 226.303 487.708 226.303C505.843 226.303 519.312 239.825 519.312 256.715V256.874C519.312 273.763 505.684 287.471 487.548 287.471C469.413 287.471 455.944 273.949 455.944 257.033V257.059ZM502.661 257.059V256.9C502.661 248.416 496.537 241.019 487.522 241.019C478.507 241.019 472.648 248.257 472.648 256.741V256.9C472.648 265.385 478.772 272.782 487.681 272.782C496.59 272.782 502.635 265.544 502.635 257.059H502.661Z" fill="#2C2067"/>
<path d="M293.697 312.157L290.516 304.84L287.335 312.157H284.155L280.688 297.192H284.271L286.317 306.68L290.507 296.942L294.724 306.68L296.77 297.192H300.353L296.877 312.157H293.697Z" fill="#2C2067"/>
<path d="M304.882 312.157V297.192H314.371V300.399H308.233V303.079H313.102V306.287H308.233V308.967H314.371V312.175H304.882V312.157Z" fill="#2C2067"/>
<path d="M319.553 312.157V297.192H322.904V308.949H329.104V312.157H319.553Z" fill="#2C2067"/>
<path d="M340.04 312.416C337.905 312.416 336.082 311.657 334.572 310.147C333.062 308.637 332.303 306.814 332.303 304.679C332.303 302.544 333.054 300.721 334.572 299.211C336.082 297.701 337.905 296.942 340.04 296.942C341.568 296.942 342.953 297.317 344.195 298.058C345.428 298.8 346.384 299.792 347.036 301.034L344.088 302.633C343.185 301.007 341.836 300.185 340.04 300.185C338.834 300.185 337.807 300.632 336.949 301.516C336.1 302.401 335.671 303.455 335.671 304.679C335.671 305.903 336.1 306.957 336.949 307.842C337.798 308.726 338.825 309.173 340.04 309.173C341.836 309.173 343.185 308.36 344.088 306.725L347.036 308.324C346.375 309.557 345.428 310.549 344.195 311.299C342.962 312.041 341.577 312.416 340.04 312.416Z" fill="#2C2067"/>
<path d="M364.002 310.138C362.492 311.657 360.669 312.416 358.534 312.416C356.398 312.416 354.576 311.657 353.066 310.147C351.556 308.637 350.796 306.814 350.796 304.679C350.796 302.544 351.547 300.721 353.066 299.211C354.576 297.701 356.398 296.942 358.534 296.942C360.669 296.942 362.492 297.701 364.002 299.22C365.512 300.739 366.271 302.561 366.271 304.679C366.271 306.796 365.512 308.619 364.002 310.138ZM355.442 307.842C356.291 308.726 357.319 309.173 358.534 309.173C359.749 309.173 360.767 308.726 361.607 307.842C362.447 306.957 362.876 305.903 362.876 304.679C362.876 303.455 362.456 302.401 361.607 301.516C360.767 300.632 359.74 300.185 358.534 300.185C357.328 300.185 356.3 300.632 355.442 301.516C354.594 302.401 354.165 303.455 354.165 304.679C354.165 305.903 354.594 306.957 355.442 307.842Z" fill="#2C2067"/>
<path d="M371.222 297.192H374.278L378.933 303.642L383.632 297.192H386.688V312.157H383.32V302.945L378.96 308.976L374.573 302.928V312.157H371.222V297.192Z" fill="#2C2067"/>
<path d="M392.485 312.157V297.192H401.974V300.399H395.836V303.079H400.705V306.287H395.836V308.967H401.974V312.175H392.485V312.157Z" fill="#2C2067"/>
<path d="M423.211 312.416C421.075 312.416 419.253 311.657 417.743 310.147C416.233 308.637 415.473 306.814 415.473 304.679C415.473 302.544 416.224 300.721 417.743 299.211C419.253 297.701 421.075 296.942 423.211 296.942C424.739 296.942 426.123 297.317 427.365 298.058C428.598 298.8 429.554 299.792 430.206 301.034L427.258 302.633C426.356 301.007 425.007 300.185 423.211 300.185C422.005 300.185 420.977 300.632 420.119 301.516C419.271 302.401 418.842 303.455 418.842 304.679C418.842 305.903 419.271 306.957 420.119 307.842C420.968 308.726 421.996 309.173 423.211 309.173C425.007 309.173 426.356 308.36 427.258 306.725L430.206 308.324C429.545 309.557 428.598 310.549 427.365 311.299C426.132 312.041 424.747 312.416 423.211 312.416Z" fill="#2C2067"/>
<path d="M434.809 312.157V297.192H438.159V303.053H444.19V297.192H447.54V312.157H444.19V306.233H438.159V312.157H434.809Z" fill="#2C2067"/>
<path d="M451.73 312.157L458.145 297.192H461.183L467.589 312.157H464.086L462.755 308.994H456.555L455.223 312.157H451.721H451.73ZM459.655 301.596L457.761 306.082H461.531L459.655 301.596Z" fill="#2C2067"/>
<path d="M485.305 312.157H482.419L475.129 302.901V312.157H471.778V297.192H474.664L481.937 306.448V297.192H485.305V312.157Z" fill="#2C2067"/>
<path d="M498.422 312.416C496.099 312.416 494.17 311.675 492.615 310.192C491.06 308.708 490.283 306.868 490.283 304.679C490.283 302.49 491.025 300.685 492.508 299.184C493.991 297.683 495.876 296.942 498.163 296.942C500.736 296.942 502.782 297.79 504.301 299.488L501.943 301.784C500.942 300.712 499.691 300.185 498.172 300.185C496.85 300.185 495.769 300.623 494.929 301.498C494.089 302.374 493.66 303.437 493.66 304.67C493.66 305.903 494.089 307.038 494.947 307.886C495.805 308.735 496.948 309.164 498.378 309.164C499.7 309.164 500.665 308.923 501.29 308.449V306.234H498.36V303.089H504.56V310.192C503.917 310.924 503.05 311.478 501.969 311.844C500.888 312.22 499.709 312.398 498.431 312.398L498.422 312.416Z" fill="#2C2067"/>
<path d="M509.823 312.157V297.192H519.312V300.399H513.174V303.079H518.043V306.287H513.174V308.967H519.312V312.175H509.823V312.157Z" fill="#2C2067"/>
</svg>
