<svg width="800" height="400" viewBox="0 0 800 400" fill="none" xmlns="http://www.w3.org/2000/svg">
<rect width="800" height="400" fill="#4E29BB"/>
<path d="M316.76 185.385V214.69C316.76 216.942 315.736 218.885 313.657 220.23C287.685 237.044 268.023 244.105 261.141 246.072C251.656 248.786 246.628 248.5 245.806 248.444C228.48 247.21 199.301 223.646 199.301 223.646C199.301 223.646 223.114 229.393 278.128 203.52C288.443 198.672 299.958 193.434 313.343 187.304C313.343 187.304 316.268 186.054 316.76 185.393V185.385Z" fill="white"/>
<path d="M315.39 184.39C315.543 184.263 315.736 184.095 315.825 183.984C315.946 183.833 316.051 183.681 316.115 183.498C316.292 183.005 316.236 182.392 315.954 181.938C315.446 181.11 314.592 180.561 313.657 179.955C287.685 163.142 268.023 156.08 261.141 154.114C251.656 151.399 246.628 151.686 245.806 151.742C228.48 152.976 199.301 176.541 199.301 176.541C199.301 176.541 223.114 170.793 278.128 196.666C279.901 197.502 281.706 198.346 283.551 199.198L313.609 185.425C313.609 185.425 315.124 184.597 315.39 184.39Z" fill="white"/>
<path d="M227.191 200.065C227.223 193.816 228.013 187.558 229.472 181.373L229.665 180.6C218.835 178.085 210.841 177.552 206.046 177.552C202.089 177.552 199.986 177.909 199.269 178.061C197.98 178.339 197.069 179.359 196.416 180.21C192.54 185.289 190.324 192.526 190.324 200.065C190.324 207.604 192.54 214.849 196.416 219.92C197.069 220.772 197.98 221.783 199.269 222.069C199.986 222.221 202.089 222.579 206.046 222.579C210.841 222.579 218.826 222.046 229.665 219.53L229.472 218.758C228.013 212.572 227.223 206.314 227.191 200.065Z" fill="white"/>
<path d="M363.374 166.909H381.489L410.362 234.466H390.208L385.269 222.487H359.112L354.269 234.466H334.502L363.374 166.909ZM379.846 208.021L372.287 188.948L364.632 208.021H379.846Z" fill="white"/>
<path d="M405.898 201.118V200.927C405.898 181.376 421.112 166.049 441.644 166.049C455.496 166.049 464.408 171.795 470.42 180.037L456.278 190.869C452.402 186.078 447.945 183.01 441.451 183.01C431.958 183.01 425.27 190.964 425.27 200.736V200.927C425.27 210.986 431.958 218.845 441.451 218.845C448.526 218.845 452.692 215.585 456.761 210.699L470.903 220.662C464.505 229.382 455.883 235.806 440.87 235.806C421.49 235.806 405.898 221.14 405.898 201.118Z" fill="white"/>
<path d="M476.802 167.388H495.594V194.607L518.947 167.388H541.228L515.554 196.233L542.098 234.466H519.527L502.476 209.551L495.594 217.123V234.466H476.802V167.388Z" fill="white"/>
<path d="M536.53 201.118V200.927C536.53 181.663 552.227 166.049 573.154 166.049C594.082 166.049 609.586 181.479 609.586 200.736V200.927C609.586 220.192 593.888 235.806 572.961 235.806C552.034 235.806 536.53 220.375 536.53 201.118ZM590.399 201.118V200.927C590.399 191.251 583.324 182.818 572.961 182.818C562.598 182.818 555.813 191.06 555.813 200.736V200.927C555.813 210.603 562.888 219.036 573.154 219.036C583.42 219.036 590.399 210.795 590.399 201.118Z" fill="white"/>
</svg>
