<svg width="800" height="400" viewBox="0 0 800 400" fill="none" xmlns="http://www.w3.org/2000/svg">
<rect width="800" height="400" fill="white"/>
<g clip-path="url(#clip0_1904_656)">
<path d="M189.537 146.559H602.481V245.644H189.537" stroke="#FFBFC9" stroke-width="0.461948" stroke-miterlimit="10"/>
<path d="M321.679 146.559H288.644V179.595H321.679V146.559Z" stroke="#FFBFC9" stroke-width="0.461948" stroke-miterlimit="10"/>
<path d="M321.679 179.573H288.644V212.608H321.679V179.573Z" stroke="#FFBFC9" stroke-width="0.461948" stroke-miterlimit="10"/>
<path d="M321.679 212.586H288.644V245.622H321.679V212.586Z" stroke="#FFBFC9" stroke-width="0.461948" stroke-miterlimit="10"/>
<path d="M288.644 146.559H255.608V179.595H288.644V146.559Z" stroke="#FFBFC9" stroke-width="0.461948" stroke-miterlimit="10"/>
<path d="M288.644 179.573H255.608V212.608H288.644V179.573Z" stroke="#FFBFC9" stroke-width="0.461948" stroke-miterlimit="10"/>
<path d="M288.644 212.586H255.608V245.622H288.644V212.586Z" stroke="#FFBFC9" stroke-width="0.461948" stroke-miterlimit="10"/>
<path d="M255.608 146.559H222.573V179.595H255.608V146.559Z" stroke="#FFBFC9" stroke-width="0.461948" stroke-miterlimit="10"/>
<path d="M255.608 179.573H222.573V212.608H255.608V179.573Z" stroke="#FFBFC9" stroke-width="0.461948" stroke-miterlimit="10"/>
<path d="M255.608 212.586H222.573V245.622H255.608V212.586Z" stroke="#FFBFC9" stroke-width="0.461948" stroke-miterlimit="10"/>
<path d="M222.572 146.559H189.537V179.595H222.572V146.559Z" stroke="#FFBFC9" stroke-width="0.461948" stroke-miterlimit="10"/>
<path d="M222.572 179.573H189.537V212.608H222.572V179.573Z" stroke="#FFBFC9" stroke-width="0.461948" stroke-miterlimit="10"/>
<path d="M222.572 212.586H189.537V245.622H222.572V212.586Z" stroke="#FFBFC9" stroke-width="0.461948" stroke-miterlimit="10"/>
<path d="M602.482 163.077H569.446V196.112H602.482V163.077Z" stroke="#FFBFC9" stroke-width="0.461948" stroke-miterlimit="10"/>
<path d="M602.482 196.113H569.446V229.148H602.482V196.113Z" stroke="#FFBFC9" stroke-width="0.461948" stroke-miterlimit="10"/>
<path d="M569.446 163.077H536.41V196.112H569.446V163.077Z" stroke="#FFBFC9" stroke-width="0.461948" stroke-miterlimit="10"/>
<path d="M569.446 196.113H536.41V229.148H569.446V196.113Z" stroke="#FFBFC9" stroke-width="0.461948" stroke-miterlimit="10"/>
<path d="M536.41 163.077H503.375V196.112H536.41V163.077Z" stroke="#FFBFC9" stroke-width="0.461948" stroke-miterlimit="10"/>
<path d="M536.41 196.113H503.375V229.148H536.41V196.113Z" stroke="#FFBFC9" stroke-width="0.461948" stroke-miterlimit="10"/>
<path d="M503.375 163.077H470.339V196.112H503.375V163.077Z" stroke="#FFBFC9" stroke-width="0.461948" stroke-miterlimit="10"/>
<path d="M503.375 196.113H470.339V229.148H503.375V196.113Z" stroke="#FFBFC9" stroke-width="0.461948" stroke-miterlimit="10"/>
<path d="M470.339 163.077H437.304V196.112H470.339V163.077Z" stroke="#FFBFC9" stroke-width="0.461948" stroke-miterlimit="10"/>
<path d="M470.339 196.113H437.304V229.148H470.339V196.113Z" stroke="#FFBFC9" stroke-width="0.461948" stroke-miterlimit="10"/>
<path d="M437.304 163.077H404.268V196.112H437.304V163.077Z" stroke="#FFBFC9" stroke-width="0.461948" stroke-miterlimit="10"/>
<path d="M437.304 196.113H404.268V229.148H437.304V196.113Z" stroke="#FFBFC9" stroke-width="0.461948" stroke-miterlimit="10"/>
<path d="M404.268 163.077H371.232V196.112H404.268V163.077Z" stroke="#FFBFC9" stroke-width="0.461948" stroke-miterlimit="10"/>
<path d="M404.268 196.113H371.232V229.148H404.268V196.113Z" stroke="#FFBFC9" stroke-width="0.461948" stroke-miterlimit="10"/>
<path d="M371.232 163.077H338.197V196.112H371.232V163.077Z" stroke="#FFBFC9" stroke-width="0.461948" stroke-miterlimit="10"/>
<path d="M371.232 196.113H338.197V229.148H371.232V196.113Z" stroke="#FFBFC9" stroke-width="0.461948" stroke-miterlimit="10"/>
<path d="M338.197 245.622V146.559" stroke="#FFBFC9" stroke-width="0.461948" stroke-miterlimit="10"/>
<path d="M321.679 245.622V146.559" stroke="#FFBFC9" stroke-width="0.461948" stroke-miterlimit="10"/>
<path d="M605.233 163.077H614.329C615.562 163.077 616.575 164.09 616.575 165.323V226.857C616.575 228.091 615.562 229.104 614.329 229.104H605.233" stroke="#FF3B82" stroke-width="0.660711" stroke-miterlimit="10"/>
<path d="M602.459 252.229V261.325C602.459 262.558 601.446 263.571 600.213 263.571H340.465C339.232 263.571 338.219 262.558 338.219 261.325V252.229" stroke="#FF3B82" stroke-width="0.660711" stroke-miterlimit="10"/>
<path d="M321.106 252.229V261.325C321.106 262.558 320.093 263.571 318.86 263.571H191.783C190.549 263.571 189.536 262.558 189.536 261.325V252.229" stroke="#FF3B82" stroke-width="0.660711" stroke-miterlimit="10"/>
<path d="M321.966 138.432V129.336C321.966 128.103 322.979 127.09 324.212 127.09H335.929C337.162 127.09 338.175 128.103 338.175 129.336V138.432" stroke="#FF3B82" stroke-width="0.660711" stroke-miterlimit="10"/>
<path d="M186.695 146.581H177.599C176.366 146.581 175.353 147.594 175.353 148.827V243.375C175.353 244.609 176.366 245.622 177.599 245.622H186.695" stroke="#FF3B82" stroke-width="0.660711" stroke-miterlimit="10"/>
<g style="mix-blend-mode:plus-darker">
<path d="M365.902 163.077H383.301L411.029 229.148H391.67L386.913 217.431H361.784L357.137 229.148H338.152L365.88 163.077H365.902ZM381.737 203.27L374.469 184.616L367.113 203.27H381.737Z" fill="#2A2063"/>
<path d="M406.756 196.288V196.112C406.756 177.128 421.38 162.218 441.113 162.218C454.415 162.218 462.983 167.812 468.753 175.806L455.164 186.334C451.442 181.687 447.17 178.692 440.915 178.692C431.797 178.692 425.366 186.422 425.366 195.914V196.09C425.366 205.869 431.797 213.489 440.915 213.489C447.72 213.489 451.706 210.318 455.627 205.582L469.215 215.273C463.071 223.752 454.79 229.985 440.364 229.985C421.754 229.985 406.756 215.735 406.756 196.288Z" fill="#2A2063"/>
<path d="M474.897 163.077H492.957V189.88L515.399 163.077H536.806L512.139 191.487L537.643 229.148H515.949L499.564 204.613L492.957 212.079V229.17H474.897V163.099V163.077Z" fill="#2A2063"/>
<path d="M532.269 196.288V196.112C532.269 177.392 547.355 162.218 567.463 162.218C587.57 162.218 602.458 177.194 602.458 195.914V196.09C602.458 214.81 587.372 229.985 567.265 229.985C547.157 229.985 532.269 214.987 532.269 196.288ZM584.025 196.288V196.112C584.025 186.708 577.219 178.515 567.265 178.515C557.31 178.515 550.791 186.532 550.791 195.914V196.09C550.791 205.494 557.596 213.687 567.463 213.687C577.329 213.687 584.025 205.693 584.025 196.288Z" fill="#2A2063"/>
</g>
<g style="mix-blend-mode:plus-darker">
<path d="M321.657 181.048V211.066C321.657 213.379 320.577 215.361 318.419 216.726C291.286 233.949 270.716 241.173 263.536 243.199C253.625 245.974 248.362 245.688 247.503 245.622C229.399 244.344 198.896 220.228 198.896 220.228C198.896 220.228 223.783 226.109 281.287 199.614C292.079 194.637 304.104 189.285 318.089 183.008C318.089 183.008 321.15 181.731 321.657 181.048Z" fill="#4E29BB"/>
<path d="M320.048 180.211C320.401 179.991 320.863 179.705 321.017 179.132C321.15 178.626 321.106 177.965 320.797 177.524C320.269 176.688 319.388 176.115 318.397 175.498C291.263 158.276 270.693 151.052 263.514 149.026C253.603 146.251 248.339 146.537 247.48 146.603C229.377 147.881 198.874 171.997 198.874 171.997C198.874 171.997 223.761 166.116 281.265 192.611C283.115 193.47 285.009 194.329 286.925 195.209L318.331 181.114C318.331 181.114 319.476 180.564 320.026 180.211H320.048Z" fill="#926FF3"/>
<path d="M228.034 196.068C228.078 189.659 228.893 183.251 230.412 176.93L230.611 176.137C219.291 173.56 210.944 173.01 205.922 173.01C201.782 173.01 199.579 173.384 198.83 173.538C197.487 173.824 196.518 174.86 195.857 175.74C191.805 180.938 189.492 188.36 189.492 196.068C189.492 203.799 191.805 211.199 195.857 216.396C196.54 217.277 197.487 218.312 198.83 218.599C199.579 218.753 201.782 219.127 205.922 219.127C210.944 219.127 219.291 218.577 230.611 216L230.412 215.207C228.893 208.864 228.056 202.477 228.034 196.068Z" fill="#B59CF5"/>
</g>
</g>
<path d="M628.543 198.211H623.443V197.834C623.443 197.413 623.525 197.043 623.687 196.726C623.857 196.408 624.068 196.123 624.319 195.872C624.578 195.613 624.862 195.377 625.173 195.162C625.491 194.941 625.794 194.723 626.082 194.508C626.311 194.338 626.511 194.183 626.681 194.043C626.858 193.895 627.006 193.747 627.124 193.599C627.242 193.444 627.331 193.281 627.39 193.111C627.449 192.934 627.479 192.731 627.479 192.501C627.479 192.088 627.346 191.759 627.08 191.515C626.814 191.263 626.466 191.138 626.038 191.138C625.823 191.138 625.616 191.171 625.417 191.238C625.225 191.304 625.051 191.404 624.896 191.537C624.748 191.663 624.63 191.825 624.541 192.025C624.452 192.217 624.408 192.439 624.408 192.69H623.432C623.432 192.313 623.499 191.973 623.632 191.67C623.765 191.36 623.946 191.097 624.175 190.883C624.412 190.668 624.689 190.502 625.007 190.384C625.324 190.266 625.664 190.207 626.027 190.207C626.352 190.207 626.662 190.255 626.958 190.351C627.253 190.447 627.512 190.591 627.734 190.783C627.956 190.975 628.129 191.215 628.255 191.504C628.388 191.792 628.455 192.128 628.455 192.513C628.455 192.801 628.418 193.063 628.344 193.3C628.277 193.536 628.17 193.762 628.022 193.976C627.882 194.183 627.693 194.394 627.457 194.608C627.228 194.815 626.954 195.033 626.636 195.262C626.407 195.432 626.182 195.591 625.96 195.739C625.738 195.879 625.535 196.027 625.35 196.182C625.173 196.338 625.018 196.504 624.885 196.681C624.752 196.859 624.663 197.062 624.619 197.291H628.543V198.211ZM632.02 196.116L630.335 198.211H629.149L631.422 195.406L629.337 192.668H630.49L632.02 194.675L633.539 192.668H634.703L632.608 195.406L634.881 198.211H633.705L632.02 196.116Z" fill="#FF3B82"/>
<path d="M323.685 116.111C323.279 116.111 322.906 116.041 322.566 115.9C322.226 115.752 321.93 115.549 321.679 115.29C321.435 115.032 321.243 114.721 321.102 114.359C320.969 113.99 320.903 113.587 320.903 113.151V110.956C320.903 110.519 320.969 110.12 321.102 109.758C321.243 109.396 321.435 109.086 321.679 108.827C321.93 108.561 322.226 108.358 322.566 108.217C322.906 108.069 323.279 107.995 323.685 107.995C324.092 107.995 324.465 108.069 324.805 108.217C325.145 108.358 325.437 108.561 325.681 108.827C325.932 109.086 326.128 109.396 326.269 109.758C326.409 110.12 326.479 110.519 326.479 110.956V113.151C326.479 113.587 326.409 113.99 326.269 114.359C326.128 114.721 325.932 115.032 325.681 115.29C325.437 115.549 325.145 115.752 324.805 115.9C324.465 116.041 324.092 116.111 323.685 116.111ZM323.685 115.18C324.225 115.18 324.665 115.002 325.005 114.647C325.352 114.293 325.526 113.794 325.526 113.151V110.956C325.526 110.312 325.352 109.814 325.005 109.459C324.665 109.104 324.225 108.927 323.685 108.927C323.419 108.927 323.172 108.975 322.943 109.071C322.721 109.159 322.529 109.293 322.366 109.47C322.211 109.64 322.085 109.851 321.989 110.102C321.901 110.353 321.856 110.638 321.856 110.956V113.151C321.856 113.469 321.901 113.753 321.989 114.004C322.085 114.256 322.211 114.47 322.366 114.647C322.529 114.817 322.721 114.95 322.943 115.047C323.172 115.135 323.419 115.18 323.685 115.18ZM328.369 116.089C328.14 116.089 327.944 116.007 327.781 115.845C327.626 115.682 327.548 115.486 327.548 115.257C327.548 115.035 327.626 114.843 327.781 114.681C327.944 114.511 328.14 114.426 328.369 114.426C328.598 114.426 328.79 114.511 328.945 114.681C329.108 114.843 329.189 115.035 329.189 115.257C329.189 115.486 329.108 115.682 328.945 115.845C328.79 116.007 328.598 116.089 328.369 116.089ZM332.803 116.111C332.448 116.111 332.112 116.052 331.794 115.933C331.476 115.815 331.199 115.653 330.963 115.446C330.726 115.239 330.534 115.002 330.386 114.736C330.246 114.463 330.172 114.174 330.164 113.871H331.14C331.229 114.248 331.421 114.562 331.716 114.814C332.019 115.058 332.382 115.18 332.803 115.18C333.047 115.18 333.272 115.135 333.479 115.047C333.686 114.958 333.864 114.84 334.011 114.692C334.167 114.537 334.285 114.359 334.366 114.16C334.455 113.953 334.499 113.731 334.499 113.494C334.499 113.258 334.459 113.036 334.377 112.829C334.296 112.622 334.181 112.445 334.034 112.297C333.893 112.142 333.719 112.02 333.513 111.931C333.313 111.842 333.091 111.798 332.847 111.798C332.507 111.798 332.212 111.872 331.96 112.02C331.709 112.168 331.509 112.36 331.362 112.596L330.453 112.33L331.262 108.128H334.943V109.06H332.027L331.594 111.31C331.75 111.199 331.942 111.103 332.171 111.022C332.408 110.941 332.674 110.9 332.969 110.9C333.339 110.9 333.675 110.97 333.978 111.111C334.289 111.244 334.555 111.432 334.776 111.676C334.998 111.92 335.168 112.208 335.286 112.541C335.412 112.874 335.475 113.232 335.475 113.616C335.475 113.964 335.405 114.289 335.264 114.592C335.131 114.895 334.946 115.161 334.71 115.39C334.473 115.612 334.192 115.789 333.867 115.922C333.542 116.048 333.187 116.111 332.803 116.111ZM338.853 113.905L337.168 116H335.981L338.254 113.195L336.17 110.457H337.323L338.853 112.463L340.372 110.457H341.536L339.44 113.195L341.713 116H340.538L338.853 113.905Z" fill="#FF3B82"/>
<path d="M469.955 280.436C469.57 280.436 469.215 280.377 468.89 280.259C468.565 280.133 468.284 279.959 468.048 279.738C467.819 279.516 467.637 279.253 467.504 278.95C467.371 278.647 467.305 278.318 467.305 277.964C467.305 277.491 467.412 277.08 467.626 276.733C467.848 276.378 468.155 276.105 468.547 275.913C468.295 275.735 468.096 275.514 467.948 275.247C467.807 274.981 467.737 274.682 467.737 274.349C467.737 274.054 467.793 273.784 467.904 273.54C468.014 273.289 468.17 273.074 468.369 272.897C468.569 272.712 468.802 272.572 469.068 272.476C469.341 272.372 469.637 272.321 469.955 272.321C470.28 272.321 470.575 272.372 470.842 272.476C471.115 272.572 471.348 272.712 471.54 272.897C471.74 273.074 471.891 273.289 471.995 273.54C472.105 273.784 472.161 274.054 472.161 274.349C472.161 274.682 472.091 274.981 471.95 275.247C471.81 275.514 471.614 275.735 471.363 275.913C471.754 276.105 472.057 276.378 472.272 276.733C472.486 277.08 472.593 277.491 472.593 277.964C472.593 278.318 472.527 278.647 472.394 278.95C472.268 279.253 472.087 279.516 471.85 279.738C471.621 279.959 471.344 280.133 471.019 280.259C470.701 280.377 470.346 280.436 469.955 280.436ZM469.955 279.527C470.221 279.527 470.457 279.486 470.664 279.405C470.871 279.324 471.045 279.213 471.185 279.072C471.333 278.932 471.444 278.766 471.518 278.573C471.592 278.381 471.629 278.178 471.629 277.964C471.629 277.742 471.592 277.535 471.518 277.343C471.444 277.151 471.333 276.984 471.185 276.844C471.045 276.704 470.871 276.593 470.664 276.511C470.457 276.43 470.221 276.389 469.955 276.389C469.696 276.389 469.463 276.43 469.256 276.511C469.049 276.593 468.872 276.704 468.724 276.844C468.576 276.984 468.462 277.151 468.38 277.343C468.306 277.535 468.269 277.742 468.269 277.964C468.269 278.178 468.306 278.381 468.38 278.573C468.462 278.766 468.576 278.932 468.724 279.072C468.872 279.213 469.049 279.324 469.256 279.405C469.463 279.486 469.696 279.527 469.955 279.527ZM469.955 275.536C470.154 275.536 470.332 275.506 470.487 275.447C470.642 275.381 470.775 275.296 470.886 275.192C470.997 275.081 471.078 274.956 471.13 274.815C471.189 274.675 471.218 274.527 471.218 274.372C471.218 274.039 471.108 273.766 470.886 273.551C470.664 273.329 470.354 273.219 469.955 273.219C469.57 273.219 469.26 273.329 469.023 273.551C468.794 273.766 468.68 274.039 468.68 274.372C468.68 274.527 468.709 274.675 468.768 274.815C468.827 274.956 468.912 275.081 469.023 275.192C469.134 275.296 469.267 275.381 469.422 275.447C469.585 275.506 469.762 275.536 469.955 275.536ZM476.055 278.23L474.37 280.325H473.184L475.457 277.52L473.372 274.782H474.526L476.055 276.789L477.574 274.782H478.738L476.643 277.52L478.916 280.325H477.741L476.055 278.23Z" fill="#FF3B82"/>
<path d="M253.419 278.185H249.228V277.42L253.54 272.454H254.372V277.287H255.459V278.185H254.372V280.325H253.419V278.185ZM253.419 277.287V273.895L250.469 277.287H253.419ZM258.82 278.23L257.135 280.325H255.948L258.221 277.52L256.137 274.782H257.29L258.82 276.789L260.339 274.782H261.503L259.407 277.52L261.68 280.325H260.505L258.82 278.23Z" fill="#FF3B82"/>
<path d="M158.638 205.178C158.246 205.178 157.88 205.115 157.54 204.99C157.2 204.864 156.904 204.69 156.653 204.468C156.402 204.247 156.202 203.984 156.054 203.681C155.907 203.371 155.833 203.035 155.833 202.672H156.797C156.812 202.909 156.867 203.127 156.964 203.327C157.067 203.519 157.2 203.685 157.363 203.825C157.533 203.958 157.725 204.062 157.939 204.136C158.161 204.21 158.394 204.247 158.638 204.247C158.859 204.247 159.066 204.217 159.259 204.158C159.451 204.092 159.617 203.999 159.757 203.881C159.905 203.763 160.02 203.615 160.101 203.437C160.19 203.26 160.234 203.057 160.234 202.828C160.234 202.34 160.075 201.981 159.757 201.752C159.44 201.523 159.026 201.409 158.516 201.409H157.928V200.533H158.56C158.974 200.533 159.318 200.414 159.591 200.178C159.865 199.941 160.005 199.635 160.012 199.258C160.012 199.073 159.975 198.903 159.902 198.748C159.828 198.592 159.728 198.459 159.602 198.349C159.477 198.238 159.325 198.153 159.148 198.094C158.978 198.027 158.793 197.994 158.593 197.994C158.372 197.994 158.161 198.027 157.961 198.094C157.762 198.16 157.584 198.26 157.429 198.393C157.281 198.519 157.163 198.677 157.074 198.87C156.986 199.062 156.941 199.287 156.941 199.546H155.966C155.966 199.162 156.032 198.818 156.165 198.515C156.306 198.204 156.494 197.942 156.731 197.728C156.975 197.513 157.256 197.351 157.573 197.24C157.891 197.122 158.231 197.062 158.593 197.062C158.926 197.062 159.236 197.114 159.525 197.218C159.82 197.314 160.075 197.458 160.29 197.65C160.511 197.835 160.681 198.06 160.8 198.326C160.925 198.592 160.988 198.892 160.988 199.224C160.981 199.609 160.877 199.952 160.678 200.255C160.478 200.559 160.227 200.788 159.924 200.943C160.323 201.105 160.637 201.353 160.866 201.686C161.095 202.018 161.21 202.41 161.21 202.861C161.21 203.208 161.147 203.526 161.021 203.814C160.896 204.095 160.718 204.339 160.489 204.546C160.26 204.746 159.987 204.901 159.669 205.012C159.358 205.123 159.015 205.178 158.638 205.178ZM164.714 202.972L163.029 205.067H161.843L164.115 202.262L162.031 199.524H163.184L164.714 201.53L166.233 199.524H167.397L165.302 202.262L167.574 205.067H166.399L164.714 202.972Z" fill="#FF3B82"/>
<defs>
<clipPath id="clip0_1904_656">
<rect width="441.884" height="137.12" fill="white" transform="translate(175.023 126.76)"/>
</clipPath>
</defs>
</svg>
