<svg width="800" height="400" viewBox="0 0 800 400" fill="none" xmlns="http://www.w3.org/2000/svg">
<rect width="800" height="400" fill="white"/>
<g clip-path="url(#clip0_1904_761)">
<path d="M481.39 98.0107H441.586V137.814H481.39V98.0107Z" stroke="#FFBFC9" stroke-width="0.398479" stroke-miterlimit="10"/>
<path d="M481.39 137.788H441.586V177.591H481.39V137.788Z" stroke="#FFBFC9" stroke-width="0.398479" stroke-miterlimit="10"/>
<path d="M521.194 237.35H481.39V277.153H521.194V237.35Z" stroke="#FFBFC9" stroke-width="0.398479" stroke-miterlimit="10"/>
<path d="M481.39 237.35H441.586V277.153H481.39V237.35Z" stroke="#FFBFC9" stroke-width="0.398479" stroke-miterlimit="10"/>
<path d="M441.586 237.35H401.783V277.153H441.586V237.35Z" stroke="#FFBFC9" stroke-width="0.398479" stroke-miterlimit="10"/>
<path d="M401.782 237.35H361.978V277.153H401.782V237.35Z" stroke="#FFBFC9" stroke-width="0.398479" stroke-miterlimit="10"/>
<path d="M361.979 237.35H322.175V277.153H361.979V237.35Z" stroke="#FFBFC9" stroke-width="0.398479" stroke-miterlimit="10"/>
<path d="M322.175 237.35H282.372V277.153H322.175V237.35Z" stroke="#FFBFC9" stroke-width="0.398479" stroke-miterlimit="10"/>
<path d="M521.194 277.127H481.39V297.029H521.194V277.127Z" stroke="#FFBFC9" stroke-width="0.398479" stroke-miterlimit="10"/>
<path d="M481.39 277.127H441.586V297.029H481.39V277.127Z" stroke="#FFBFC9" stroke-width="0.398479" stroke-miterlimit="10"/>
<path d="M441.586 277.127H401.783V297.029H441.586V277.127Z" stroke="#FFBFC9" stroke-width="0.398479" stroke-miterlimit="10"/>
<path d="M401.782 277.127H361.978V297.029H401.782V277.127Z" stroke="#FFBFC9" stroke-width="0.398479" stroke-miterlimit="10"/>
<path d="M361.979 277.127H322.175V297.029H361.979V277.127Z" stroke="#FFBFC9" stroke-width="0.398479" stroke-miterlimit="10"/>
<path d="M322.175 277.127H282.372V297.029H322.175V277.127Z" stroke="#FFBFC9" stroke-width="0.398479" stroke-miterlimit="10"/>
<path d="M481.39 177.565H441.586V217.369H481.39V177.565Z" stroke="#FFBFC9" stroke-width="0.398479" stroke-miterlimit="10"/>
<path d="M521.194 98.0107H481.39V137.814H521.194V98.0107Z" fill="#FFF3FB" stroke="#FFBFC9" stroke-width="0.398479" stroke-miterlimit="10"/>
<path d="M521.194 137.788H481.39V177.591H521.194V137.788Z" fill="#FFF3FB" stroke="#FFBFC9" stroke-width="0.398479" stroke-miterlimit="10"/>
<path d="M521.194 177.565H481.39V217.369H521.194V177.565Z" fill="#FFF3FB" stroke="#FFBFC9" stroke-width="0.398479" stroke-miterlimit="10"/>
<path d="M322.175 98.0107H282.372V137.814H322.175V98.0107Z" fill="#FFF3FB" stroke="#FFBFC9" stroke-width="0.398479" stroke-miterlimit="10"/>
<path d="M322.175 137.788H282.372V177.591H322.175V137.788Z" fill="#FFF3FB" stroke="#FFBFC9" stroke-width="0.398479" stroke-miterlimit="10"/>
<path d="M322.175 177.565H282.372V217.369H322.175V177.565Z" fill="#FFF3FB" stroke="#FFBFC9" stroke-width="0.398479" stroke-miterlimit="10"/>
<path d="M481.39 217.422H441.586V237.324H481.39V217.422Z" stroke="#FFBFC9" stroke-width="0.398479" stroke-miterlimit="10"/>
<path d="M441.586 98.0107H401.783V137.814H441.586V98.0107Z" stroke="#FFBFC9" stroke-width="0.398479" stroke-miterlimit="10"/>
<path d="M441.586 137.788H401.783V177.591H441.586V137.788Z" stroke="#FFBFC9" stroke-width="0.398479" stroke-miterlimit="10"/>
<path d="M441.586 177.565H401.783V217.369H441.586V177.565Z" stroke="#FFBFC9" stroke-width="0.398479" stroke-miterlimit="10"/>
<path d="M401.782 98.0107H361.978V137.814H401.782V98.0107Z" stroke="#FFBFC9" stroke-width="0.398479" stroke-miterlimit="10"/>
<path d="M401.782 137.788H361.978V177.591H401.782V137.788Z" stroke="#FFBFC9" stroke-width="0.398479" stroke-miterlimit="10"/>
<path d="M401.782 177.565H361.978V217.369H401.782V177.565Z" stroke="#FFBFC9" stroke-width="0.398479" stroke-miterlimit="10"/>
<path d="M361.979 98.0107H322.175V137.814H361.979V98.0107Z" stroke="#FFBFC9" stroke-width="0.398479" stroke-miterlimit="10"/>
<path d="M361.979 137.788H322.175V177.591H361.979V137.788Z" stroke="#FFBFC9" stroke-width="0.398479" stroke-miterlimit="10"/>
<path d="M361.979 177.565H322.175V217.369H361.979V177.565Z" stroke="#FFBFC9" stroke-width="0.398479" stroke-miterlimit="10"/>
<g style="mix-blend-mode:plus-darker">
<path d="M307.448 237.324H323.184L348.26 297.029H330.773L326.474 286.441H303.76L299.54 297.029H282.372L307.448 237.324ZM321.724 273.651L315.17 256.801L308.536 273.651H321.751H321.724Z" fill="#2A2063"/>
<path d="M344.359 267.335V267.176C344.359 250.008 357.574 236.554 375.406 236.554C387.426 236.554 395.175 241.596 400.376 248.84L388.09 258.34C384.72 254.121 380.845 251.441 375.22 251.441C366.967 251.441 361.182 258.419 361.182 266.99V267.15C361.182 275.986 366.994 282.885 375.22 282.885C381.35 282.885 384.985 280.02 388.514 275.747L400.8 284.504C395.254 292.146 387.771 297.798 374.716 297.798C357.892 297.798 344.359 284.929 344.359 267.335Z" fill="#2A2063"/>
<path d="M405.923 237.324H422.242V261.551L442.516 237.324H461.86L439.57 263.01L462.63 297.029H443.02L428.213 274.845L422.242 281.585V297.029H405.923V237.324Z" fill="#2A2063"/>
<path d="M457.773 267.335V267.176C457.773 250.273 471.413 236.554 489.563 236.554C507.714 236.554 521.194 250.087 521.194 266.99V267.15C521.194 284.053 507.554 297.772 489.404 297.772C471.253 297.772 457.773 284.239 457.773 267.309V267.335ZM504.529 267.335V267.176C504.529 258.685 498.399 251.281 489.377 251.281C480.355 251.281 474.491 258.526 474.491 267.017V267.176C474.491 275.668 480.62 283.071 489.537 283.071C498.453 283.071 504.503 275.827 504.503 267.335H504.529Z" fill="#2A2063"/>
<path d="M481.39 139.566V175.734C481.39 178.52 480.09 180.909 477.489 182.554C444.797 203.305 420.013 212.009 411.362 214.45C399.421 217.793 393.079 217.448 392.044 217.369C370.231 215.83 333.479 186.773 333.479 186.773C333.479 186.773 363.465 193.858 432.75 161.936C445.752 155.938 460.241 149.49 477.091 141.928C477.091 141.928 480.779 140.389 481.39 139.566Z" fill="#4E29BB"/>
<path d="M479.479 138.557C479.904 138.292 480.461 137.947 480.647 137.257C480.806 136.647 480.753 135.851 480.381 135.32C479.745 134.312 478.683 133.622 477.489 132.879C444.797 112.128 420.013 103.398 411.362 100.983C399.421 97.6393 393.079 97.9843 392.044 98.0639C370.231 99.603 333.479 128.66 333.479 128.66C333.479 128.66 363.465 121.575 432.75 153.497C434.979 154.532 437.261 155.567 439.569 156.628L477.409 139.645C477.409 139.645 478.789 138.982 479.453 138.557H479.479Z" fill="#926FF3"/>
<path d="M368.586 157.69C368.64 149.968 369.621 142.246 371.452 134.63L371.691 133.675C358.052 130.57 347.995 129.907 341.945 129.907C336.956 129.907 334.302 130.358 333.4 130.544C331.781 130.889 330.614 132.136 329.818 133.197C324.935 139.46 322.149 148.402 322.149 157.69C322.149 167.004 324.935 175.92 329.818 182.182C330.64 183.244 331.781 184.491 333.4 184.836C334.302 185.022 336.956 185.473 341.945 185.473C347.995 185.473 358.052 184.809 371.691 181.705L371.452 180.749C369.621 173.107 368.613 165.412 368.586 157.69Z" fill="#B59CF5"/>
</g>
</g>
<path d="M544.427 230.112C544.076 230.112 543.754 230.051 543.461 229.93C543.168 229.803 542.913 229.627 542.696 229.404C542.486 229.181 542.32 228.913 542.199 228.601C542.084 228.282 542.026 227.934 542.026 227.558V225.665C542.026 225.289 542.084 224.944 542.199 224.632C542.32 224.319 542.486 224.052 542.696 223.829C542.913 223.599 543.168 223.424 543.461 223.303C543.754 223.175 544.076 223.111 544.427 223.111C544.778 223.111 545.1 223.175 545.393 223.303C545.686 223.424 545.938 223.599 546.148 223.829C546.365 224.052 546.534 224.319 546.655 224.632C546.776 224.944 546.837 225.289 546.837 225.665V227.558C546.837 227.934 546.776 228.282 546.655 228.601C546.534 228.913 546.365 229.181 546.148 229.404C545.938 229.627 545.686 229.803 545.393 229.93C545.1 230.051 544.778 230.112 544.427 230.112ZM544.427 229.308C544.892 229.308 545.272 229.155 545.565 228.849C545.865 228.543 546.014 228.113 546.014 227.558V225.665C546.014 225.11 545.865 224.68 545.565 224.374C545.272 224.068 544.892 223.915 544.427 223.915C544.197 223.915 543.984 223.956 543.786 224.039C543.595 224.115 543.429 224.23 543.289 224.383C543.155 224.53 543.047 224.712 542.964 224.928C542.887 225.145 542.849 225.391 542.849 225.665V227.558C542.849 227.832 542.887 228.078 542.964 228.295C543.047 228.511 543.155 228.696 543.289 228.849C543.429 228.996 543.595 229.111 543.786 229.194C543.984 229.27 544.197 229.308 544.427 229.308ZM548.467 230.093C548.269 230.093 548.1 230.022 547.96 229.882C547.826 229.742 547.759 229.573 547.759 229.375C547.759 229.184 547.826 229.018 547.96 228.878C548.1 228.731 548.269 228.658 548.467 228.658C548.664 228.658 548.83 228.731 548.964 228.878C549.104 229.018 549.174 229.184 549.174 229.375C549.174 229.573 549.104 229.742 548.964 229.882C548.83 230.022 548.664 230.093 548.467 230.093ZM552.292 230.112C551.986 230.112 551.696 230.061 551.421 229.959C551.147 229.857 550.908 229.716 550.704 229.538C550.5 229.359 550.334 229.155 550.207 228.926C550.086 228.69 550.022 228.441 550.016 228.18H550.857C550.934 228.505 551.099 228.776 551.354 228.993C551.616 229.203 551.928 229.308 552.292 229.308C552.502 229.308 552.697 229.27 552.875 229.194C553.054 229.117 553.207 229.015 553.334 228.888C553.468 228.754 553.57 228.601 553.64 228.429C553.717 228.25 553.755 228.059 553.755 227.855C553.755 227.651 553.72 227.459 553.65 227.281C553.58 227.102 553.481 226.949 553.353 226.822C553.232 226.688 553.082 226.583 552.904 226.506C552.732 226.43 552.54 226.392 552.33 226.392C552.037 226.392 551.782 226.455 551.565 226.583C551.348 226.71 551.176 226.876 551.048 227.08L550.264 226.851L550.962 223.226H554.137V224.029H551.622L551.249 225.971C551.383 225.875 551.549 225.792 551.747 225.722C551.951 225.652 552.18 225.617 552.435 225.617C552.754 225.617 553.044 225.677 553.305 225.799C553.573 225.913 553.803 226.076 553.994 226.286C554.185 226.497 554.332 226.745 554.434 227.032C554.542 227.319 554.596 227.628 554.596 227.96C554.596 228.26 554.536 228.54 554.415 228.802C554.3 229.063 554.141 229.292 553.937 229.49C553.733 229.681 553.49 229.834 553.21 229.949C552.929 230.058 552.623 230.112 552.292 230.112ZM557.51 228.209L556.057 230.016H555.033L556.994 227.597L555.196 225.234H556.191L557.51 226.965L558.821 225.234H559.825L558.017 227.597L559.978 230.016H558.964L557.51 228.209Z" fill="#FF3B82"/>
<path d="M245.422 160.776C245.084 160.776 244.768 160.722 244.475 160.613C244.182 160.505 243.927 160.355 243.71 160.164C243.493 159.973 243.321 159.746 243.194 159.485C243.066 159.217 243.002 158.927 243.002 158.615H243.834C243.847 158.819 243.895 159.007 243.978 159.179C244.067 159.345 244.182 159.488 244.322 159.609C244.469 159.724 244.634 159.813 244.819 159.877C245.011 159.941 245.211 159.973 245.422 159.973C245.613 159.973 245.792 159.947 245.957 159.896C246.123 159.839 246.267 159.759 246.388 159.657C246.515 159.555 246.614 159.428 246.684 159.275C246.761 159.122 246.799 158.946 246.799 158.749C246.799 158.328 246.662 158.019 246.388 157.821C246.114 157.623 245.757 157.524 245.317 157.524H244.81V156.769H245.355C245.712 156.769 246.008 156.667 246.244 156.463C246.48 156.259 246.601 155.994 246.608 155.669C246.608 155.51 246.576 155.363 246.512 155.229C246.448 155.095 246.362 154.981 246.254 154.885C246.145 154.789 246.015 154.716 245.862 154.665C245.715 154.608 245.556 154.579 245.384 154.579C245.192 154.579 245.011 154.608 244.838 154.665C244.666 154.722 244.513 154.808 244.379 154.923C244.252 155.032 244.15 155.169 244.073 155.334C243.997 155.5 243.959 155.695 243.959 155.918H243.117C243.117 155.586 243.174 155.29 243.289 155.028C243.41 154.761 243.573 154.534 243.777 154.349C243.987 154.164 244.23 154.024 244.504 153.929C244.778 153.827 245.071 153.776 245.384 153.776C245.67 153.776 245.938 153.82 246.187 153.909C246.442 153.992 246.662 154.117 246.847 154.282C247.038 154.442 247.185 154.636 247.287 154.866C247.395 155.095 247.449 155.354 247.449 155.64C247.443 155.972 247.354 156.268 247.181 156.53C247.009 156.791 246.793 156.989 246.531 157.123C246.875 157.263 247.146 157.477 247.344 157.764C247.542 158.05 247.641 158.388 247.641 158.777C247.641 159.077 247.586 159.351 247.478 159.6C247.37 159.842 247.217 160.052 247.019 160.231C246.821 160.403 246.585 160.537 246.311 160.633C246.043 160.728 245.747 160.776 245.422 160.776ZM250.663 158.873L249.21 160.68H248.186L250.147 158.261L248.349 155.899H249.344L250.663 157.63L251.974 155.899H252.978L251.17 158.261L253.131 160.68H252.117L250.663 158.873Z" fill="#FF3B82"/>
<path d="M241.439 264.683H240.129L240.798 263.871H242.261V270.661H241.439V264.683ZM244.367 270.737C244.17 270.737 244.001 270.667 243.86 270.527C243.726 270.386 243.66 270.218 243.66 270.02C243.66 269.829 243.726 269.663 243.86 269.523C244.001 269.376 244.17 269.303 244.367 269.303C244.565 269.303 244.731 269.376 244.865 269.523C245.005 269.663 245.075 269.829 245.075 270.02C245.075 270.218 245.005 270.386 244.865 270.527C244.731 270.667 244.565 270.737 244.367 270.737ZM248.192 270.756C247.886 270.756 247.596 270.705 247.322 270.603C247.048 270.501 246.809 270.361 246.605 270.182C246.401 270.004 246.235 269.8 246.107 269.57C245.986 269.335 245.922 269.086 245.916 268.824H246.758C246.834 269.15 247 269.421 247.255 269.637C247.516 269.848 247.829 269.953 248.192 269.953C248.403 269.953 248.597 269.915 248.776 269.838C248.954 269.762 249.107 269.66 249.235 269.532C249.368 269.398 249.47 269.245 249.541 269.073C249.617 268.895 249.655 268.703 249.655 268.499C249.655 268.295 249.62 268.104 249.55 267.925C249.48 267.747 249.381 267.594 249.254 267.466C249.133 267.333 248.983 267.227 248.804 267.151C248.632 267.074 248.441 267.036 248.23 267.036C247.937 267.036 247.682 267.1 247.465 267.227C247.249 267.355 247.076 267.521 246.949 267.725L246.165 267.495L246.863 263.871H250.038V264.674H247.523L247.15 266.615C247.284 266.52 247.449 266.437 247.647 266.367C247.851 266.297 248.081 266.261 248.336 266.261C248.654 266.261 248.944 266.322 249.206 266.443C249.474 266.558 249.703 266.72 249.894 266.931C250.086 267.141 250.232 267.39 250.334 267.677C250.443 267.964 250.497 268.273 250.497 268.604C250.497 268.904 250.436 269.185 250.315 269.446C250.2 269.707 250.041 269.937 249.837 270.135C249.633 270.326 249.391 270.479 249.11 270.594C248.83 270.702 248.524 270.756 248.192 270.756ZM253.411 268.853L251.957 270.661H250.934L252.894 268.241L251.096 265.879H252.091L253.411 267.61L254.721 265.879H255.725L253.918 268.241L255.878 270.661H254.864L253.411 268.853Z" fill="#FF3B82"/>
<path d="M399.994 75.1542H396.379V74.4944L400.099 70.2099H400.817V74.3796H401.754V75.1542H400.817V77H399.994V75.1542ZM399.994 74.3796V71.4532L397.45 74.3796H399.994ZM404.653 75.1925L403.2 77H402.176L404.137 74.5804L402.339 72.2183H403.334L404.653 73.9492L405.963 72.2183H406.968L405.16 74.5804L407.121 77H406.107L404.653 75.1925Z" fill="#FF3B82"/>
<path d="M399.146 328.934C398.814 328.934 398.508 328.877 398.228 328.762C397.947 328.641 397.702 328.482 397.491 328.284C397.287 328.08 397.128 327.841 397.013 327.567C396.898 327.293 396.841 327.002 396.841 326.696C396.841 326.339 396.914 326.024 397.061 325.75C397.214 325.475 397.396 325.214 397.606 324.965L400.083 322.049H401.125L399.05 324.506C399.095 324.5 399.136 324.497 399.174 324.497C399.219 324.49 399.267 324.487 399.318 324.487C399.605 324.487 399.876 324.548 400.131 324.669C400.386 324.784 400.609 324.94 400.8 325.138C400.998 325.335 401.154 325.568 401.269 325.836C401.384 326.103 401.441 326.384 401.441 326.677C401.441 326.99 401.384 327.283 401.269 327.557C401.154 327.831 400.995 328.07 400.791 328.274C400.587 328.478 400.344 328.641 400.064 328.762C399.783 328.877 399.477 328.934 399.146 328.934ZM399.146 328.14C399.35 328.14 399.541 328.102 399.72 328.026C399.898 327.949 400.051 327.844 400.179 327.71C400.313 327.576 400.415 327.423 400.485 327.251C400.561 327.073 400.599 326.881 400.599 326.677C400.599 326.48 400.561 326.292 400.485 326.113C400.415 325.935 400.313 325.778 400.179 325.644C400.051 325.511 399.898 325.405 399.72 325.329C399.541 325.252 399.35 325.214 399.146 325.214C398.935 325.214 398.741 325.252 398.562 325.329C398.384 325.405 398.228 325.511 398.094 325.644C397.966 325.778 397.864 325.935 397.788 326.113C397.718 326.292 397.683 326.48 397.683 326.677C397.683 326.881 397.718 327.073 397.788 327.251C397.864 327.423 397.966 327.576 398.094 327.71C398.228 327.844 398.384 327.949 398.562 328.026C398.741 328.102 398.935 328.14 399.146 328.14ZM404.373 327.031L402.919 328.839H401.896L403.857 326.419L402.059 324.057H403.053L404.373 325.788L405.683 324.057H406.687L404.88 326.419L406.84 328.839H405.827L404.373 327.031Z" fill="#FF3B82"/>
<path d="M526.905 217.422L534.751 217.422C535.815 217.422 536.688 218.296 536.688 219.36L536.688 235.353C536.688 236.417 535.815 237.291 534.751 237.291L526.905 237.291" stroke="#FF3B82" stroke-width="0.569933" stroke-miterlimit="10"/>
<path d="M272.099 97.8779L264.252 97.8779C263.189 97.8779 262.315 98.7518 262.315 99.8157L262.314 215.484C262.314 216.548 263.188 217.422 264.252 217.422L272.098 217.422" stroke="#FF3B82" stroke-width="0.569933" stroke-miterlimit="10"/>
<path d="M272.099 238.143L264.252 238.143C263.189 238.143 262.315 239.017 262.315 240.081L262.314 295.18C262.314 296.244 263.188 297.118 264.252 297.118L272.098 297.118" stroke="#FF3B82" stroke-width="0.569933" stroke-miterlimit="10"/>
<path d="M481.478 94.9107L481.478 87.0647C481.478 86.0008 480.604 85.1269 479.54 85.1269L324.024 85.1267C322.96 85.1267 322.087 86.0006 322.087 87.0645L322.087 94.9105" stroke="#FF3B82" stroke-width="0.569933" stroke-miterlimit="10"/>
<path d="M520.928 304.291L520.928 312.137C520.928 313.2 520.054 314.074 518.99 314.074L284.575 314.074C283.511 314.074 282.637 313.201 282.637 312.137L282.637 304.291" stroke="#FF3B82" stroke-width="0.569933" stroke-miterlimit="10"/>
<defs>
<clipPath id="clip0_1904_761">
<rect width="239.087" height="199.92" fill="white" transform="translate(282.239 97.8779)"/>
</clipPath>
</defs>
</svg>
