<svg width="800" height="400" viewBox="0 0 800 400" fill="none" xmlns="http://www.w3.org/2000/svg">
<rect width="800" height="400" fill="white"/>
<path d="M372.408 98.3872H388.286V121.952L408.016 98.3872H426.837L405.151 123.365L427.572 156.475H408.5L394.094 134.905L388.286 141.469V156.495H372.408V98.3872Z" fill="#F5F5F5"/>
<path d="M581.525 227.614V211.736H605.089L581.525 192.006V173.185L606.502 194.871L639.613 172.449V191.522L618.043 205.927L624.607 211.736H639.632V227.614H581.544H581.525Z" fill="#F5F5F5"/>
<path d="M218.476 172.449V188.327H194.912L218.476 208.057V226.878L193.498 205.192L160.388 227.614V208.541L181.958 194.136L175.394 188.327H160.388V172.449H218.476Z" fill="#F5F5F5"/>
<path d="M372.408 243.607H388.286V267.172L408.016 243.607H426.837L405.151 268.585L427.572 301.695H408.5L394.094 280.125L388.286 286.689V301.714H372.408V243.627V243.607Z" fill="#F5F5F5"/>
<path d="M373.55 170.997H388.847L413.224 229.085H396.204L392.022 218.784H369.929L365.844 229.085H349.153L373.531 170.997H373.55ZM387.472 206.334L381.082 189.934L374.615 206.334H387.472Z" fill="#2A2063"/>
<path d="M409.468 200.196V200.041C409.468 183.351 422.325 170.242 439.674 170.242C451.369 170.242 458.901 175.16 463.974 182.189L452.028 191.444C448.755 187.359 444.999 184.725 439.5 184.725C431.484 184.725 425.83 191.522 425.83 199.867V200.022C425.83 208.619 431.484 215.318 439.5 215.318C445.483 215.318 448.988 212.53 452.434 208.367L464.381 216.887C458.979 224.341 451.698 229.821 439.016 229.821C422.654 229.821 409.468 217.293 409.468 200.196Z" fill="#2A2063"/>
<path d="M469.357 170.997H485.234V194.562L504.965 170.997H523.786L502.099 195.975L524.521 229.085H505.449L491.043 207.515L485.234 214.079V229.105H469.357V171.017V170.997Z" fill="#2A2063"/>
<path d="M519.815 200.196V200.041C519.815 183.583 533.078 170.242 550.756 170.242C568.434 170.242 581.523 183.409 581.523 199.867V200.022C581.523 216.48 568.26 229.821 550.582 229.821C532.904 229.821 519.815 216.635 519.815 200.196ZM565.317 200.196V200.041C565.317 191.773 559.334 184.571 550.582 184.571C541.83 184.571 536.099 191.619 536.099 199.867V200.022C536.099 208.29 542.082 215.493 550.756 215.493C559.43 215.493 565.317 208.464 565.317 200.196Z" fill="#2A2063"/>
<path d="M334.649 186.797V213.188C334.649 215.221 333.701 216.964 331.803 218.164C307.948 233.306 289.864 239.657 283.551 241.438C274.838 243.878 270.211 243.626 269.455 243.568C253.539 242.445 226.722 221.243 226.722 221.243C226.722 221.243 248.602 226.413 299.158 203.12C308.645 198.744 319.217 194.039 331.513 188.52C331.513 188.52 334.204 187.397 334.649 186.797Z" fill="#4E29BB"/>
<path d="M333.237 186.061C333.547 185.868 333.953 185.616 334.089 185.112C334.205 184.667 334.166 184.086 333.895 183.699C333.43 182.963 332.656 182.46 331.785 181.918C307.93 166.776 289.845 160.425 283.533 158.644C274.82 156.204 270.192 156.456 269.437 156.514C253.521 157.637 226.703 178.839 226.703 178.839C226.703 178.839 248.583 173.669 299.139 196.962C300.766 197.717 302.431 198.473 304.115 199.247L331.726 186.855C331.726 186.855 332.733 186.371 333.217 186.061H333.237Z" fill="#926FF3"/>
<path d="M252.34 200.022C252.379 194.387 253.096 188.753 254.432 183.196L254.606 182.499C244.653 180.233 237.315 179.749 232.9 179.749C229.26 179.749 227.324 180.078 226.666 180.214C225.484 180.465 224.632 181.375 224.052 182.15C220.489 186.72 218.456 193.245 218.456 200.022C218.456 206.818 220.489 213.324 224.052 217.893C224.652 218.668 225.484 219.578 226.666 219.83C227.324 219.965 229.26 220.294 232.9 220.294C237.315 220.294 244.653 219.81 254.606 217.545L254.432 216.848C253.096 211.271 252.36 205.656 252.34 200.022Z" fill="#B59CF5"/>
<path d="M581.525 156.475H218.475V243.588H581.525V156.475Z" stroke="#4E29BB" stroke-width="0.24" stroke-miterlimit="10"/>
<path d="M639.614 98.3872H160.388V301.695H639.614V98.3872Z" stroke="#4E29BB" stroke-width="0.24" stroke-miterlimit="10"/>
<path d="M639.613 98.3872H581.525V156.475H639.613V98.3872Z" fill="#F5F3FF" stroke="#4E29BB" stroke-width="0.24" stroke-miterlimit="10"/>
<path d="M639.613 243.587H581.525V301.675H639.613V243.587Z" fill="#F5F3FF" stroke="#4E29BB" stroke-width="0.24" stroke-miterlimit="10"/>
<path d="M218.476 98.3872H160.388V156.475H218.476V98.3872Z" fill="#F5F3FF" stroke="#4E29BB" stroke-width="0.24" stroke-miterlimit="10"/>
<path d="M218.476 243.587H160.388V301.675H218.476V243.587Z" fill="#F5F3FF" stroke="#4E29BB" stroke-width="0.24" stroke-miterlimit="10"/>
</svg>
