<svg width="800" height="400" viewBox="0 0 800 400" fill="none" xmlns="http://www.w3.org/2000/svg">
<rect width="800" height="400" fill="white"/>
<g clip-path="url(#clip0_1904_998)">
<path d="M374.713 288.502H389.237V310.096L407.297 288.502H424.517L404.672 311.356L425.217 341.666H407.752L394.557 321.926L389.237 327.946V341.701H374.713V288.502Z" fill="#F5F5F5"/>
<path d="M374.713 58.0308H389.237V79.6254L407.332 58.0308H424.552L404.707 80.8854L425.252 111.195H407.787L394.592 91.4552L389.272 97.4751V111.23H374.748V58.0308H374.713Z" fill="#F5F5F5"/>
<path d="M506.416 225.117V210.593H528.01L506.416 192.533V175.313L529.27 195.158L559.58 174.613V192.078L539.84 205.273L545.86 210.593H559.615V225.117H506.416Z" fill="#F5F5F5"/>
<path d="M240.42 225.117V210.593H262.014L240.42 192.533V175.313L263.274 195.158L293.584 174.613V192.078L273.844 205.273L279.864 210.593H293.619V225.117H240.42Z" fill="#F5F5F5"/>
<path d="M315.915 235.338H329.915L352.245 288.537H336.67L332.855 279.122H312.625L308.88 288.537H293.586L315.915 235.338ZM328.655 267.677L322.81 252.662L316.895 267.677H328.655Z" fill="#2A2063"/>
<path d="M348.813 262.077V261.937C348.813 246.642 360.573 234.673 376.463 234.673C387.173 234.673 394.067 239.153 398.722 245.627L387.768 254.097C384.758 250.352 381.328 247.937 376.288 247.937C368.938 247.937 363.758 254.167 363.758 261.797V261.937C363.758 269.812 368.938 275.937 376.288 275.937C381.748 275.937 384.968 273.382 388.118 269.567L399.072 277.372C394.137 284.197 387.453 289.202 375.833 289.202C360.853 289.202 348.778 277.722 348.778 262.077H348.813Z" fill="#2A2063"/>
<path d="M403.66 235.338H418.185V256.932L436.244 235.338H453.464L433.619 258.192L454.164 288.502H436.699L423.505 268.762L418.185 274.782V288.537H403.66V235.338Z" fill="#2A2063"/>
<path d="M449.859 262.077V261.937C449.859 246.887 462.004 234.673 478.174 234.673C494.343 234.673 506.348 246.747 506.348 261.797V261.937C506.348 276.987 494.203 289.202 478.034 289.202C461.864 289.202 449.859 277.127 449.859 262.077ZM491.509 262.077V261.937C491.509 254.377 486.049 247.762 478.034 247.762C470.019 247.762 464.769 254.202 464.769 261.762V261.902C464.769 269.462 470.229 276.077 478.174 276.077C486.119 276.077 491.509 269.637 491.509 262.077Z" fill="#2A2063"/>
<path d="M470.892 148.224V180.423C470.892 182.908 469.737 185.043 467.427 186.513C438.308 204.993 416.223 212.763 408.523 214.933C397.884 217.908 392.249 217.593 391.304 217.523C371.879 216.158 339.119 190.258 339.119 190.258C339.119 190.258 365.824 196.593 427.563 168.139C439.148 162.819 452.063 157.044 467.077 150.324C467.077 150.324 470.367 148.959 470.892 148.224Z" fill="#4E29BB"/>
<path d="M469.178 147.349C469.563 147.104 470.053 146.824 470.228 146.194C470.368 145.634 470.298 144.969 469.983 144.444C469.423 143.534 468.443 142.939 467.393 142.274C438.274 123.794 416.189 116.025 408.489 113.855C397.849 110.88 392.214 111.195 391.269 111.265C371.845 112.63 339.085 138.529 339.085 138.529C339.085 138.529 365.79 132.194 427.529 160.649C429.524 161.559 431.554 162.504 433.619 163.449L467.323 148.329C467.323 148.329 468.548 147.734 469.143 147.384L469.178 147.349Z" fill="#926FF3"/>
<path d="M370.408 164.394C370.443 157.534 371.318 150.639 372.963 143.849L373.173 143.009C361.028 140.244 352.068 139.649 346.678 139.649C342.233 139.649 339.888 140.034 339.083 140.209C337.648 140.524 336.598 141.644 335.898 142.554C331.559 148.119 329.074 156.099 329.074 164.394C329.074 172.689 331.559 180.634 335.898 186.234C336.633 187.179 337.648 188.299 339.083 188.579C339.888 188.754 342.233 189.139 346.678 189.139C352.068 189.139 361.028 188.544 373.173 185.779L372.963 184.939C371.318 178.149 370.443 171.254 370.408 164.394Z" fill="#B59CF5"/>
<path d="M559.65 58.0308H240.42V341.701H559.65V58.0308Z" stroke="#4E29BB" stroke-width="0.2" stroke-miterlimit="10"/>
<path d="M559.649 58.0308H506.344V111.23H559.649V58.0308Z" fill="#F5F3FF" stroke="#4E29BB" stroke-width="0.2" stroke-miterlimit="10"/>
<path d="M293.652 58.0308H240.348V111.23H293.652V58.0308Z" fill="#F5F3FF" stroke="#4E29BB" stroke-width="0.2" stroke-miterlimit="10"/>
<path d="M559.649 288.502H506.344V341.701H559.649V288.502Z" fill="#F5F3FF" stroke="#4E29BB" stroke-width="0.2" stroke-miterlimit="10"/>
<path d="M293.652 288.502H240.348V341.701H293.652V288.502Z" fill="#F5F3FF" stroke="#4E29BB" stroke-width="0.2" stroke-miterlimit="10"/>
<path d="M506.347 111.23H293.586V288.537H506.347V111.23Z" stroke="#4E29BB" stroke-width="0.2" stroke-miterlimit="10"/>
</g>
<defs>
<clipPath id="clip0_1904_998">
<rect width="320" height="284.371" fill="white" transform="translate(240 57.6804)"/>
</clipPath>
</defs>
</svg>
