<svg width="200" height="200" viewBox="0 0 200 200" fill="none" xmlns="http://www.w3.org/2000/svg">
<rect width="200" height="200" fill="#F8F8F8"/>
<g clip-path="url(#clip0_1961_691)">
<path d="M144.359 67.6807V87.7566C144.359 89.3032 143.637 90.6288 142.194 91.542C124.047 103.06 110.29 107.892 105.488 109.247C98.8602 111.102 95.34 110.911 94.7655 110.867C82.6581 110.013 62.2581 93.884 62.2581 93.884C62.2581 93.884 78.9021 97.8167 117.36 80.0974C124.578 76.7686 132.62 73.1894 141.973 68.9916C141.973 68.9916 144.02 68.1373 144.359 67.6807Z" fill="#4E29BB"/>
<path d="M143.298 67.1212C143.534 66.9739 143.843 66.7824 143.946 66.3995C144.035 66.0607 144.005 65.6188 143.799 65.3243C143.446 64.7645 142.857 64.3816 142.194 63.9692C124.047 52.4509 110.29 47.605 105.488 46.2646C98.8602 44.4087 95.34 44.6002 94.7655 44.6444C82.6581 45.4987 62.2581 61.6272 62.2581 61.6272C62.2581 61.6272 78.9021 57.6945 117.36 75.4138C118.597 75.9882 119.864 76.5627 121.146 77.1518L142.15 67.7251C142.15 67.7251 142.915 67.3569 143.284 67.1212H143.298Z" fill="#926FF3"/>
<path d="M81.7451 77.7409C81.7745 73.4546 82.3195 69.1684 83.3358 64.9411L83.4684 64.4109C75.8975 62.6876 70.3152 62.3193 66.9569 62.3193C64.1878 62.3193 62.7149 62.5697 62.2141 62.6728C61.3156 62.8643 60.6675 63.5566 60.2256 64.1458C57.5154 67.6219 55.9689 72.5856 55.9689 77.7409C55.9689 82.9108 57.5154 87.8599 60.2256 91.336C60.6822 91.9251 61.3156 92.6174 62.2141 92.8089C62.7149 92.912 64.1878 93.1624 66.9569 93.1624C70.3152 93.1624 75.8975 92.7942 83.4684 91.0708L83.3358 90.5406C82.3195 86.2986 81.7598 82.0271 81.7451 77.7409Z" fill="#B59CF5"/>
<path d="M47.8014 121.815H56.5358L70.455 154.956H60.7484L58.3623 149.079H45.754L43.4121 154.956H33.8823L47.8014 121.815ZM55.7257 141.979L52.0876 132.626L48.4053 141.979H55.7405H55.7257Z" fill="#2C2067"/>
<path d="M68.2896 138.474V138.385C68.2896 128.855 75.6247 121.388 85.5228 121.388C92.1951 121.388 96.4961 124.186 99.383 128.207L92.5634 133.48C90.6927 131.138 88.5423 129.651 85.4197 129.651C80.8389 129.651 77.6279 133.525 77.6279 138.282V138.371C77.6279 143.275 80.8536 147.105 85.4197 147.105C88.8221 147.105 90.84 145.514 92.799 143.143L99.6187 148.003C96.5403 152.245 92.3866 155.383 85.1398 155.383C75.8015 155.383 68.2896 148.239 68.2896 138.474Z" fill="#2C2067"/>
<path d="M102.462 121.815H111.52V135.263L122.774 121.815H133.511L121.139 136.073L133.938 154.956H123.053L114.834 142.642L111.52 146.383V154.956H102.462V121.815Z" fill="#2C2067"/>
<path d="M131.243 138.474V138.385C131.243 129.003 138.814 121.388 148.888 121.388C158.963 121.388 166.446 128.9 166.446 138.282V138.371C166.446 147.753 158.875 155.368 148.8 155.368C138.725 155.368 131.243 147.856 131.243 138.459V138.474ZM157.196 138.474V138.385C157.196 133.672 153.793 129.562 148.785 129.562C143.777 129.562 140.522 133.584 140.522 138.297V138.385C140.522 143.099 143.925 147.208 148.874 147.208C153.823 147.208 157.181 143.187 157.181 138.474H157.196Z" fill="#2C2067"/>
</g>
<defs>
<clipPath id="clip0_1961_691">
<rect width="133.328" height="112" fill="white" transform="translate(33.5 44)"/>
</clipPath>
</defs>
</svg>
