<svg width="200" height="200" viewBox="0 0 200 200" fill="none" xmlns="http://www.w3.org/2000/svg">
<rect width="200" height="200" fill="#171717"/>
<g clip-path="url(#clip0_1961_736)">
<path d="M144.359 67.6807V87.7566C144.359 89.3032 143.637 90.6288 142.194 91.542C124.047 103.06 110.29 107.892 105.488 109.247C98.8601 111.102 95.3398 110.911 94.7654 110.867C82.6579 110.013 62.2579 93.884 62.2579 93.884C62.2579 93.884 78.902 97.8167 117.36 80.0974C124.577 76.7686 132.62 73.1894 141.973 68.9916C141.973 68.9916 144.02 68.1373 144.359 67.6807Z" fill="white"/>
<path d="M143.298 67.1212C143.534 66.9739 143.843 66.7824 143.946 66.3995C144.035 66.0607 144.005 65.6188 143.799 65.3243C143.446 64.7645 142.856 64.3816 142.194 63.9692C124.047 52.4509 110.29 47.605 105.488 46.2646C98.8601 44.4087 95.3398 44.6002 94.7654 44.6444C82.6579 45.4987 62.2579 61.6272 62.2579 61.6272C62.2579 61.6272 78.902 57.6945 117.36 75.4138C118.597 75.9882 119.864 76.5627 121.145 77.1518L142.149 67.7251C142.149 67.7251 142.915 67.3569 143.284 67.1212H143.298Z" fill="white"/>
<path d="M81.7449 77.7409C81.7744 73.4546 82.3194 69.1684 83.3357 64.9411L83.4683 64.4109C75.8974 62.6876 70.315 62.3193 66.9568 62.3193C64.1877 62.3193 62.7147 62.5697 62.214 62.6728C61.3155 62.8643 60.6674 63.5566 60.2255 64.1458C57.5153 67.6219 55.9688 72.5856 55.9688 77.7409C55.9688 82.9108 57.5153 87.8599 60.2255 91.336C60.6821 91.9251 61.3155 92.6174 62.214 92.8089C62.7147 92.912 64.1877 93.1624 66.9568 93.1624C70.315 93.1624 75.8974 92.7942 83.4683 91.0708L83.3357 90.5406C82.3194 86.2986 81.7597 82.0271 81.7449 77.7409Z" fill="white"/>
<path d="M47.8013 121.815H56.5358L70.4549 154.956H60.7484L58.3622 149.079H45.754L43.412 154.956H33.8822L47.8013 121.815ZM55.7257 141.979L52.0876 132.626L48.4052 141.979H55.7404H55.7257Z" fill="white"/>
<path d="M68.2894 138.474V138.385C68.2894 128.855 75.6246 121.388 85.5227 121.388C92.195 121.388 96.4959 124.186 99.3829 128.207L92.5632 133.48C90.6926 131.138 88.5421 129.651 85.4195 129.651C80.8388 129.651 77.6278 133.525 77.6278 138.282V138.371C77.6278 143.275 80.8535 147.105 85.4195 147.105C88.822 147.105 90.8399 145.514 92.7989 143.143L99.6185 148.003C96.5401 152.245 92.3865 155.383 85.1397 155.383C75.8013 155.383 68.2894 148.239 68.2894 138.474Z" fill="white"/>
<path d="M102.462 121.815H111.52V135.263L122.774 121.815H133.511L121.139 136.073L133.938 154.956H123.053L114.834 142.642L111.52 146.383V154.956H102.462V121.815Z" fill="white"/>
<path d="M131.243 138.474V138.385C131.243 129.003 138.813 121.388 148.888 121.388C158.963 121.388 166.445 128.9 166.445 138.282V138.371C166.445 147.753 158.875 155.368 148.8 155.368C138.725 155.368 131.243 147.856 131.243 138.459V138.474ZM157.195 138.474V138.385C157.195 133.672 153.793 129.562 148.785 129.562C143.777 129.562 140.522 133.584 140.522 138.297V138.385C140.522 143.099 143.924 147.208 148.873 147.208C153.822 147.208 157.181 143.187 157.181 138.474H157.195Z" fill="white"/>
</g>
<defs>
<clipPath id="clip0_1961_736">
<rect width="133.328" height="112" fill="white" transform="translate(33.5 44)"/>
</clipPath>
</defs>
</svg>
