<svg width="200" height="200" viewBox="0 0 200 200" fill="none" xmlns="http://www.w3.org/2000/svg">
<rect width="200" height="200" fill="#F8F8F8"/>
<path d="M160.667 86.1636V113.716C160.667 115.843 159.679 117.67 157.702 118.927C132.789 134.74 113.894 141.389 107.307 143.246C98.2037 145.791 93.3827 145.522 92.5742 145.462C75.9553 144.294 47.9277 122.132 47.9277 122.132C47.9277 122.132 70.775 127.553 123.596 103.204C133.508 98.6522 144.557 93.7106 157.403 87.9605C157.403 87.9605 160.218 86.7925 160.667 86.1636Z" fill="#4E29BB"/>
<path d="M159.201 85.4149C159.53 85.2053 159.95 84.9657 160.099 84.4266C160.219 83.9475 160.159 83.3784 159.89 82.9292C159.411 82.1505 158.572 81.6414 157.674 81.0724C132.761 65.2595 113.866 58.6108 107.278 56.754C98.1752 54.2084 93.3542 54.4779 92.5458 54.5378C75.9269 55.7058 47.8993 77.8679 47.8993 77.8679C47.8993 77.8679 70.7466 72.4471 123.568 96.7955C125.275 97.5741 127.011 98.3827 128.778 99.1914L157.614 86.2535C157.614 86.2535 158.662 85.7444 159.171 85.4449L159.201 85.4149Z" fill="#926FF3"/>
<path d="M74.6972 99.9999C74.7271 94.13 75.4757 88.2301 76.8831 82.42L77.0628 81.7012C66.6722 79.3353 59.0066 78.8262 54.3952 78.8262C50.5923 78.8262 48.5861 79.1556 47.8973 79.3054C46.6696 79.5749 45.7713 80.5332 45.1724 81.3119C41.4594 86.0738 39.3334 92.9021 39.3334 99.9999C39.3334 107.098 41.4594 113.896 45.1724 118.688C45.8013 119.497 46.6696 120.455 47.8973 120.694C48.5861 120.844 50.5923 121.174 54.3952 121.174C59.0066 121.174 66.6722 120.665 77.0628 118.299L76.8831 117.58C75.4757 111.77 74.7271 105.87 74.6972 99.9999Z" fill="#B59CF5"/>
</svg>
