<svg width="200" height="100" viewBox="0 0 200 100" fill="none" xmlns="http://www.w3.org/2000/svg">
<g clip-path="url(#clip0_3129_11821)">
<rect width="200" height="100" fill="#EAEAFD"/>
<path d="M167.345 116.643C168.011 116.716 168.9 116.906 169.491 116.512C170.316 115.87 171.585 115.872 172.24 113.345C172.692 111.6 172.452 108.437 172.056 106.409C168.52 88.2795 164.544 72.3177 160.569 58.6143L96.7528 58.6143C99.3713 65.4701 101.994 72.731 104.606 80.4188C105.773 83.8644 108.409 91.4483 109.648 95.0112L161.731 115.587C161.731 115.587 166.726 116.554 167.345 116.643Z" fill="url(#paint0_radial_3129_11821)"/>
<path d="M171.375 115.57L137.002 148.772C129.195 156.08 122.268 159.144 111.177 156.39C59.7641 143.621 27.6651 127.719 16.7103 121.369C0.86453 112.194 -5.23039 105.106 -6.21481 103.936C-14.6711 93.816 -20.6897 76.2307 -24.85 58.9819C-24.8489 58.9819 29.2427 58.9819 29.2427 58.9819C46.4976 68.5683 68.2248 78.8767 95.4474 89.2487C115.213 96.7845 137.046 105.422 162.48 115.409C162.48 115.409 166.665 116.785 168.181 116.591L171.375 115.57Z" fill="url(#paint1_radial_3129_11821)"/>
<path d="M42.9961 66.1487C71.9531 79.0708 134.638 106.221 166.577 115.98C169.345 116.826 172.068 114.723 171.91 111.832C171.297 100.61 168.884 84.4961 163.075 64.5254" stroke="url(#paint2_linear_3129_11821)" stroke-width="1.6498"/>
<path d="M68.5744 35L65.7664 28.214L62.9584 35H60.5104L57.4324 22.22H60.2044L62.1484 30.716L65.7664 22.004L69.3844 30.716L71.3284 22.22H74.1004L71.0224 35H68.5744ZM81.5542 35.216C79.7302 35.216 78.1702 34.574 76.8742 33.29C75.5902 31.994 74.9482 30.434 74.9482 28.61C74.9482 26.786 75.5902 25.232 76.8742 23.948C78.1702 22.652 79.7302 22.004 81.5542 22.004C82.8262 22.004 83.9902 22.316 85.0462 22.94C86.1022 23.552 86.9062 24.374 87.4582 25.406L85.1902 26.666C84.3502 25.238 83.1382 24.524 81.5542 24.524C80.4502 24.524 79.5082 24.926 78.7282 25.73C77.9602 26.522 77.5762 27.482 77.5762 28.61C77.5762 29.738 77.9602 30.704 78.7282 31.508C79.5082 32.3 80.4502 32.696 81.5542 32.696C83.1382 32.696 84.3502 31.982 85.1902 30.554L87.4582 31.814C86.9062 32.858 86.1082 33.686 85.0642 34.298C84.0202 34.91 82.8502 35.216 81.5542 35.216ZM87.5893 35L93.0973 22.22H95.4193L100.945 35H98.2093L96.9673 32.084H91.5133L90.2893 35H87.5893ZM94.2493 25.658L92.4853 29.798H95.9953L94.2493 25.658ZM108.017 35.216C106.037 35.216 104.387 34.586 103.067 33.326C101.747 32.054 101.087 30.482 101.087 28.61C101.087 26.762 101.717 25.202 102.977 23.93C104.249 22.646 105.857 22.004 107.801 22.004C109.913 22.004 111.629 22.7 112.949 24.092L111.131 25.892C110.243 24.98 109.133 24.524 107.801 24.524C106.601 24.524 105.617 24.92 104.849 25.712C104.093 26.504 103.715 27.47 103.715 28.61C103.715 29.786 104.105 30.764 104.885 31.544C105.665 32.312 106.703 32.696 107.999 32.696C109.199 32.696 110.093 32.468 110.681 32.012V29.798H107.927V27.35H113.219V33.344C112.655 33.944 111.905 34.406 110.969 34.73C110.045 35.054 109.061 35.216 108.017 35.216ZM127.678 32.57V35H118.966V34.154C118.966 33.806 119.002 33.47 119.074 33.146C119.146 32.822 119.23 32.54 119.326 32.3C119.434 32.048 119.59 31.79 119.794 31.526C119.998 31.262 120.172 31.046 120.316 30.878C120.46 30.71 120.676 30.506 120.964 30.266C121.264 30.026 121.492 29.852 121.648 29.744C121.804 29.624 122.05 29.45 122.386 29.222C122.722 28.982 122.956 28.814 123.088 28.718C124.432 27.782 125.104 26.906 125.104 26.09C125.104 25.61 124.954 25.214 124.654 24.902C124.354 24.59 123.94 24.434 123.412 24.434C122.848 24.434 122.38 24.608 122.008 24.956C121.648 25.292 121.474 25.718 121.486 26.234H119.002C119.002 24.986 119.422 23.972 120.262 23.192C121.114 22.4 122.182 22.004 123.466 22.004C124.606 22.004 125.572 22.352 126.364 23.048C127.168 23.744 127.57 24.71 127.57 25.946C127.57 26.966 127.348 27.806 126.904 28.466C126.472 29.114 125.794 29.774 124.87 30.446C124.786 30.506 124.57 30.656 124.222 30.896C123.874 31.124 123.61 31.304 123.43 31.436C123.25 31.568 123.046 31.742 122.818 31.958C122.602 32.174 122.458 32.378 122.386 32.57H127.678ZM131.048 35.144C130.544 35.144 130.118 34.97 129.77 34.622C129.422 34.274 129.248 33.848 129.248 33.344C129.248 32.84 129.422 32.414 129.77 32.066C130.118 31.718 130.544 31.544 131.048 31.544C131.54 31.544 131.96 31.724 132.308 32.084C132.668 32.432 132.848 32.852 132.848 33.344C132.848 33.836 132.668 34.262 132.308 34.622C131.96 34.97 131.54 35.144 131.048 35.144ZM143.023 32.57V35H134.311V34.154C134.311 33.806 134.347 33.47 134.419 33.146C134.491 32.822 134.575 32.54 134.671 32.3C134.779 32.048 134.935 31.79 135.139 31.526C135.343 31.262 135.517 31.046 135.661 30.878C135.805 30.71 136.021 30.506 136.309 30.266C136.609 30.026 136.837 29.852 136.993 29.744C137.149 29.624 137.395 29.45 137.731 29.222C138.067 28.982 138.301 28.814 138.433 28.718C139.777 27.782 140.449 26.906 140.449 26.09C140.449 25.61 140.299 25.214 139.999 24.902C139.699 24.59 139.285 24.434 138.757 24.434C138.193 24.434 137.725 24.608 137.353 24.956C136.993 25.292 136.819 25.718 136.831 26.234H134.347C134.347 24.986 134.767 23.972 135.607 23.192C136.459 22.4 137.527 22.004 138.811 22.004C139.951 22.004 140.917 22.352 141.709 23.048C142.513 23.744 142.915 24.71 142.915 25.946C142.915 26.966 142.693 27.806 142.249 28.466C141.817 29.114 141.139 29.774 140.215 30.446C140.131 30.506 139.915 30.656 139.567 30.896C139.219 31.124 138.955 31.304 138.775 31.436C138.595 31.568 138.391 31.742 138.163 31.958C137.947 32.174 137.803 32.378 137.731 32.57H143.023Z" fill="black"/>
<rect x="34.4236" y="43.4236" width="132.153" height="39.1528" rx="11.5764" fill="#FAFAFA" stroke="white" stroke-width="0.847222"/>
<g clip-path="url(#clip1_3129_11821)">
<path d="M59.0007 62.3337V59.0003C59.0007 58.6467 58.8602 58.3076 58.6101 58.0575C58.3601 57.8075 58.0209 57.667 57.6673 57.667C57.3137 57.667 56.9746 57.8075 56.7245 58.0575C56.4745 58.3076 56.334 58.6467 56.334 59.0003" stroke="#6841E6" stroke-linecap="round" stroke-linejoin="round"/>
<path d="M56.3327 61.6663V57.6663C56.3327 57.3127 56.1922 56.9736 55.9422 56.7235C55.6921 56.4735 55.353 56.333 54.9993 56.333C54.6457 56.333 54.3066 56.4735 54.0565 56.7235C53.8065 56.9736 53.666 57.3127 53.666 57.6663V58.9997" stroke="#6841E6" stroke-linecap="round" stroke-linejoin="round"/>
<path d="M53.6667 62.0003V59.0003C53.6667 58.6467 53.5262 58.3076 53.2761 58.0575C53.0261 57.8075 52.687 57.667 52.3333 57.667C51.9797 57.667 51.6406 57.8075 51.3905 58.0575C51.1405 58.3076 51 58.6467 51 59.0003V64.3337" stroke="#6841E6" stroke-linecap="round" stroke-linejoin="round"/>
<path d="M59.0007 60.3333C59.0007 59.9797 59.1412 59.6406 59.3912 59.3905C59.6413 59.1405 59.9804 59 60.3341 59C60.6877 59 61.0268 59.1405 61.2769 59.3905C61.5269 59.6406 61.6674 59.9797 61.6674 60.3333V64.3333C61.6674 65.7478 61.1055 67.1044 60.1053 68.1046C59.1051 69.1048 57.7485 69.6667 56.3341 69.6667H55.0007C53.1341 69.6667 52.0007 69.0933 51.0074 68.1067L48.6074 65.7067C48.378 65.4526 48.2551 65.1201 48.2641 64.778C48.2732 64.4358 48.4134 64.1102 48.6559 63.8686C48.8983 63.627 49.2244 63.4879 49.5666 63.4801C49.9087 63.4723 50.2408 63.5964 50.4941 63.8267L51.6674 65" stroke="#6841E6" stroke-linecap="round" stroke-linejoin="round"/>
</g>
<rect x="78" y="57" width="8" height="4" rx="2" stroke="#6841E6" stroke-linecap="round" stroke-linejoin="round"/>
<rect width="9" height="4" rx="2" transform="matrix(-1 0 0 1 93 65)" stroke="#6841E6" stroke-linecap="round" stroke-linejoin="round"/>
<rect x="89" y="57" width="4" height="4" rx="2" stroke="#6841E6" stroke-linecap="round" stroke-linejoin="round"/>
<rect width="4" height="4" rx="2" transform="matrix(-1 0 0 1 82 65)" stroke="#6841E6" stroke-linecap="round" stroke-linejoin="round"/>
<path d="M117.889 59.4446C117.889 57.8491 116.596 56.5557 115 56.5557C113.405 56.5557 112.111 57.8491 112.111 59.4446V62.1112C112.111 63.7067 113.405 65.0001 115 65.0001C116.596 65.0001 117.889 63.7067 117.889 62.1112V59.4446Z" stroke="#6841E6" stroke-linecap="round" stroke-linejoin="round"/>
<path d="M120.556 62.1113C120.556 65.1798 118.069 67.6669 115.001 67.6669C111.932 67.6669 109.445 65.1798 109.445 62.1113" stroke="#6841E6" stroke-linecap="round" stroke-linejoin="round"/>
<path d="M115 67.667V69.4448" stroke="#6841E6" stroke-linecap="round" stroke-linejoin="round"/>
<path d="M148.778 65.445V64.5561C148.778 63.5739 147.983 62.7783 147 62.7783H145H143C142.018 62.7783 141.223 63.5739 141.223 64.5561V65.445" stroke="#6841E6" stroke-linecap="round" stroke-linejoin="round"/>
<path d="M145 60.5557V62.7779" stroke="#6841E6" stroke-linecap="round" stroke-linejoin="round"/>
<path d="M146.111 56.5557H143.889C143.398 56.5557 143 56.9536 143 57.4446V59.6668C143 60.1577 143.398 60.5557 143.889 60.5557H146.111C146.602 60.5557 147 60.1577 147 59.6668V57.4446C147 56.9536 146.602 56.5557 146.111 56.5557Z" stroke="#6841E6" stroke-linecap="round" stroke-linejoin="round"/>
<path d="M142.334 65.4443H140.112C139.621 65.4443 139.223 65.8423 139.223 66.3332V68.5554C139.223 69.0464 139.621 69.4443 140.112 69.4443H142.334C142.825 69.4443 143.223 69.0464 143.223 68.5554V66.3332C143.223 65.8423 142.825 65.4443 142.334 65.4443Z" stroke="#6841E6" stroke-linecap="round" stroke-linejoin="round"/>
<path d="M149.888 65.4443H147.666C147.175 65.4443 146.777 65.8423 146.777 66.3332V68.5554C146.777 69.0464 147.175 69.4443 147.666 69.4443H149.888C150.379 69.4443 150.777 69.0464 150.777 68.5554V66.3332C150.777 65.8423 150.379 65.4443 149.888 65.4443Z" stroke="#6841E6" stroke-linecap="round" stroke-linejoin="round"/>
</g>
<defs>
<radialGradient id="paint0_radial_3129_11821" cx="0" cy="0" r="1" gradientUnits="userSpaceOnUse" gradientTransform="translate(165.21 117.986) rotate(-90) scale(60.2963 221.117)">
<stop stop-color="#7851DF"/>
<stop offset="0.413462" stop-color="#A886FF"/>
<stop offset="0.909524" stop-color="#D3BCFF" stop-opacity="0"/>
</radialGradient>
<radialGradient id="paint1_radial_3129_11821" cx="0" cy="0" r="1" gradientUnits="userSpaceOnUse" gradientTransform="translate(109.507 163.064) rotate(-114.41) scale(119.502 177.129)">
<stop stop-color="#F1BAB2"/>
<stop offset="0.471154" stop-color="#C9B4FF"/>
<stop offset="1" stop-color="#DDCCFF" stop-opacity="0"/>
</radialGradient>
<linearGradient id="paint2_linear_3129_11821" x1="107.455" y1="64.8285" x2="115.058" y2="115.88" gradientUnits="userSpaceOnUse">
<stop stop-color="white" stop-opacity="0"/>
<stop offset="0.4375" stop-color="#FED5FF"/>
<stop offset="1" stop-color="#FED5FF"/>
</linearGradient>
<clipPath id="clip0_3129_11821">
<rect width="200" height="100" fill="white"/>
</clipPath>
<clipPath id="clip1_3129_11821">
<rect width="16" height="16" fill="white" transform="translate(47 55)"/>
</clipPath>
</defs>
</svg>
