<svg width="200" height="100" viewBox="0 0 200 100" fill="none" xmlns="http://www.w3.org/2000/svg">
<g clip-path="url(#clip0_3129_11674)">
<rect width="200" height="100" fill="#EAEAFD"/>
<path d="M-35.5696 -3.35706C-36.2353 -3.28373 -37.125 -3.09396 -37.7159 -3.48794C-38.5408 -4.12953 -39.8093 -4.12764 -40.4643 -6.65502C-40.9165 -8.39993 -40.6768 -11.5629 -40.281 -13.5912C-36.7448 -31.7205 -32.7685 -47.6823 -28.7934 -61.3857L35.0226 -61.3857C32.4041 -54.5299 29.7812 -47.269 27.1689 -39.5812C26.0019 -36.1356 23.3665 -28.5517 22.1273 -24.9888L-29.9552 -4.41301C-29.9552 -4.41301 -34.9505 -3.44572 -35.5696 -3.35706Z" fill="url(#paint0_radial_3129_11674)"/>
<path d="M-39.6011 -4.42999L-5.22811 28.7721C2.57826 36.0801 9.50586 39.1441 20.5963 36.3896C72.0093 23.6205 104.108 7.71931 115.063 1.36943C130.909 -7.80592 137.004 -14.8937 137.988 -16.0637C146.445 -26.184 152.463 -43.7693 156.623 -61.0181C156.622 -61.0181 102.531 -61.0181 102.531 -61.0181C85.2759 -51.4317 63.5487 -41.1233 36.3261 -30.7513C16.5604 -23.2155 -5.2729 -14.5775 -30.7063 -4.59071C-30.7063 -4.59071 -34.8917 -3.21476 -36.4078 -3.40921L-39.6011 -4.42999Z" fill="url(#paint1_radial_3129_11674)"/>
<g filter="url(#filter0_d_3129_11674)">
<mask id="path-3-inside-1_3129_11674" fill="white">
<path d="M19 27C19 18.1634 26.1634 11 35 11H153C161.837 11 169 18.1634 169 27V100H19V27Z"/>
</mask>
<path d="M19 27C19 18.1634 26.1634 11 35 11H153C161.837 11 169 18.1634 169 27V100H19V27Z" fill="url(#paint2_linear_3129_11674)"/>
<path d="M19 27C19 17.6112 26.6112 10 36 10H153C162.389 10 170 17.6112 170 27H168C168 18.7157 161.284 12 153 12H35C26.1634 12 19 18.7157 19 27ZM19 27M169 100H19H169M169 100M19 100V11V100M153 10C162.389 10 170 17.6112 170 27V100H168V27C168 18.7157 161.284 12 153 12V10Z" fill="white" mask="url(#path-3-inside-1_3129_11674)"/>
</g>
<rect x="34" y="30" width="16" height="16" rx="3" fill="#5427C1"/>
<rect x="52" y="30" width="16" height="16" rx="3" fill="#986DFA"/>
<rect x="70" y="30" width="16" height="16" rx="3" fill="#B99AFA"/>
<path d="M34.0114 65.5L37.5086 57.3857H38.9829L42.4914 65.5H40.7543L39.9657 63.6486H36.5029L35.7257 65.5H34.0114ZM38.24 59.5686L37.12 62.1971H39.3486L38.24 59.5686ZM45.4113 65.6257C44.6571 65.6257 44.0209 65.3324 43.5028 64.7457C42.9847 64.159 42.7256 63.4581 42.7256 62.6429C42.7256 61.8276 42.9847 61.1267 43.5028 60.54C44.0209 59.9533 44.6571 59.66 45.4113 59.66C45.7771 59.66 46.1047 59.7362 46.3942 59.8886C46.6837 60.041 46.9047 60.22 47.0571 60.4257V59.7857H48.6228V65.5H47.0571V64.86C46.9047 65.0657 46.6837 65.2448 46.3942 65.3971C46.1047 65.5495 45.7771 65.6257 45.4113 65.6257ZM44.6913 63.7629C44.958 64.0524 45.3085 64.1971 45.7428 64.1971C46.1771 64.1971 46.5237 64.0524 46.7828 63.7629C47.0494 63.4733 47.1828 63.1 47.1828 62.6429C47.1828 62.1857 47.0494 61.8124 46.7828 61.5229C46.5237 61.2333 46.1771 61.0886 45.7428 61.0886C45.3085 61.0886 44.958 61.2333 44.6913 61.5229C44.4323 61.8124 44.3028 62.1857 44.3028 62.6429C44.3028 63.1 44.4323 63.4733 44.6913 63.7629ZM50.3849 57.3857H53.1849C53.5506 57.3857 53.8821 57.4467 54.1792 57.5686C54.4763 57.6829 54.7278 57.8429 54.9335 58.0486C55.1468 58.2543 55.3106 58.4943 55.4249 58.7686C55.5468 59.0352 55.6078 59.321 55.6078 59.6257C55.6078 59.9914 55.5354 60.3038 55.3906 60.5629C55.2535 60.8143 55.0744 61.0238 54.8535 61.1914C55.2268 61.3438 55.5354 61.58 55.7792 61.9C56.0306 62.2124 56.1563 62.62 56.1563 63.1229C56.1563 63.4581 56.0916 63.7705 55.9621 64.06C55.8325 64.3495 55.6535 64.601 55.4249 64.8143C55.1963 65.0276 54.9221 65.1952 54.6021 65.3171C54.2821 65.439 53.9278 65.5 53.5392 65.5H50.3849V57.3857ZM53.5049 64.2771C53.9392 64.2771 54.2706 64.1705 54.4992 63.9571C54.7354 63.7362 54.8535 63.4543 54.8535 63.1114C54.8535 62.7762 54.7354 62.4981 54.4992 62.2771C54.2706 62.0562 53.9392 61.9457 53.5049 61.9457H51.7221V64.2771H53.5049ZM53.1163 60.8029C53.4821 60.8029 53.7678 60.7 53.9735 60.4943C54.1868 60.281 54.2935 60.0181 54.2935 59.7057C54.2935 59.4086 54.1868 59.1533 53.9735 58.94C53.7678 58.719 53.4821 58.6086 53.1163 58.6086H51.7221V60.8029H53.1163ZM60.5098 65.6143C60.0984 65.6143 59.7289 65.5267 59.4012 65.3514C59.0736 65.1686 58.8298 64.9629 58.6698 64.7343V65.5H57.4127V56.9286H58.6698V60.5514C58.8298 60.3229 59.0736 60.121 59.4012 59.9457C59.7289 59.7629 60.0984 59.6714 60.5098 59.6714C60.8984 59.6714 61.2603 59.7514 61.5955 59.9114C61.9384 60.0638 62.2317 60.2771 62.4755 60.5514C62.7193 60.8181 62.9098 61.1305 63.047 61.4886C63.1917 61.8467 63.2641 62.2314 63.2641 62.6429C63.2641 63.0543 63.1917 63.439 63.047 63.7971C62.9098 64.1552 62.7193 64.4714 62.4755 64.7457C62.2317 65.0124 61.9384 65.2257 61.5955 65.3857C61.2603 65.5381 60.8984 65.6143 60.5098 65.6143ZM60.2812 64.4714C60.5327 64.4714 60.7612 64.4257 60.967 64.3343C61.1803 64.2352 61.3593 64.1057 61.5041 63.9457C61.6565 63.7781 61.7746 63.5838 61.8584 63.3629C61.9422 63.1419 61.9841 62.9019 61.9841 62.6429C61.9841 62.3838 61.9422 62.1438 61.8584 61.9229C61.7746 61.7019 61.6565 61.5114 61.5041 61.3514C61.3593 61.1838 61.1803 61.0543 60.967 60.9629C60.7612 60.8638 60.5327 60.8143 60.2812 60.8143C60.0298 60.8143 59.7974 60.8638 59.5841 60.9629C59.3708 61.0543 59.1879 61.1838 59.0355 61.3514C58.8908 61.5114 58.7765 61.7019 58.6927 61.9229C58.6089 62.1438 58.567 62.3838 58.567 62.6429C58.567 62.9019 58.6089 63.1419 58.6927 63.3629C58.7765 63.5838 58.8908 63.7781 59.0355 63.9457C59.1879 64.1057 59.3708 64.2352 59.5841 64.3343C59.7974 64.4257 60.0298 64.4714 60.2812 64.4714ZM68.4072 65.6371C67.8206 65.6371 67.272 65.5305 66.7615 65.3171C66.2587 65.0962 65.8168 64.799 65.4358 64.4257C65.0549 64.0448 64.7539 63.599 64.5329 63.0886C64.3196 62.5781 64.2129 62.0295 64.2129 61.4429C64.2129 60.8562 64.3196 60.3076 64.5329 59.7971C64.7539 59.2867 65.0549 58.8448 65.4358 58.4714C65.8168 58.0905 66.2587 57.7933 66.7615 57.58C67.272 57.359 67.8206 57.2486 68.4072 57.2486C69.1844 57.2486 69.8853 57.4276 70.5101 57.7857C71.1349 58.1362 71.6301 58.6124 71.9958 59.2143L71.1044 59.7514C70.8225 59.2943 70.4491 58.9324 69.9844 58.6657C69.5272 58.3914 69.0015 58.2543 68.4072 58.2543C67.9653 58.2543 67.5539 58.3381 67.1729 58.5057C66.792 58.6657 66.4606 58.8905 66.1787 59.18C65.9044 59.4695 65.6872 59.8086 65.5272 60.1971C65.3672 60.5857 65.2872 61.001 65.2872 61.4429C65.2872 61.8924 65.3672 62.3114 65.5272 62.7C65.6872 63.081 65.9044 63.4162 66.1787 63.7057C66.4606 63.9952 66.792 64.2238 67.1729 64.3914C67.5539 64.5514 67.9653 64.6314 68.4072 64.6314C69.0015 64.6314 69.5272 64.4981 69.9844 64.2314C70.4491 63.9571 70.8225 63.5914 71.1044 63.1343L71.9958 63.6714C71.6301 64.2733 71.1349 64.7533 70.5101 65.1114C69.8853 65.4619 69.1844 65.6371 68.4072 65.6371ZM75.8002 65.6143C75.3659 65.6143 74.9659 65.5381 74.6002 65.3857C74.2345 65.2333 73.9183 65.0238 73.6516 64.7571C73.3849 64.4829 73.1754 64.1667 73.023 63.8086C72.8783 63.4429 72.8059 63.0543 72.8059 62.6429C72.8059 62.2314 72.8783 61.8467 73.023 61.4886C73.1754 61.1229 73.3849 60.8067 73.6516 60.54C73.9183 60.2657 74.2345 60.0524 74.6002 59.9C74.9659 59.7476 75.3659 59.6714 75.8002 59.6714C76.3945 59.6714 76.9202 59.8124 77.3773 60.0943C77.8345 60.3762 78.1887 60.7457 78.4402 61.2029L77.583 61.6829C77.423 61.3552 77.1868 61.0924 76.8745 60.8943C76.5697 60.6886 76.2116 60.5857 75.8002 60.5857C75.503 60.5857 75.2326 60.639 74.9887 60.7457C74.7449 60.8524 74.5316 61.001 74.3487 61.1914C74.1735 61.3743 74.0364 61.5914 73.9373 61.8429C73.8459 62.0943 73.8002 62.361 73.8002 62.6429C73.8002 62.9324 73.8459 63.2029 73.9373 63.4543C74.0364 63.6981 74.1735 63.9152 74.3487 64.1057C74.5316 64.2886 74.7449 64.4333 74.9887 64.54C75.2326 64.6467 75.503 64.7 75.8002 64.7C76.2116 64.7 76.5697 64.601 76.8745 64.4029C77.1868 64.1971 77.423 63.9305 77.583 63.6029L78.4402 64.0829C78.1887 64.54 77.8345 64.9095 77.3773 65.1914C76.9202 65.4733 76.3945 65.6143 75.8002 65.6143Z" fill="black"/>
<path d="M35.6571 73.8571H34.0914L34.8914 72.8857H36.64V81H35.6571V73.8571ZM44.2194 81H38.9622V80.6114C38.9622 80.1771 39.046 79.7962 39.2137 79.4686C39.3889 79.141 39.606 78.8476 39.8651 78.5886C40.1318 78.3219 40.4251 78.0781 40.7451 77.8571C41.0727 77.6286 41.3851 77.4038 41.6822 77.1829C41.9184 77.0076 42.1241 76.8476 42.2994 76.7029C42.4822 76.5505 42.6346 76.3981 42.7565 76.2457C42.8784 76.0857 42.9699 75.9181 43.0308 75.7429C43.0918 75.56 43.1222 75.3505 43.1222 75.1143C43.1222 74.6876 42.9851 74.3486 42.7108 74.0971C42.4365 73.8381 42.0784 73.7086 41.6365 73.7086C41.4156 73.7086 41.2022 73.7429 40.9965 73.8114C40.7984 73.88 40.6194 73.9829 40.4594 74.12C40.307 74.2495 40.1851 74.4171 40.0937 74.6229C40.0022 74.821 39.9565 75.0495 39.9565 75.3086H38.9508C38.9508 74.92 39.0194 74.5695 39.1565 74.2571C39.2937 73.9371 39.4803 73.6667 39.7165 73.4457C39.9603 73.2248 40.246 73.0533 40.5737 72.9314C40.9013 72.8095 41.2518 72.7486 41.6251 72.7486C41.9603 72.7486 42.2803 72.7981 42.5851 72.8971C42.8899 72.9962 43.1565 73.1448 43.3851 73.3429C43.6137 73.541 43.7927 73.7886 43.9222 74.0857C44.0594 74.3829 44.1279 74.7295 44.1279 75.1257C44.1279 75.4229 44.0899 75.6933 44.0137 75.9371C43.9451 76.181 43.8346 76.4133 43.6822 76.6343C43.5375 76.8476 43.3432 77.0648 43.0994 77.2857C42.8632 77.499 42.5813 77.7238 42.2537 77.96C42.0175 78.1352 41.7851 78.299 41.5565 78.4514C41.3279 78.5962 41.1184 78.7486 40.9279 78.9086C40.7451 79.0686 40.5851 79.24 40.4479 79.4229C40.3108 79.6057 40.2194 79.8152 40.1737 80.0514H44.2194V81ZM48.855 81.1143C48.4512 81.1143 48.074 81.0495 47.7236 80.92C47.3731 80.7905 47.0683 80.6114 46.8093 80.3829C46.5502 80.1543 46.3445 79.8838 46.1921 79.5714C46.0398 79.2514 45.9636 78.9048 45.9636 78.5314H46.9579C46.9731 78.7752 47.0302 79 47.1293 79.2057C47.236 79.4038 47.3731 79.5752 47.5407 79.72C47.716 79.8571 47.914 79.9638 48.135 80.04C48.3636 80.1162 48.6036 80.1543 48.855 80.1543C49.0836 80.1543 49.2969 80.1238 49.495 80.0629C49.6931 79.9943 49.8645 79.899 50.0093 79.7771C50.1617 79.6552 50.2798 79.5029 50.3636 79.32C50.455 79.1371 50.5007 78.9276 50.5007 78.6914C50.5007 78.1886 50.3369 77.819 50.0093 77.5829C49.6817 77.3467 49.255 77.2286 48.7293 77.2286H48.1236V76.3257H48.775C49.2017 76.3257 49.556 76.2038 49.8379 75.96C50.1198 75.7162 50.2645 75.4 50.2721 75.0114C50.2721 74.821 50.234 74.6457 50.1579 74.4857C50.0817 74.3257 49.9788 74.1886 49.8493 74.0743C49.7198 73.96 49.5636 73.8724 49.3807 73.8114C49.2055 73.7429 49.015 73.7086 48.8093 73.7086C48.5807 73.7086 48.3636 73.7429 48.1579 73.8114C47.9521 73.88 47.7693 73.9829 47.6093 74.12C47.4569 74.2495 47.335 74.4133 47.2436 74.6114C47.1521 74.8095 47.1064 75.0419 47.1064 75.3086H46.1007C46.1007 74.9124 46.1693 74.5581 46.3064 74.2457C46.4512 73.9257 46.6455 73.6552 46.8893 73.4343C47.1407 73.2133 47.4302 73.0457 47.7579 72.9314C48.0855 72.8095 48.436 72.7486 48.8093 72.7486C49.1521 72.7486 49.4721 72.8019 49.7693 72.9086C50.074 73.0076 50.3369 73.1562 50.5579 73.3543C50.7864 73.5448 50.9617 73.7771 51.0836 74.0514C51.2131 74.3257 51.2779 74.6343 51.2779 74.9771C51.2702 75.3733 51.1636 75.7276 50.9579 76.04C50.7521 76.3524 50.4931 76.5886 50.1807 76.7486C50.5921 76.9162 50.916 77.1714 51.1521 77.5143C51.3883 77.8571 51.5064 78.261 51.5064 78.7257C51.5064 79.0838 51.4417 79.4114 51.3121 79.7086C51.1826 79.9981 50.9998 80.2495 50.7636 80.4629C50.5274 80.6686 50.2455 80.8286 49.9179 80.9429C49.5979 81.0571 49.2436 81.1143 48.855 81.1143ZM57.2902 78.7943H52.9702V78.0057L57.4159 72.8857H58.273V77.8686H59.393V78.7943H58.273V81H57.2902V78.7943ZM57.2902 77.8686V74.3714L54.2502 77.8686H57.2902ZM63.6466 81.1143C63.2809 81.1143 62.9342 81.0533 62.6066 80.9314C62.279 80.8095 61.9933 80.6419 61.7495 80.4286C61.5057 80.2152 61.3076 79.9714 61.1552 79.6971C61.0104 79.4152 60.9342 79.1181 60.9266 78.8057H61.9323C62.0237 79.1943 62.2218 79.5181 62.5266 79.7771C62.839 80.0286 63.2123 80.1543 63.6466 80.1543C63.898 80.1543 64.1304 80.1086 64.3437 80.0171C64.5571 79.9257 64.7399 79.8038 64.8923 79.6514C65.0523 79.4914 65.1742 79.3086 65.258 79.1029C65.3495 78.8895 65.3952 78.661 65.3952 78.4171C65.3952 78.1733 65.3533 77.9448 65.2695 77.7314C65.1857 77.5181 65.0676 77.3352 64.9152 77.1829C64.7704 77.0229 64.5914 76.8971 64.378 76.8057C64.1723 76.7143 63.9437 76.6686 63.6923 76.6686C63.3418 76.6686 63.0371 76.7448 62.778 76.8971C62.519 77.0495 62.3133 77.2476 62.1609 77.4914L61.2237 77.2171L62.058 72.8857H65.8523V73.8457H62.8466L62.4009 76.1657C62.5609 76.0514 62.759 75.9524 62.9952 75.8686C63.239 75.7848 63.5133 75.7429 63.818 75.7429C64.199 75.7429 64.5457 75.8152 64.858 75.96C65.178 76.0971 65.4523 76.2914 65.6809 76.5429C65.9095 76.7943 66.0847 77.0914 66.2066 77.4343C66.3361 77.7771 66.4009 78.1467 66.4009 78.5429C66.4009 78.901 66.3285 79.2362 66.1837 79.5486C66.0466 79.861 65.8561 80.1352 65.6123 80.3714C65.3685 80.6 65.079 80.7829 64.7437 80.92C64.4085 81.0495 64.0428 81.1143 63.6466 81.1143Z" fill="black"/>
<rect x="98" y="26" width="56" height="56" rx="3" fill="white" fill-opacity="0.6"/>
<g clip-path="url(#clip1_3129_11674)">
<path d="M107.334 45.9997C107.334 44.9727 107.334 44.4592 107.565 44.082C107.694 43.8709 107.872 43.6935 108.083 43.5641C108.46 43.333 108.974 43.333 110.001 43.333C111.028 43.333 111.541 43.333 111.918 43.5641C112.129 43.6935 112.307 43.8709 112.436 44.082C112.667 44.4592 112.667 44.9727 112.667 45.9997C112.667 47.0266 112.667 47.5401 112.436 47.9173C112.307 48.1284 112.129 48.3059 111.918 48.4352C111.541 48.6663 111.028 48.6663 110.001 48.6663C108.974 48.6663 108.46 48.6663 108.083 48.4352C107.872 48.3059 107.694 48.1284 107.565 47.9173C107.334 47.5401 107.334 47.0266 107.334 45.9997Z" stroke="#141414"/>
<path d="M115.334 45.9997C115.334 44.9727 115.334 44.4592 115.565 44.082C115.694 43.8709 115.872 43.6935 116.083 43.5641C116.46 43.333 116.974 43.333 118.001 43.333C119.028 43.333 119.541 43.333 119.918 43.5641C120.129 43.6935 120.307 43.8709 120.436 44.082C120.667 44.4592 120.667 44.9727 120.667 45.9997C120.667 47.0266 120.667 47.5401 120.436 47.9173C120.307 48.1284 120.129 48.3059 119.918 48.4352C119.541 48.6663 119.028 48.6663 118.001 48.6663C116.974 48.6663 116.46 48.6663 116.083 48.4352C115.872 48.3059 115.694 48.1284 115.565 47.9173C115.334 47.5401 115.334 47.0266 115.334 45.9997Z" stroke="#141414"/>
<path d="M107.334 37.9997C107.334 36.9727 107.334 36.4592 107.565 36.082C107.694 35.871 107.872 35.6935 108.083 35.5642C108.46 35.333 108.974 35.333 110.001 35.333C111.028 35.333 111.541 35.333 111.918 35.5642C112.129 35.6935 112.307 35.871 112.436 36.082C112.667 36.4592 112.667 36.9727 112.667 37.9997C112.667 39.0266 112.667 39.5401 112.436 39.9173C112.307 40.1284 112.129 40.3058 111.918 40.4352C111.541 40.6663 111.028 40.6663 110.001 40.6663C108.974 40.6663 108.46 40.6663 108.083 40.4352C107.872 40.3058 107.694 40.1284 107.565 39.9173C107.334 39.5401 107.334 39.0266 107.334 37.9997Z" stroke="#141414"/>
<path d="M115.334 37.9997C115.334 36.9727 115.334 36.4592 115.565 36.082C115.694 35.871 115.872 35.6935 116.083 35.5642C116.46 35.333 116.974 35.333 118.001 35.333C119.028 35.333 119.541 35.333 119.918 35.5642C120.129 35.6935 120.307 35.871 120.436 36.082C120.667 36.4592 120.667 36.9727 120.667 37.9997C120.667 39.0266 120.667 39.5401 120.436 39.9173C120.307 40.1284 120.129 40.3058 119.918 40.4352C119.541 40.6663 119.028 40.6663 118.001 40.6663C116.974 40.6663 116.46 40.6663 116.083 40.4352C115.872 40.3058 115.694 40.1284 115.565 39.9173C115.334 39.5401 115.334 39.0266 115.334 37.9997Z" stroke="#141414"/>
</g>
<path d="M138.327 35.542L142.993 37.0353C143.361 37.1535 143.611 37.4958 143.611 37.8815V43.0104C143.611 45.7037 139.448 47.8975 138.329 48.2593C138.149 48.318 137.962 48.318 137.782 48.2593C136.664 47.8975 132.5 45.7037 132.5 43.0104V37.8816C132.5 37.4949 132.75 37.1527 133.118 37.0354L137.784 35.542C137.96 35.486 138.15 35.486 138.327 35.542Z" stroke="#141414" stroke-linecap="round" stroke-linejoin="round"/>
<path d="M140.001 40.3337L137.334 43.3337L136.001 42.0003" stroke="#141414" stroke-linecap="round" stroke-linejoin="round"/>
<path d="M119.346 68.7067C120.033 68.7067 120.499 68.2 120.499 67.4533V65.98C120.499 65.6 120.239 65.2667 119.866 65.1733L117.166 64.5L116.339 63.48C115.579 62.5467 114.433 62 113.226 62H109.739C109.173 62 108.646 62.2867 108.339 62.7667L107.539 64.0067C107.293 64.3867 107.166 64.8267 107.166 65.28V67.46C107.166 68.22 107.659 68.7133 108.366 68.7133" stroke="#141414" stroke-miterlimit="10"/>
<path d="M117.587 70.1671C118.394 70.1671 119.047 69.5137 119.047 68.7071C119.047 67.9004 118.394 67.2471 117.587 67.2471C116.78 67.2471 116.127 67.9004 116.127 68.7071C116.127 69.5137 116.78 70.1671 117.587 70.1671Z" stroke="#141414" stroke-linejoin="round"/>
<path d="M109.833 70.1671C110.64 70.1671 111.293 69.5137 111.293 68.7071C111.293 67.9004 110.64 67.2471 109.833 67.2471C109.026 67.2471 108.373 67.9004 108.373 68.7071C108.373 69.5137 109.026 70.1671 109.833 70.1671Z" stroke="#141414" stroke-linejoin="round"/>
<path d="M107.479 64.5H117.172" stroke="#141414" stroke-miterlimit="10"/>
<path d="M111.646 68.707H116.026" stroke="#141414" stroke-miterlimit="10"/>
<path d="M138 67.2281C136.676 67.1044 135.318 67.3914 134.147 68.0891C133.298 68.5946 131.072 69.6266 132.428 70.9181C133.09 71.549 133.827 72.0002 134.755 72.0002H138.6" stroke="#141414" stroke-linecap="round" stroke-linejoin="round"/>
<path d="M140.099 62.7C140.099 64.1912 138.89 65.4 137.399 65.4C135.908 65.4 134.699 64.1912 134.699 62.7C134.699 61.2088 135.908 60 137.399 60C138.89 60 140.099 61.2088 140.099 62.7Z" stroke="#141414"/>
<path d="M144.001 69.3002V67.8002C142.801 67.8002 141.901 67.2002 141.901 67.2002C141.901 67.2002 141.001 67.8002 139.801 67.8002V69.3002C139.801 71.4002 141.901 72.0002 141.901 72.0002C141.901 72.0002 144.001 71.4002 144.001 69.3002Z" stroke="#141414" stroke-linecap="round" stroke-linejoin="round"/>
</g>
<defs>
<filter id="filter0_d_3129_11674" x="-33" y="-49" width="270" height="209" filterUnits="userSpaceOnUse" color-interpolation-filters="sRGB">
<feFlood flood-opacity="0" result="BackgroundImageFix"/>
<feColorMatrix in="SourceAlpha" type="matrix" values="0 0 0 0 0 0 0 0 0 0 0 0 0 0 0 0 0 0 127 0" result="hardAlpha"/>
<feOffset dx="8"/>
<feGaussianBlur stdDeviation="30"/>
<feComposite in2="hardAlpha" operator="out"/>
<feColorMatrix type="matrix" values="0 0 0 0 0.365026 0 0 0 0 0.352899 0 0 0 0 0.443848 0 0 0 0.16 0"/>
<feBlend mode="normal" in2="BackgroundImageFix" result="effect1_dropShadow_3129_11674"/>
<feBlend mode="normal" in="SourceGraphic" in2="effect1_dropShadow_3129_11674" result="shape"/>
</filter>
<radialGradient id="paint0_radial_3129_11674" cx="0" cy="0" r="1" gradientUnits="userSpaceOnUse" gradientTransform="translate(-33.4351 -2.01445) rotate(-90) scale(60.2963 221.117)">
<stop stop-color="#7851DF"/>
<stop offset="0.413462" stop-color="#A886FF"/>
<stop offset="0.909524" stop-color="#D3BCFF" stop-opacity="0"/>
</radialGradient>
<radialGradient id="paint1_radial_3129_11674" cx="0" cy="0" r="1" gradientUnits="userSpaceOnUse" gradientTransform="translate(22.2661 43.0641) rotate(-65.5902) scale(119.502 177.129)">
<stop stop-color="#F1BAB2"/>
<stop offset="0.471154" stop-color="#C9B4FF"/>
<stop offset="1" stop-color="#DDCCFF" stop-opacity="0"/>
</radialGradient>
<linearGradient id="paint2_linear_3129_11674" x1="94" y1="11" x2="186.315" y2="80.8125" gradientUnits="userSpaceOnUse">
<stop stop-color="white"/>
<stop offset="1" stop-color="#EBEBEB"/>
</linearGradient>
<clipPath id="clip0_3129_11674">
<rect width="200" height="100" fill="white"/>
</clipPath>
<clipPath id="clip1_3129_11674">
<rect width="16" height="16" fill="white" transform="translate(106 34)"/>
</clipPath>
</defs>
</svg>
