<svg width="200" height="100" viewBox="0 0 200 100" fill="none" xmlns="http://www.w3.org/2000/svg">
<g clip-path="url(#clip0_3129_11914)">
<rect width="200" height="100" fill="#E9E8E7"/>
<rect x="41" y="27" width="118" height="115" rx="18" stroke="#141414" stroke-width="12"/>
<path d="M60 14.5H140C157.397 14.5 171.5 28.603 171.5 46V123C171.5 140.397 157.397 154.5 140 154.5H60C42.603 154.5 28.5 140.397 28.5 123V46C28.5 28.603 42.603 14.5 60 14.5Z" stroke="url(#paint0_linear_3129_11914)"/>
<path d="M74 68H124.5" stroke="#141414" stroke-width="12" stroke-linecap="round"/>
<rect x="61.5" y="55.5" width="37" height="25" rx="12.5" stroke="url(#paint1_linear_3129_11914)"/>
<g opacity="0.1">
<path d="M100.5 49.6357L-47 49.6357" stroke="#4E29BB" stroke-width="0.245833" stroke-linecap="round"/>
<path d="M12.002 49.6357V108.836" stroke="#4E29BB" stroke-width="0.245833" stroke-linecap="round"/>
<path d="M100.5 64.4355L-47 64.4355" stroke="#4E29BB" stroke-width="0.245833" stroke-linecap="round"/>
<path d="M26.75 49.6357V108.836" stroke="#4E29BB" stroke-width="0.245833" stroke-linecap="round"/>
<path d="M100.5 79.2354L-47 79.2353" stroke="#4E29BB" stroke-width="0.245833" stroke-linecap="round"/>
<path d="M41.498 49.6357V108.836" stroke="#4E29BB" stroke-width="0.245833" stroke-linecap="round"/>
<path d="M100.5 94.0371L-47 94.0371" stroke="#4E29BB" stroke-width="0.245833" stroke-linecap="round"/>
<path d="M56.252 49.6357V108.836" stroke="#4E29BB" stroke-width="0.245833" stroke-linecap="round"/>
<path d="M70.998 49.6357V108.836" stroke="#4E29BB" stroke-width="0.245833" stroke-linecap="round"/>
<path d="M85.752 49.6357V108.836" stroke="#4E29BB" stroke-width="0.245833" stroke-linecap="round"/>
<path d="M100.5 49.6357V108.836" stroke="#4E29BB" stroke-width="0.245833" stroke-linecap="round"/>
<path d="M100.5 49.6357V108.836" stroke="#4E29BB" stroke-width="0.245833" stroke-linecap="round"/>
<path d="M115.248 49.6357V108.836" stroke="#4E29BB" stroke-width="0.245833" stroke-linecap="round"/>
<path d="M130.002 49.6357V108.836" stroke="#4E29BB" stroke-width="0.245833" stroke-linecap="round"/>
<path d="M144.748 49.6357V108.836" stroke="#4E29BB" stroke-width="0.245833" stroke-linecap="round"/>
<path d="M248 49.6357L100.5 49.6357" stroke="#4E29BB" stroke-width="0.245833" stroke-linecap="round"/>
<path d="M159.502 49.6357V108.836" stroke="#4E29BB" stroke-width="0.245833" stroke-linecap="round"/>
<path d="M248 64.4355L100.5 64.4355" stroke="#4E29BB" stroke-width="0.245833" stroke-linecap="round"/>
<path d="M174.25 49.6357V108.836" stroke="#4E29BB" stroke-width="0.245833" stroke-linecap="round"/>
<path d="M248 79.2354L100.5 79.2353" stroke="#4E29BB" stroke-width="0.245833" stroke-linecap="round"/>
<path d="M188.998 49.6357V108.836" stroke="#4E29BB" stroke-width="0.245833" stroke-linecap="round"/>
<path d="M248 94.0371L100.5 94.0371" stroke="#4E29BB" stroke-width="0.245833" stroke-linecap="round"/>
<path d="M12.002 -9.56445V49.6362" stroke="#4E29BB" stroke-width="0.245833" stroke-linecap="round"/>
<path d="M100.5 5.23535L-47 5.23535" stroke="#4E29BB" stroke-width="0.245833" stroke-linecap="round"/>
<path d="M26.75 -9.56445V49.6362" stroke="#4E29BB" stroke-width="0.245833" stroke-linecap="round"/>
<path d="M100.5 20.0361L-47 20.0361" stroke="#4E29BB" stroke-width="0.245833" stroke-linecap="round"/>
<path d="M41.498 -9.56445V49.6362" stroke="#4E29BB" stroke-width="0.245833" stroke-linecap="round"/>
<path d="M100.5 34.8359L-47 34.8359" stroke="#4E29BB" stroke-width="0.245833" stroke-linecap="round"/>
<path d="M56.252 -9.56445V49.6362" stroke="#4E29BB" stroke-width="0.245833" stroke-linecap="round"/>
<path d="M100.5 49.6357L-47 49.6357" stroke="#4E29BB" stroke-width="0.245833" stroke-linecap="round"/>
<path d="M70.998 -9.56445V49.6362" stroke="#4E29BB" stroke-width="0.245833" stroke-linecap="round"/>
<path d="M85.752 -9.56445V49.6362" stroke="#4E29BB" stroke-width="0.245833" stroke-linecap="round"/>
<path d="M100.5 -9.56445V49.6362" stroke="#4E29BB" stroke-width="0.245833" stroke-linecap="round"/>
<path d="M100.5 -9.56445V49.6362" stroke="#4E29BB" stroke-width="0.245833" stroke-linecap="round"/>
<path d="M115.248 -9.56445V49.6362" stroke="#4E29BB" stroke-width="0.245833" stroke-linecap="round"/>
<path d="M130.002 -9.56445V49.6362" stroke="#4E29BB" stroke-width="0.245833" stroke-linecap="round"/>
<path d="M144.748 -9.56445V49.6362" stroke="#4E29BB" stroke-width="0.245833" stroke-linecap="round"/>
<path d="M159.502 -9.56445V49.6362" stroke="#4E29BB" stroke-width="0.245833" stroke-linecap="round"/>
<path d="M248 5.23535L100.5 5.23535" stroke="#4E29BB" stroke-width="0.245833" stroke-linecap="round"/>
<path d="M174.25 -9.56445V49.6362" stroke="#4E29BB" stroke-width="0.245833" stroke-linecap="round"/>
<path d="M248 20.0361L100.5 20.0361" stroke="#4E29BB" stroke-width="0.245833" stroke-linecap="round"/>
<path d="M188.998 -9.56445V49.6362" stroke="#4E29BB" stroke-width="0.245833" stroke-linecap="round"/>
<path d="M248 34.8359L100.5 34.8359" stroke="#4E29BB" stroke-width="0.245833" stroke-linecap="round"/>
<path d="M248 49.6357L100.5 49.6357" stroke="#4E29BB" stroke-width="0.245833" stroke-linecap="round"/>
</g>
</g>
<defs>
<linearGradient id="paint0_linear_3129_11914" x1="34" y1="22.5" x2="56" y2="40" gradientUnits="userSpaceOnUse">
<stop stop-color="#9364ED"/>
<stop offset="1" stop-color="#9364ED" stop-opacity="0"/>
</linearGradient>
<linearGradient id="paint1_linear_3129_11914" x1="61" y1="68" x2="84.5" y2="68" gradientUnits="userSpaceOnUse">
<stop stop-color="#9364ED"/>
<stop offset="1" stop-color="#9364ED" stop-opacity="0"/>
</linearGradient>
<clipPath id="clip0_3129_11914">
<rect width="200" height="100" fill="white"/>
</clipPath>
</defs>
</svg>
