<svg width="200" height="100" viewBox="0 0 200 100" fill="none" xmlns="http://www.w3.org/2000/svg">
<g clip-path="url(#clip0_3130_11832)">
<rect width="200" height="100" fill="#E9E8E7"/>
<g opacity="0.1">
<path d="M100.5 50.2002L-47 50.2002" stroke="#4E29BB" stroke-width="0.245833" stroke-linecap="round"/>
<path d="M12.002 50.2002V109.401" stroke="#4E29BB" stroke-width="0.245833" stroke-linecap="round"/>
<path d="M100.5 65L-47 65" stroke="#4E29BB" stroke-width="0.245833" stroke-linecap="round"/>
<path d="M26.75 50.2002V109.401" stroke="#4E29BB" stroke-width="0.245833" stroke-linecap="round"/>
<path d="M100.5 79.7998L-47 79.7998" stroke="#4E29BB" stroke-width="0.245833" stroke-linecap="round"/>
<path d="M41.498 50.2002V109.401" stroke="#4E29BB" stroke-width="0.245833" stroke-linecap="round"/>
<path d="M100.5 94.6016L-47 94.6016" stroke="#4E29BB" stroke-width="0.245833" stroke-linecap="round"/>
<path d="M56.252 50.2002V109.401" stroke="#4E29BB" stroke-width="0.245833" stroke-linecap="round"/>
<path d="M70.998 50.2002V109.401" stroke="#4E29BB" stroke-width="0.245833" stroke-linecap="round"/>
<path d="M85.752 50.2002V109.401" stroke="#4E29BB" stroke-width="0.245833" stroke-linecap="round"/>
<path d="M100.5 50.2002V109.401" stroke="#4E29BB" stroke-width="0.245833" stroke-linecap="round"/>
<path d="M100.5 50.2002V109.401" stroke="#4E29BB" stroke-width="0.245833" stroke-linecap="round"/>
<path d="M115.248 50.2002V109.401" stroke="#4E29BB" stroke-width="0.245833" stroke-linecap="round"/>
<path d="M130.002 50.2002V109.401" stroke="#4E29BB" stroke-width="0.245833" stroke-linecap="round"/>
<path d="M144.748 50.2002V109.401" stroke="#4E29BB" stroke-width="0.245833" stroke-linecap="round"/>
<path d="M248 50.2002L100.5 50.2002" stroke="#4E29BB" stroke-width="0.245833" stroke-linecap="round"/>
<path d="M159.502 50.2002V109.401" stroke="#4E29BB" stroke-width="0.245833" stroke-linecap="round"/>
<path d="M248 65L100.5 65" stroke="#4E29BB" stroke-width="0.245833" stroke-linecap="round"/>
<path d="M174.25 50.2002V109.401" stroke="#4E29BB" stroke-width="0.245833" stroke-linecap="round"/>
<path d="M248 79.7998L100.5 79.7998" stroke="#4E29BB" stroke-width="0.245833" stroke-linecap="round"/>
<path d="M188.998 50.2002V109.401" stroke="#4E29BB" stroke-width="0.245833" stroke-linecap="round"/>
<path d="M248 94.6016L100.5 94.6016" stroke="#4E29BB" stroke-width="0.245833" stroke-linecap="round"/>
<path d="M12.002 -9V50.2007" stroke="#4E29BB" stroke-width="0.245833" stroke-linecap="round"/>
<path d="M100.5 5.7998L-47 5.7998" stroke="#4E29BB" stroke-width="0.245833" stroke-linecap="round"/>
<path d="M26.75 -9V50.2007" stroke="#4E29BB" stroke-width="0.245833" stroke-linecap="round"/>
<path d="M100.5 20.6006L-47 20.6006" stroke="#4E29BB" stroke-width="0.245833" stroke-linecap="round"/>
<path d="M41.498 -9V50.2007" stroke="#4E29BB" stroke-width="0.245833" stroke-linecap="round"/>
<path d="M100.5 35.4004L-47 35.4004" stroke="#4E29BB" stroke-width="0.245833" stroke-linecap="round"/>
<path d="M56.252 -9V50.2007" stroke="#4E29BB" stroke-width="0.245833" stroke-linecap="round"/>
<path d="M100.5 50.2002L-47 50.2002" stroke="#4E29BB" stroke-width="0.245833" stroke-linecap="round"/>
<path d="M70.998 -9V50.2007" stroke="#4E29BB" stroke-width="0.245833" stroke-linecap="round"/>
<path d="M85.752 -9V50.2007" stroke="#4E29BB" stroke-width="0.245833" stroke-linecap="round"/>
<path d="M100.5 -9V50.2007" stroke="#4E29BB" stroke-width="0.245833" stroke-linecap="round"/>
<path d="M100.5 -9V50.2007" stroke="#4E29BB" stroke-width="0.245833" stroke-linecap="round"/>
<path d="M115.248 -9V50.2007" stroke="#4E29BB" stroke-width="0.245833" stroke-linecap="round"/>
<path d="M130.002 -9V50.2007" stroke="#4E29BB" stroke-width="0.245833" stroke-linecap="round"/>
<path d="M144.748 -9V50.2007" stroke="#4E29BB" stroke-width="0.245833" stroke-linecap="round"/>
<path d="M159.502 -9V50.2007" stroke="#4E29BB" stroke-width="0.245833" stroke-linecap="round"/>
<path d="M248 5.7998L100.5 5.7998" stroke="#4E29BB" stroke-width="0.245833" stroke-linecap="round"/>
<path d="M174.25 -9V50.2007" stroke="#4E29BB" stroke-width="0.245833" stroke-linecap="round"/>
<path d="M248 20.6006L100.5 20.6006" stroke="#4E29BB" stroke-width="0.245833" stroke-linecap="round"/>
<path d="M188.998 -9V50.2007" stroke="#4E29BB" stroke-width="0.245833" stroke-linecap="round"/>
<path d="M248 35.4004L100.5 35.4004" stroke="#4E29BB" stroke-width="0.245833" stroke-linecap="round"/>
<path d="M248 50.2002L100.5 50.2002" stroke="#4E29BB" stroke-width="0.245833" stroke-linecap="round"/>
</g>
<rect x="26.25" y="20.25" width="146.504" height="59.5" rx="6.75" fill="white" fill-opacity="0.6"/>
<rect x="26.25" y="20.25" width="146.504" height="59.5" rx="6.75" stroke="white" stroke-width="0.5"/>
<path d="M41.2453 49.1565L44.7455 50.2765C45.0215 50.3651 45.2088 50.6219 45.2088 50.9111V54.7578C45.2088 56.7778 42.086 58.4231 41.2473 58.6945C41.112 58.7385 40.972 58.7385 40.8366 58.6945C39.9979 58.4231 36.875 56.7778 36.875 54.7578V50.9112C36.875 50.6212 37.0624 50.3645 37.3384 50.2766L40.8385 49.1565C40.9705 49.1145 41.1126 49.1145 41.2453 49.1565Z" stroke="#141414" stroke-width="0.740598" stroke-linecap="round" stroke-linejoin="round"/>
<path d="M42.4812 52.75L40.5063 55L39.5188 54" stroke="#141414" stroke-width="0.740598" stroke-linecap="round" stroke-linejoin="round"/>
<path d="M35.0702 66.25H34.2482L34.6682 65.74H35.5862V70H35.0702V66.25ZM39.2054 70H36.4454V69.796C36.4454 69.568 36.4894 69.368 36.5774 69.196C36.6694 69.024 36.7834 68.87 36.9194 68.734C37.0594 68.594 37.2134 68.466 37.3814 68.35C37.5534 68.23 37.7174 68.112 37.8734 67.996C37.9974 67.904 38.1054 67.82 38.1974 67.744C38.2934 67.664 38.3734 67.584 38.4374 67.504C38.5014 67.42 38.5494 67.332 38.5814 67.24C38.6134 67.144 38.6294 67.034 38.6294 66.91C38.6294 66.686 38.5574 66.508 38.4134 66.376C38.2694 66.24 38.0814 66.172 37.8494 66.172C37.7334 66.172 37.6214 66.19 37.5134 66.226C37.4094 66.262 37.3154 66.316 37.2314 66.388C37.1514 66.456 37.0874 66.544 37.0394 66.652C36.9914 66.756 36.9674 66.876 36.9674 67.012H36.4394C36.4394 66.808 36.4754 66.624 36.5474 66.46C36.6194 66.292 36.7174 66.15 36.8414 66.034C36.9694 65.918 37.1194 65.828 37.2914 65.764C37.4634 65.7 37.6474 65.668 37.8434 65.668C38.0194 65.668 38.1874 65.694 38.3474 65.746C38.5074 65.798 38.6474 65.876 38.7674 65.98C38.8874 66.084 38.9814 66.214 39.0494 66.37C39.1214 66.526 39.1574 66.708 39.1574 66.916C39.1574 67.072 39.1374 67.214 39.0974 67.342C39.0614 67.47 39.0034 67.592 38.9234 67.708C38.8474 67.82 38.7454 67.934 38.6174 68.05C38.4934 68.162 38.3454 68.28 38.1734 68.404C38.0494 68.496 37.9274 68.582 37.8074 68.662C37.6874 68.738 37.5774 68.818 37.4774 68.902C37.3814 68.986 37.2974 69.076 37.2254 69.172C37.1534 69.268 37.1054 69.378 37.0814 69.502H39.2054V70ZM41.4303 71.254V67H41.9463V67.462C42.0463 67.318 42.1903 67.196 42.3783 67.096C42.5663 66.992 42.7743 66.94 43.0023 66.94C43.2103 66.94 43.4043 66.982 43.5843 67.066C43.7643 67.146 43.9203 67.258 44.0523 67.402C44.1843 67.542 44.2863 67.706 44.3583 67.894C44.4343 68.082 44.4723 68.284 44.4723 68.5C44.4723 68.716 44.4343 68.918 44.3583 69.106C44.2863 69.294 44.1843 69.46 44.0523 69.604C43.9203 69.744 43.7643 69.856 43.5843 69.94C43.4043 70.02 43.2103 70.06 43.0023 70.06C42.7743 70.06 42.5663 70.01 42.3783 69.91C42.1903 69.806 42.0463 69.682 41.9463 69.538V71.254H41.4303ZM42.9243 69.586C43.0763 69.586 43.2143 69.558 43.3383 69.502C43.4623 69.446 43.5683 69.37 43.6563 69.274C43.7483 69.174 43.8183 69.058 43.8663 68.926C43.9183 68.794 43.9443 68.652 43.9443 68.5C43.9443 68.348 43.9183 68.206 43.8663 68.074C43.8183 67.942 43.7483 67.828 43.6563 67.732C43.5683 67.632 43.4623 67.554 43.3383 67.498C43.2143 67.442 43.0763 67.414 42.9243 67.414C42.7723 67.414 42.6343 67.442 42.5103 67.498C42.3863 67.554 42.2783 67.632 42.1863 67.732C42.0983 67.828 42.0283 67.942 41.9763 68.074C41.9283 68.206 41.9043 68.348 41.9043 68.5C41.9043 68.652 41.9283 68.794 41.9763 68.926C42.0283 69.058 42.0983 69.174 42.1863 69.274C42.2783 69.37 42.3863 69.446 42.5103 69.502C42.6343 69.558 42.7723 69.586 42.9243 69.586ZM46.2082 68.866L45.2962 70H44.6542L45.8842 68.482L44.7562 67H45.3802L46.2082 68.086L47.0302 67H47.6602L46.5262 68.482L47.7562 70H47.1202L46.2082 68.866Z" fill="black" fill-opacity="0.6"/>
<path d="M72.0748 41.9275L77.9085 43.7941C78.3685 43.9419 78.6807 44.3698 78.6807 44.8519V51.263C78.6807 54.6297 73.476 57.3719 72.0782 57.8241C71.8527 57.8975 71.6193 57.8975 71.3936 57.8241C69.9958 57.3719 64.791 54.6297 64.791 51.263V44.852C64.791 44.3686 65.1033 43.9409 65.5633 43.7943L71.3969 41.9275C71.6169 41.8575 71.8537 41.8575 72.0748 41.9275Z" stroke="#141414" stroke-width="1.23433" stroke-linecap="round" stroke-linejoin="round"/>
<path d="M74.1354 47.9163L70.8438 51.6663L69.198 49.9997" stroke="#141414" stroke-width="1.23433" stroke-linecap="round" stroke-linejoin="round"/>
<path d="M65.7333 66.25H64.9113L65.3313 65.74H66.2493V70H65.7333V66.25ZM68.4765 70.06C68.2685 70.06 68.0765 70.024 67.9005 69.952C67.7245 69.876 67.5705 69.776 67.4385 69.652C67.3105 69.524 67.2105 69.374 67.1385 69.202C67.0665 69.03 67.0305 68.848 67.0305 68.656C67.0305 68.432 67.0765 68.234 67.1685 68.062C67.2645 67.89 67.3785 67.726 67.5105 67.57L69.0645 65.74H69.7185L68.4165 67.282C68.4445 67.278 68.4705 67.276 68.4945 67.276C68.5225 67.272 68.5525 67.27 68.5845 67.27C68.7645 67.27 68.9345 67.308 69.0945 67.384C69.2545 67.456 69.3945 67.554 69.5145 67.678C69.6385 67.802 69.7365 67.948 69.8085 68.116C69.8805 68.284 69.9165 68.46 69.9165 68.644C69.9165 68.84 69.8805 69.024 69.8085 69.196C69.7365 69.368 69.6365 69.518 69.5085 69.646C69.3805 69.774 69.2285 69.876 69.0525 69.952C68.8765 70.024 68.6845 70.06 68.4765 70.06ZM68.4765 69.562C68.6045 69.562 68.7245 69.538 68.8365 69.49C68.9485 69.442 69.0445 69.376 69.1245 69.292C69.2085 69.208 69.2725 69.112 69.3165 69.004C69.3645 68.892 69.3885 68.772 69.3885 68.644C69.3885 68.52 69.3645 68.402 69.3165 68.29C69.2725 68.178 69.2085 68.08 69.1245 67.996C69.0445 67.912 68.9485 67.846 68.8365 67.798C68.7245 67.75 68.6045 67.726 68.4765 67.726C68.3445 67.726 68.2225 67.75 68.1105 67.798C67.9985 67.846 67.9005 67.912 67.8165 67.996C67.7365 68.08 67.6725 68.178 67.6245 68.29C67.5805 68.402 67.5585 68.52 67.5585 68.644C67.5585 68.772 67.5805 68.892 67.6245 69.004C67.6725 69.112 67.7365 69.208 67.8165 69.292C67.9005 69.376 67.9985 69.442 68.1105 69.49C68.2225 69.538 68.3445 69.562 68.4765 69.562ZM72.0993 71.254V67H72.6153V67.462C72.7153 67.318 72.8593 67.196 73.0473 67.096C73.2353 66.992 73.4433 66.94 73.6713 66.94C73.8793 66.94 74.0733 66.982 74.2533 67.066C74.4333 67.146 74.5893 67.258 74.7213 67.402C74.8533 67.542 74.9553 67.706 75.0273 67.894C75.1033 68.082 75.1413 68.284 75.1413 68.5C75.1413 68.716 75.1033 68.918 75.0273 69.106C74.9553 69.294 74.8533 69.46 74.7213 69.604C74.5893 69.744 74.4333 69.856 74.2533 69.94C74.0733 70.02 73.8793 70.06 73.6713 70.06C73.4433 70.06 73.2353 70.01 73.0473 69.91C72.8593 69.806 72.7153 69.682 72.6153 69.538V71.254H72.0993ZM73.5933 69.586C73.7453 69.586 73.8833 69.558 74.0073 69.502C74.1313 69.446 74.2373 69.37 74.3253 69.274C74.4173 69.174 74.4873 69.058 74.5353 68.926C74.5873 68.794 74.6133 68.652 74.6133 68.5C74.6133 68.348 74.5873 68.206 74.5353 68.074C74.4873 67.942 74.4173 67.828 74.3253 67.732C74.2373 67.632 74.1313 67.554 74.0073 67.498C73.8833 67.442 73.7453 67.414 73.5933 67.414C73.4413 67.414 73.3033 67.442 73.1793 67.498C73.0553 67.554 72.9473 67.632 72.8553 67.732C72.7673 67.828 72.6973 67.942 72.6453 68.074C72.5973 68.206 72.5733 68.348 72.5733 68.5C72.5733 68.652 72.5973 68.794 72.6453 68.926C72.6973 69.058 72.7673 69.174 72.8553 69.274C72.9473 69.37 73.0553 69.446 73.1793 69.502C73.3033 69.558 73.4413 69.586 73.5933 69.586ZM76.8771 68.866L75.9651 70H75.3231L76.5531 68.482L75.4251 67H76.0491L76.8771 68.086L77.6991 67H78.3291L77.1951 68.482L78.4251 70H77.7891L76.8771 68.866Z" fill="black" fill-opacity="0.6"/>
<path d="M107.825 38.313L114.825 40.553C115.377 40.7303 115.752 41.2437 115.752 41.8223V49.5157C115.752 53.5556 109.506 56.8463 107.829 57.389C107.558 57.477 107.278 57.477 107.007 57.389C105.33 56.8463 99.084 53.5556 99.084 49.5157V41.8224C99.084 41.2424 99.4587 40.7291 100.011 40.5531L107.011 38.313C107.275 38.229 107.559 38.229 107.825 38.313Z" stroke="#141414" stroke-width="1.4812" stroke-linecap="round" stroke-linejoin="round"/>
<path d="M110.296 45.5L106.347 50L104.372 48" stroke="#141414" stroke-width="1.4812" stroke-linecap="round" stroke-linejoin="round"/>
<path d="M102.753 70H99.9932V69.796C99.9932 69.568 100.037 69.368 100.125 69.196C100.217 69.024 100.331 68.87 100.467 68.734C100.607 68.594 100.761 68.466 100.929 68.35C101.101 68.23 101.265 68.112 101.421 67.996C101.545 67.904 101.653 67.82 101.745 67.744C101.841 67.664 101.921 67.584 101.985 67.504C102.049 67.42 102.097 67.332 102.129 67.24C102.161 67.144 102.177 67.034 102.177 66.91C102.177 66.686 102.105 66.508 101.961 66.376C101.817 66.24 101.629 66.172 101.397 66.172C101.281 66.172 101.169 66.19 101.061 66.226C100.957 66.262 100.863 66.316 100.779 66.388C100.699 66.456 100.635 66.544 100.587 66.652C100.539 66.756 100.515 66.876 100.515 67.012H99.9872C99.9872 66.808 100.023 66.624 100.095 66.46C100.167 66.292 100.265 66.15 100.389 66.034C100.517 65.918 100.667 65.828 100.839 65.764C101.011 65.7 101.195 65.668 101.391 65.668C101.567 65.668 101.735 65.694 101.895 65.746C102.055 65.798 102.195 65.876 102.315 65.98C102.435 66.084 102.529 66.214 102.597 66.37C102.669 66.526 102.705 66.708 102.705 66.916C102.705 67.072 102.685 67.214 102.645 67.342C102.609 67.47 102.551 67.592 102.471 67.708C102.395 67.82 102.293 67.934 102.165 68.05C102.041 68.162 101.893 68.28 101.721 68.404C101.597 68.496 101.475 68.582 101.355 68.662C101.235 68.738 101.125 68.818 101.025 68.902C100.929 68.986 100.845 69.076 100.773 69.172C100.701 69.268 100.653 69.378 100.629 69.502H102.753V70ZM105.333 68.842H103.065V68.428L105.399 65.74H105.849V68.356H106.437V68.842H105.849V70H105.333V68.842ZM105.333 68.356V66.52L103.737 68.356H105.333ZM108.599 71.254V67H109.115V67.462C109.215 67.318 109.359 67.196 109.547 67.096C109.735 66.992 109.943 66.94 110.171 66.94C110.379 66.94 110.573 66.982 110.753 67.066C110.933 67.146 111.089 67.258 111.221 67.402C111.353 67.542 111.455 67.706 111.527 67.894C111.603 68.082 111.641 68.284 111.641 68.5C111.641 68.716 111.603 68.918 111.527 69.106C111.455 69.294 111.353 69.46 111.221 69.604C111.089 69.744 110.933 69.856 110.753 69.94C110.573 70.02 110.379 70.06 110.171 70.06C109.943 70.06 109.735 70.01 109.547 69.91C109.359 69.806 109.215 69.682 109.115 69.538V71.254H108.599ZM110.093 69.586C110.245 69.586 110.383 69.558 110.507 69.502C110.631 69.446 110.737 69.37 110.825 69.274C110.917 69.174 110.987 69.058 111.035 68.926C111.087 68.794 111.113 68.652 111.113 68.5C111.113 68.348 111.087 68.206 111.035 68.074C110.987 67.942 110.917 67.828 110.825 67.732C110.737 67.632 110.631 67.554 110.507 67.498C110.383 67.442 110.245 67.414 110.093 67.414C109.941 67.414 109.803 67.442 109.679 67.498C109.555 67.554 109.447 67.632 109.355 67.732C109.267 67.828 109.197 67.942 109.145 68.074C109.097 68.206 109.073 68.348 109.073 68.5C109.073 68.652 109.097 68.794 109.145 68.926C109.197 69.058 109.267 69.174 109.355 69.274C109.447 69.37 109.555 69.446 109.679 69.502C109.803 69.558 109.941 69.586 110.093 69.586ZM113.377 68.866L112.465 70H111.823L113.053 68.482L111.925 67H112.549L113.377 68.086L114.199 67H114.829L113.695 68.482L114.925 70H114.289L113.377 68.866Z" fill="black" fill-opacity="0.6"/>
<path d="M149.656 31.084L158.99 34.0706C159.726 34.307 160.225 34.9916 160.225 35.763V46.0209C160.225 51.4075 151.898 55.795 149.661 56.5186C149.301 56.636 148.927 56.636 148.566 56.5186C146.33 55.795 138.002 51.4075 138.002 46.0209V35.7632C138.002 34.9898 138.502 34.3054 139.238 34.0708L148.571 31.084C148.923 30.972 149.302 30.972 149.656 31.084Z" stroke="#141414" stroke-width="1.97493" stroke-linecap="round" stroke-linejoin="round"/>
<path d="M152.953 40.6663L147.686 46.6663L145.053 43.9997" stroke="#141414" stroke-width="1.97493" stroke-linecap="round" stroke-linejoin="round"/>
<path d="M143.22 70.06C143.008 70.06 142.81 70.026 142.626 69.958C142.442 69.89 142.282 69.796 142.146 69.676C142.01 69.556 141.902 69.414 141.822 69.25C141.742 69.082 141.702 68.9 141.702 68.704H142.224C142.232 68.832 142.262 68.95 142.314 69.058C142.37 69.162 142.442 69.252 142.53 69.328C142.622 69.4 142.726 69.456 142.842 69.496C142.962 69.536 143.088 69.556 143.22 69.556C143.34 69.556 143.452 69.54 143.556 69.508C143.66 69.472 143.75 69.422 143.826 69.358C143.906 69.294 143.968 69.214 144.012 69.118C144.06 69.022 144.084 68.912 144.084 68.788C144.084 68.524 143.998 68.33 143.826 68.206C143.654 68.082 143.43 68.02 143.154 68.02H142.836V67.546H143.178C143.402 67.546 143.588 67.482 143.736 67.354C143.884 67.226 143.96 67.06 143.964 66.856C143.964 66.756 143.944 66.664 143.904 66.58C143.864 66.496 143.81 66.424 143.742 66.364C143.674 66.304 143.592 66.258 143.496 66.226C143.404 66.19 143.304 66.172 143.196 66.172C143.076 66.172 142.962 66.19 142.854 66.226C142.746 66.262 142.65 66.316 142.566 66.388C142.486 66.456 142.422 66.542 142.374 66.646C142.326 66.75 142.302 66.872 142.302 67.012H141.774C141.774 66.804 141.81 66.618 141.882 66.454C141.958 66.286 142.06 66.144 142.188 66.028C142.32 65.912 142.472 65.824 142.644 65.764C142.816 65.7 143 65.668 143.196 65.668C143.376 65.668 143.544 65.696 143.7 65.752C143.86 65.804 143.998 65.882 144.114 65.986C144.234 66.086 144.326 66.208 144.39 66.352C144.458 66.496 144.492 66.658 144.492 66.838C144.488 67.046 144.432 67.232 144.324 67.396C144.216 67.56 144.08 67.684 143.916 67.768C144.132 67.856 144.302 67.99 144.426 68.17C144.55 68.35 144.612 68.562 144.612 68.806C144.612 68.994 144.578 69.166 144.51 69.322C144.442 69.474 144.346 69.606 144.222 69.718C144.098 69.826 143.95 69.91 143.778 69.97C143.61 70.03 143.424 70.06 143.22 70.06ZM147.972 70H145.212V69.796C145.212 69.568 145.256 69.368 145.344 69.196C145.436 69.024 145.55 68.87 145.686 68.734C145.826 68.594 145.98 68.466 146.148 68.35C146.32 68.23 146.484 68.112 146.64 67.996C146.764 67.904 146.872 67.82 146.964 67.744C147.06 67.664 147.14 67.584 147.204 67.504C147.268 67.42 147.316 67.332 147.348 67.24C147.38 67.144 147.396 67.034 147.396 66.91C147.396 66.686 147.324 66.508 147.18 66.376C147.036 66.24 146.848 66.172 146.616 66.172C146.5 66.172 146.388 66.19 146.28 66.226C146.176 66.262 146.082 66.316 145.998 66.388C145.918 66.456 145.854 66.544 145.806 66.652C145.758 66.756 145.734 66.876 145.734 67.012H145.206C145.206 66.808 145.242 66.624 145.314 66.46C145.386 66.292 145.484 66.15 145.608 66.034C145.736 65.918 145.886 65.828 146.058 65.764C146.23 65.7 146.414 65.668 146.61 65.668C146.786 65.668 146.954 65.694 147.114 65.746C147.274 65.798 147.414 65.876 147.534 65.98C147.654 66.084 147.748 66.214 147.816 66.37C147.888 66.526 147.924 66.708 147.924 66.916C147.924 67.072 147.904 67.214 147.864 67.342C147.828 67.47 147.77 67.592 147.69 67.708C147.614 67.82 147.512 67.934 147.384 68.05C147.26 68.162 147.112 68.28 146.94 68.404C146.816 68.496 146.694 68.582 146.574 68.662C146.454 68.738 146.344 68.818 146.244 68.902C146.148 68.986 146.064 69.076 145.992 69.172C145.92 69.268 145.872 69.378 145.848 69.502H147.972V70ZM150.197 71.254V67H150.713V67.462C150.813 67.318 150.957 67.196 151.145 67.096C151.333 66.992 151.541 66.94 151.769 66.94C151.977 66.94 152.171 66.982 152.351 67.066C152.531 67.146 152.687 67.258 152.819 67.402C152.951 67.542 153.053 67.706 153.125 67.894C153.201 68.082 153.239 68.284 153.239 68.5C153.239 68.716 153.201 68.918 153.125 69.106C153.053 69.294 152.951 69.46 152.819 69.604C152.687 69.744 152.531 69.856 152.351 69.94C152.171 70.02 151.977 70.06 151.769 70.06C151.541 70.06 151.333 70.01 151.145 69.91C150.957 69.806 150.813 69.682 150.713 69.538V71.254H150.197ZM151.691 69.586C151.843 69.586 151.981 69.558 152.105 69.502C152.229 69.446 152.335 69.37 152.423 69.274C152.515 69.174 152.585 69.058 152.633 68.926C152.685 68.794 152.711 68.652 152.711 68.5C152.711 68.348 152.685 68.206 152.633 68.074C152.585 67.942 152.515 67.828 152.423 67.732C152.335 67.632 152.229 67.554 152.105 67.498C151.981 67.442 151.843 67.414 151.691 67.414C151.539 67.414 151.401 67.442 151.277 67.498C151.153 67.554 151.045 67.632 150.953 67.732C150.865 67.828 150.795 67.942 150.743 68.074C150.695 68.206 150.671 68.348 150.671 68.5C150.671 68.652 150.695 68.794 150.743 68.926C150.795 69.058 150.865 69.174 150.953 69.274C151.045 69.37 151.153 69.446 151.277 69.502C151.401 69.558 151.539 69.586 151.691 69.586ZM154.975 68.866L154.063 70H153.421L154.651 68.482L153.523 67H154.147L154.975 68.086L155.797 67H156.427L155.293 68.482L156.523 70H155.887L154.975 68.866Z" fill="black" fill-opacity="0.6"/>
</g>
<defs>
<clipPath id="clip0_3130_11832">
<rect width="200" height="100" fill="white"/>
</clipPath>
</defs>
</svg>
