<svg width="200" height="100" viewBox="0 0 200 100" fill="none" xmlns="http://www.w3.org/2000/svg">
<g clip-path="url(#clip0_3129_11770)">
<rect width="200" height="100" fill="#EAEAFD"/>
<path d="M215.345 1.74573C216.011 1.6724 216.9 1.48264 217.491 1.87661C218.316 2.5182 219.585 2.51632 220.24 5.04369C220.692 6.7886 220.452 9.95153 220.056 11.9799C216.52 30.1091 212.544 46.071 208.569 59.7744L144.753 59.7744C147.371 52.9186 149.994 45.6576 152.606 37.9698C153.773 34.5243 156.409 26.9404 157.648 23.3774L209.731 2.80168C209.731 2.80168 214.726 1.83439 215.345 1.74573Z" fill="url(#paint0_radial_3129_11770)"/>
<path d="M219.375 2.81866L185.002 -30.3835C177.195 -37.6915 170.268 -40.7554 159.177 -38.001C107.764 -25.2318 75.6651 -9.33064 64.7103 -2.98076C48.8645 6.1946 42.7696 13.2823 41.7852 14.4524C33.3289 24.5726 27.3103 42.1579 23.15 59.4068C23.1511 59.4068 77.2427 59.4068 77.2427 59.4068C94.4976 49.8204 116.225 39.512 143.447 29.14C163.213 21.6042 185.046 12.9662 210.48 2.97938C210.48 2.97938 214.665 1.60343 216.181 1.79788L219.375 2.81866Z" fill="url(#paint1_radial_3129_11770)"/>
<path d="M90.9961 52.2399C119.953 39.3179 182.638 12.1674 214.577 2.40831C217.345 1.56248 220.068 3.66613 219.91 6.55631C219.297 17.7784 216.884 33.8925 211.075 53.8633" stroke="url(#paint2_linear_3129_11770)" stroke-width="1.6498"/>
<path d="M132.889 19.4238C139.205 19.4238 144.326 24.5446 144.326 30.8613C144.326 37.178 139.205 42.2988 132.889 42.2988H57.4863C52.7181 42.2988 49.1733 42.2985 46.3926 42.0156C43.619 41.7335 41.6517 41.1739 40.0234 40.0859C38.5896 39.1279 37.3585 37.8958 36.4004 36.4619C35.3126 34.8337 34.7528 32.8671 34.4707 30.0938C34.1963 27.396 34.1887 23.9793 34.1885 19.4238H132.889Z" fill="#FAFAFA"/>
<path d="M132.889 19.4238C139.205 19.4238 144.326 24.5446 144.326 30.8613C144.326 37.178 139.205 42.2988 132.889 42.2988H57.4863C52.7181 42.2988 49.1733 42.2985 46.3926 42.0156C43.619 41.7335 41.6517 41.1739 40.0234 40.0859C38.5896 39.1279 37.3585 37.8958 36.4004 36.4619C35.3126 34.8337 34.7528 32.8671 34.4707 30.0938C34.1963 27.396 34.1887 23.9793 34.1885 19.4238H132.889Z" stroke="white" stroke-width="0.847222"/>
<path d="M44.3168 27.2014H44.9471V29.2551H47.5837V27.2014H48.214V32.0137H47.5837V29.8448H44.9471V32.0137H44.3168V27.2014ZM50.8432 32.0814C50.5856 32.0814 50.3484 32.0363 50.1315 31.9459C49.9146 31.851 49.7271 31.7245 49.5689 31.5663C49.4108 31.4082 49.2865 31.2229 49.1962 31.0106C49.1103 30.7937 49.0674 30.5632 49.0674 30.3192C49.0674 30.0752 49.1103 29.847 49.1962 29.6347C49.2865 29.4178 49.4108 29.2303 49.5689 29.0721C49.7271 28.914 49.9146 28.7897 50.1315 28.6993C50.3484 28.6044 50.5856 28.557 50.8432 28.557C51.0962 28.557 51.3312 28.6044 51.5481 28.6993C51.7649 28.7897 51.9525 28.914 52.1106 29.0721C52.2688 29.2303 52.3908 29.4178 52.4766 29.6347C52.567 29.847 52.6122 30.0752 52.6122 30.3192C52.6122 30.5632 52.567 30.7937 52.4766 31.0106C52.3908 31.2229 52.2688 31.4082 52.1106 31.5663C51.9525 31.7245 51.7649 31.851 51.5481 31.9459C51.3312 32.0363 51.0962 32.0814 50.8432 32.0814ZM50.8432 31.5392C51.0194 31.5392 51.1798 31.5076 51.3244 31.4443C51.469 31.3811 51.591 31.2952 51.6904 31.1868C51.7943 31.0738 51.8734 30.945 51.9276 30.8004C51.9863 30.6513 52.0157 30.4909 52.0157 30.3192C52.0157 30.152 51.9863 29.9939 51.9276 29.8448C51.8734 29.6957 51.7943 29.5669 51.6904 29.4584C51.591 29.3455 51.469 29.2574 51.3244 29.1941C51.1798 29.1309 51.0194 29.0992 50.8432 29.0992C50.6669 29.0992 50.5065 29.1309 50.3619 29.1941C50.2173 29.2574 50.0931 29.3455 49.9892 29.4584C49.8852 29.5669 49.8039 29.6957 49.7452 29.8448C49.6909 29.9939 49.6638 30.152 49.6638 30.3192C49.6638 30.4909 49.6909 30.6513 49.7452 30.8004C49.8039 30.945 49.8852 31.0738 49.9892 31.1868C50.0931 31.2952 50.2173 31.3811 50.3619 31.4443C50.5065 31.5076 50.6669 31.5392 50.8432 31.5392ZM55.4689 29.5804L54.6353 32.0137H54.1202L52.9679 28.6248H53.5779L54.3981 31.0987L55.2453 28.6248H55.6926L56.5398 31.0987L57.3599 28.6248H57.9767L56.8245 32.0137H56.3094L55.4689 29.5804ZM61.6322 32.0814C61.3746 32.0814 61.1374 32.0363 60.9205 31.9459C60.7036 31.8555 60.5161 31.7313 60.3579 31.5731C60.1998 31.4104 60.0755 31.2229 59.9852 31.0106C59.8993 30.7937 59.8564 30.5632 59.8564 30.3192C59.8564 30.0752 59.8993 29.847 59.9852 29.6347C60.0755 29.4178 60.1998 29.2303 60.3579 29.0721C60.5161 28.9094 60.7036 28.7829 60.9205 28.6926C61.1374 28.6022 61.3746 28.557 61.6322 28.557C61.9846 28.557 62.2964 28.6406 62.5675 28.8078C62.8386 28.975 63.0487 29.1941 63.1978 29.4652L62.6895 29.7499C62.5946 29.5556 62.4545 29.3997 62.2693 29.2822C62.0885 29.1602 61.8762 29.0992 61.6322 29.0992C61.4559 29.0992 61.2955 29.1309 61.1509 29.1941C61.0064 29.2574 60.8798 29.3455 60.7714 29.4584C60.6675 29.5669 60.5861 29.6957 60.5274 29.8448C60.4732 29.9939 60.4461 30.152 60.4461 30.3192C60.4461 30.4909 60.4732 30.6513 60.5274 30.8004C60.5861 30.945 60.6675 31.0738 60.7714 31.1868C60.8798 31.2952 61.0064 31.3811 61.1509 31.4443C61.2955 31.5076 61.4559 31.5392 61.6322 31.5392C61.8762 31.5392 62.0885 31.4805 62.2693 31.363C62.4545 31.241 62.5946 31.0829 62.6895 30.8886L63.1978 31.1732C63.0487 31.4443 62.8386 31.6635 62.5675 31.8307C62.2964 31.9979 61.9846 32.0814 61.6322 32.0814ZM65.3493 32.0814C65.1098 32.0814 64.8884 32.0363 64.6851 31.9459C64.4863 31.851 64.3123 31.7245 64.1632 31.5663C64.0141 31.4037 63.8966 31.2162 63.8107 31.0038C63.7294 30.7914 63.6887 30.5632 63.6887 30.3192C63.6887 30.0752 63.7294 29.847 63.8107 29.6347C63.8966 29.4223 64.0141 29.237 64.1632 29.0789C64.3123 28.9162 64.4863 28.7897 64.6851 28.6993C64.8884 28.6044 65.1098 28.557 65.3493 28.557C65.6069 28.557 65.8418 28.6157 66.0542 28.7332C66.2666 28.8462 66.4292 28.984 66.5422 29.1467V28.6248H67.1251V32.0137H66.5422V31.4918C66.4292 31.6544 66.2666 31.7945 66.0542 31.912C65.8418 32.025 65.6069 32.0814 65.3493 32.0814ZM65.4374 31.546C65.6091 31.546 65.765 31.5144 65.9051 31.4511C66.0452 31.3879 66.1649 31.302 66.2643 31.1936C66.3682 31.0806 66.4473 30.9496 66.5015 30.8004C66.5603 30.6513 66.5896 30.4909 66.5896 30.3192C66.5896 30.1475 66.5603 29.9871 66.5015 29.838C66.4473 29.6889 66.3682 29.5601 66.2643 29.4517C66.1649 29.3387 66.0452 29.2506 65.9051 29.1873C65.765 29.1241 65.6091 29.0924 65.4374 29.0924C65.2657 29.0924 65.1076 29.1241 64.963 29.1873C64.8229 29.2506 64.7009 29.3387 64.597 29.4517C64.4976 29.5601 64.4185 29.6889 64.3597 29.838C64.3055 29.9871 64.2784 30.1475 64.2784 30.3192C64.2784 30.4909 64.3055 30.6513 64.3597 30.8004C64.4185 30.9496 64.4976 31.0806 64.597 31.1936C64.7009 31.302 64.8229 31.3879 64.963 31.4511C65.1076 31.5144 65.2657 31.546 65.4374 31.546ZM68.2223 28.6248H68.8052V29.1467C68.9227 28.9433 69.0763 28.7942 69.2661 28.6993C69.4558 28.6044 69.6614 28.557 69.8828 28.557C70.0726 28.557 70.2466 28.5886 70.4047 28.6519C70.5629 28.7152 70.6962 28.8078 70.8046 28.9298C70.9176 29.0473 71.0057 29.1919 71.069 29.3636C71.1322 29.5307 71.1638 29.7183 71.1638 29.9261V32.0137H70.5877V30.0142C70.5877 29.7296 70.5132 29.5059 70.3641 29.3432C70.2195 29.176 70.0274 29.0924 69.788 29.0924C69.6524 29.0924 69.5236 29.1196 69.4016 29.1738C69.2841 29.228 69.1802 29.3093 69.0898 29.4178C69.004 29.5217 68.934 29.6505 68.8797 29.8041C68.83 29.9577 68.8052 30.134 68.8052 30.3328V32.0137H68.2223V28.6248ZM75.7626 29.5804L74.9289 32.0137H74.4138L73.2616 28.6248H73.8716L74.6917 31.0987L75.5389 28.6248H75.9862L76.8335 31.0987L77.6536 28.6248H78.2703L77.1181 32.0137H76.603L75.7626 29.5804ZM80.3765 32.0814C80.1144 32.0814 79.8749 32.0363 79.658 31.9459C79.4412 31.8555 79.2559 31.7313 79.1023 31.5731C78.9486 31.415 78.8289 31.2297 78.743 31.0173C78.6617 30.8004 78.621 30.5677 78.621 30.3192C78.621 30.0707 78.664 29.8403 78.7498 29.6279C78.8357 29.411 78.9554 29.2235 79.109 29.0653C79.2672 28.9072 79.4547 28.7829 79.6716 28.6926C79.8885 28.6022 80.1257 28.557 80.3833 28.557C80.6047 28.557 80.8125 28.5954 81.0068 28.6722C81.2011 28.7445 81.3706 28.8552 81.5152 29.0043C81.6643 29.1489 81.7817 29.3274 81.8676 29.5398C81.9534 29.7476 81.9964 29.9871 81.9964 30.2582C81.9964 30.2899 81.9964 30.3192 81.9964 30.3463C81.9964 30.3689 81.9941 30.3983 81.9896 30.4344H79.2107C79.2152 30.5926 79.2469 30.7394 79.3056 30.875C79.3689 31.0106 79.4502 31.128 79.5496 31.2274C79.6535 31.3269 79.7755 31.4059 79.9156 31.4647C80.0602 31.5189 80.2161 31.546 80.3833 31.546C80.6453 31.546 80.86 31.494 81.0272 31.3901C81.1989 31.2817 81.3367 31.1371 81.4406 30.9563L81.9015 31.2749C81.7479 31.5234 81.5423 31.72 81.2847 31.8646C81.0317 32.0092 80.7289 32.0814 80.3765 32.0814ZM81.3999 29.96C81.3773 29.8199 81.3344 29.6957 81.2712 29.5872C81.2124 29.4788 81.1356 29.3862 81.0407 29.3093C80.9503 29.2325 80.8464 29.1738 80.7289 29.1331C80.6114 29.0924 80.4894 29.0721 80.3629 29.0721C80.2364 29.0721 80.1122 29.0924 79.9902 29.1331C79.8682 29.1738 79.7574 29.2325 79.658 29.3093C79.5586 29.3816 79.4728 29.4743 79.4005 29.5872C79.3282 29.6957 79.2785 29.8199 79.2514 29.96H81.3999ZM84.4585 32.0137V26.9303H85.0414V29.1467C85.1589 28.9433 85.3125 28.7942 85.5023 28.6993C85.6921 28.6044 85.8977 28.557 86.1191 28.557C86.3088 28.557 86.4828 28.5886 86.6409 28.6519C86.7991 28.7152 86.9324 28.8078 87.0408 28.9298C87.1538 29.0473 87.2419 29.1919 87.3052 29.3636C87.3684 29.5307 87.4001 29.7183 87.4001 29.9261V32.0137H86.8239V30.0142C86.8239 29.7296 86.7494 29.5059 86.6003 29.3432C86.4557 29.176 86.2637 29.0924 86.0242 29.0924C85.8886 29.0924 85.7598 29.1196 85.6378 29.1738C85.5204 29.228 85.4164 29.3093 85.3261 29.4178C85.2402 29.5217 85.1702 29.6505 85.1159 29.8041C85.0662 29.9577 85.0414 30.134 85.0414 30.3328V32.0137H84.4585ZM89.9408 32.0814C89.6788 32.0814 89.4393 32.0363 89.2224 31.9459C89.0055 31.8555 88.8202 31.7313 88.6666 31.5731C88.513 31.415 88.3932 31.2297 88.3074 31.0173C88.226 30.8004 88.1854 30.5677 88.1854 30.3192C88.1854 30.0707 88.2283 29.8403 88.3142 29.6279C88.4 29.411 88.5198 29.2235 88.6734 29.0653C88.8315 28.9072 89.019 28.7829 89.2359 28.6926C89.4528 28.6022 89.69 28.557 89.9476 28.557C90.169 28.557 90.3769 28.5954 90.5712 28.6722C90.7655 28.7445 90.9349 28.8552 91.0795 29.0043C91.2286 29.1489 91.3461 29.3274 91.4319 29.5398C91.5178 29.7476 91.5607 29.9871 91.5607 30.2582C91.5607 30.2899 91.5607 30.3192 91.5607 30.3463C91.5607 30.3689 91.5585 30.3983 91.5539 30.4344H88.775C88.7796 30.5926 88.8112 30.7394 88.8699 30.875C88.9332 31.0106 89.0145 31.128 89.1139 31.2274C89.2179 31.3269 89.3399 31.4059 89.4799 31.4647C89.6245 31.5189 89.7804 31.546 89.9476 31.546C90.2097 31.546 90.4243 31.494 90.5915 31.3901C90.7632 31.2817 90.901 31.1371 91.0049 30.9563L91.4658 31.2749C91.3122 31.5234 91.1066 31.72 90.849 31.8646C90.596 32.0092 90.2933 32.0814 89.9408 32.0814ZM90.9643 29.96C90.9417 29.8199 90.8988 29.6957 90.8355 29.5872C90.7768 29.4788 90.6999 29.3862 90.605 29.3093C90.5147 29.2325 90.4108 29.1738 90.2933 29.1331C90.1758 29.0924 90.0538 29.0721 89.9273 29.0721C89.8008 29.0721 89.6765 29.0924 89.5545 29.1331C89.4325 29.1738 89.3218 29.2325 89.2224 29.3093C89.123 29.3816 89.0371 29.4743 88.9648 29.5872C88.8925 29.6957 88.8428 29.8199 88.8157 29.96H90.9643ZM92.388 26.9303H92.9709V32.0137H92.388V26.9303ZM94.0758 33.4302V28.6248H94.6587V29.1467C94.7717 28.984 94.9343 28.8462 95.1467 28.7332C95.3591 28.6157 95.594 28.557 95.8516 28.557C96.0865 28.557 96.3057 28.6044 96.509 28.6993C96.7124 28.7897 96.8886 28.9162 97.0377 29.0789C97.1868 29.237 97.302 29.4223 97.3834 29.6347C97.4692 29.847 97.5121 30.0752 97.5121 30.3192C97.5121 30.5632 97.4692 30.7914 97.3834 31.0038C97.302 31.2162 97.1868 31.4037 97.0377 31.5663C96.8886 31.7245 96.7124 31.851 96.509 31.9459C96.3057 32.0363 96.0865 32.0814 95.8516 32.0814C95.594 32.0814 95.3591 32.025 95.1467 31.912C94.9343 31.7945 94.7717 31.6544 94.6587 31.4918V33.4302H94.0758ZM95.7635 31.546C95.9352 31.546 96.0911 31.5144 96.2311 31.4511C96.3712 31.3879 96.491 31.302 96.5904 31.1936C96.6943 31.0806 96.7734 30.9496 96.8276 30.8004C96.8863 30.6513 96.9157 30.4909 96.9157 30.3192C96.9157 30.1475 96.8863 29.9871 96.8276 29.838C96.7734 29.6889 96.6943 29.5601 96.5904 29.4517C96.491 29.3387 96.3712 29.2506 96.2311 29.1873C96.0911 29.1241 95.9352 29.0924 95.7635 29.0924C95.5918 29.0924 95.4359 29.1241 95.2958 29.1873C95.1557 29.2506 95.0337 29.3387 94.9298 29.4517C94.8304 29.5601 94.7513 29.6889 94.6926 29.838C94.6384 29.9871 94.6112 30.1475 94.6112 30.3192C94.6112 30.4909 94.6384 30.6513 94.6926 30.8004C94.7513 30.9496 94.8304 31.0806 94.9298 31.1936C95.0337 31.302 95.1557 31.3879 95.2958 31.4511C95.4359 31.5144 95.5918 31.546 95.7635 31.546ZM100.078 33.4302L100.817 31.8374L99.3329 28.6248H99.9768L101.143 31.2003L102.302 28.6248H102.952L100.729 33.4302H100.078ZM104.966 32.0814C104.709 32.0814 104.471 32.0363 104.254 31.9459C104.038 31.851 103.85 31.7245 103.692 31.5663C103.534 31.4082 103.409 31.2229 103.319 31.0106C103.233 30.7937 103.19 30.5632 103.19 30.3192C103.19 30.0752 103.233 29.847 103.319 29.6347C103.409 29.4178 103.534 29.2303 103.692 29.0721C103.85 28.914 104.038 28.7897 104.254 28.6993C104.471 28.6044 104.709 28.557 104.966 28.557C105.219 28.557 105.454 28.6044 105.671 28.6993C105.888 28.7897 106.075 28.914 106.234 29.0721C106.392 29.2303 106.514 29.4178 106.6 29.6347C106.69 29.847 106.735 30.0752 106.735 30.3192C106.735 30.5632 106.69 30.7937 106.6 31.0106C106.514 31.2229 106.392 31.4082 106.234 31.5663C106.075 31.7245 105.888 31.851 105.671 31.9459C105.454 32.0363 105.219 32.0814 104.966 32.0814ZM104.966 31.5392C105.142 31.5392 105.303 31.5076 105.447 31.4443C105.592 31.3811 105.714 31.2952 105.813 31.1868C105.917 31.0738 105.996 30.945 106.051 30.8004C106.109 30.6513 106.139 30.4909 106.139 30.3192C106.139 30.152 106.109 29.9939 106.051 29.8448C105.996 29.6957 105.917 29.5669 105.813 29.4584C105.714 29.3455 105.592 29.2574 105.447 29.1941C105.303 29.1309 105.142 29.0992 104.966 29.0992C104.79 29.0992 104.629 29.1309 104.485 29.1941C104.34 29.2574 104.216 29.3455 104.112 29.4584C104.008 29.5669 103.927 29.6957 103.868 29.8448C103.814 29.9939 103.787 30.152 103.787 30.3192C103.787 30.4909 103.814 30.6513 103.868 30.8004C103.927 30.945 104.008 31.0738 104.112 31.1868C104.216 31.2952 104.34 31.3811 104.485 31.4443C104.629 31.5076 104.79 31.5392 104.966 31.5392ZM108.771 32.0814C108.586 32.0814 108.417 32.0498 108.263 31.9866C108.109 31.9188 107.978 31.8262 107.87 31.7087C107.762 31.5912 107.676 31.4489 107.612 31.2817C107.554 31.11 107.524 30.9179 107.524 30.7056V28.6248H108.107V30.6174C108.107 30.9021 108.175 31.128 108.311 31.2952C108.451 31.4624 108.638 31.546 108.873 31.546C109.004 31.546 109.126 31.5189 109.239 31.4647C109.357 31.4059 109.456 31.3246 109.537 31.2207C109.623 31.1122 109.691 30.9812 109.741 30.8276C109.79 30.6739 109.815 30.5 109.815 30.3057V28.6248H110.398V32.0137H109.815V31.4918C109.702 31.6906 109.553 31.8397 109.368 31.9391C109.187 32.034 108.988 32.0814 108.771 32.0814ZM114.334 32.0476C114.185 32.0476 114.047 32.0272 113.921 31.9866C113.794 31.9414 113.683 31.8781 113.588 31.7968C113.498 31.7109 113.426 31.6025 113.372 31.4714C113.322 31.3404 113.297 31.1868 113.297 31.0106V29.1602H112.579V28.6248H113.297V27.6827H113.88V28.6248H114.856V29.1602H113.88V30.936C113.88 31.1529 113.927 31.3043 114.022 31.3901C114.117 31.4714 114.257 31.5121 114.442 31.5121C114.515 31.5121 114.587 31.5076 114.659 31.4986C114.736 31.485 114.802 31.4669 114.856 31.4443V31.9662C114.784 31.9888 114.705 32.0069 114.619 32.0204C114.533 32.0385 114.438 32.0476 114.334 32.0476ZM117.059 32.0814C116.801 32.0814 116.564 32.0363 116.347 31.9459C116.13 31.851 115.943 31.7245 115.785 31.5663C115.627 31.4082 115.502 31.2229 115.412 31.0106C115.326 30.7937 115.283 30.5632 115.283 30.3192C115.283 30.0752 115.326 29.847 115.412 29.6347C115.502 29.4178 115.627 29.2303 115.785 29.0721C115.943 28.914 116.13 28.7897 116.347 28.6993C116.564 28.6044 116.801 28.557 117.059 28.557C117.312 28.557 117.547 28.6044 117.764 28.6993C117.981 28.7897 118.168 28.914 118.326 29.0721C118.484 29.2303 118.606 29.4178 118.692 29.6347C118.783 29.847 118.828 30.0752 118.828 30.3192C118.828 30.5632 118.783 30.7937 118.692 31.0106C118.606 31.2229 118.484 31.4082 118.326 31.5663C118.168 31.7245 117.981 31.851 117.764 31.9459C117.547 32.0363 117.312 32.0814 117.059 32.0814ZM117.059 31.5392C117.235 31.5392 117.396 31.5076 117.54 31.4443C117.685 31.3811 117.807 31.2952 117.906 31.1868C118.01 31.0738 118.089 30.945 118.143 30.8004C118.202 30.6513 118.231 30.4909 118.231 30.3192C118.231 30.152 118.202 29.9939 118.143 29.8448C118.089 29.6957 118.01 29.5669 117.906 29.4584C117.807 29.3455 117.685 29.2574 117.54 29.1941C117.396 29.1309 117.235 29.0992 117.059 29.0992C116.883 29.0992 116.722 29.1309 116.578 29.1941C116.433 29.2574 116.309 29.3455 116.205 29.4584C116.101 29.5669 116.02 29.6957 115.961 29.8448C115.907 29.9939 115.88 30.152 115.88 30.3192C115.88 30.4909 115.907 30.6513 115.961 30.8004C116.02 30.945 116.101 31.0738 116.205 31.1868C116.309 31.2952 116.433 31.3811 116.578 31.4443C116.722 31.5076 116.883 31.5392 117.059 31.5392ZM121.061 32.0814C120.821 32.0814 120.6 32.0363 120.397 31.9459C120.198 31.851 120.024 31.7245 119.875 31.5663C119.726 31.4037 119.608 31.2162 119.522 31.0038C119.441 30.7914 119.4 30.5632 119.4 30.3192C119.4 30.0752 119.441 29.847 119.522 29.6347C119.608 29.4223 119.726 29.237 119.875 29.0789C120.024 28.9162 120.198 28.7897 120.397 28.6993C120.6 28.6044 120.821 28.557 121.061 28.557C121.318 28.557 121.553 28.6157 121.766 28.7332C121.978 28.8462 122.141 28.984 122.254 29.1467V26.9303H122.837V32.0137H122.254V31.4918C122.141 31.6544 121.978 31.7945 121.766 31.912C121.553 32.025 121.318 32.0814 121.061 32.0814ZM121.149 31.546C121.321 31.546 121.476 31.5144 121.617 31.4511C121.757 31.3879 121.876 31.302 121.976 31.1936C122.08 31.0806 122.159 30.9496 122.213 30.8004C122.272 30.6513 122.301 30.4909 122.301 30.3192C122.301 30.1475 122.272 29.9871 122.213 29.838C122.159 29.6889 122.08 29.5601 121.976 29.4517C121.876 29.3387 121.757 29.2506 121.617 29.1873C121.476 29.1241 121.321 29.0924 121.149 29.0924C120.977 29.0924 120.819 29.1241 120.674 29.1873C120.534 29.2506 120.412 29.3387 120.308 29.4517C120.209 29.5601 120.13 29.6889 120.071 29.838C120.017 29.9871 119.99 30.1475 119.99 30.3192C119.99 30.4909 120.017 30.6513 120.071 30.8004C120.13 30.9496 120.209 31.0806 120.308 31.1936C120.412 31.302 120.534 31.3879 120.674 31.4511C120.819 31.5144 120.977 31.546 121.149 31.546ZM125.33 32.0814C125.091 32.0814 124.869 32.0363 124.666 31.9459C124.467 31.851 124.293 31.7245 124.144 31.5663C123.995 31.4037 123.877 31.2162 123.791 31.0038C123.71 30.7914 123.669 30.5632 123.669 30.3192C123.669 30.0752 123.71 29.847 123.791 29.6347C123.877 29.4223 123.995 29.237 124.144 29.0789C124.293 28.9162 124.467 28.7897 124.666 28.6993C124.869 28.6044 125.091 28.557 125.33 28.557C125.588 28.557 125.823 28.6157 126.035 28.7332C126.247 28.8462 126.41 28.984 126.523 29.1467V28.6248H127.106V32.0137H126.523V31.4918C126.41 31.6544 126.247 31.7945 126.035 31.912C125.823 32.025 125.588 32.0814 125.33 32.0814ZM125.418 31.546C125.59 31.546 125.746 31.5144 125.886 31.4511C126.026 31.3879 126.146 31.302 126.245 31.1936C126.349 31.0806 126.428 30.9496 126.482 30.8004C126.541 30.6513 126.57 30.4909 126.57 30.3192C126.57 30.1475 126.541 29.9871 126.482 29.838C126.428 29.6889 126.349 29.5601 126.245 29.4517C126.146 29.3387 126.026 29.2506 125.886 29.1873C125.746 29.1241 125.59 29.0924 125.418 29.0924C125.246 29.0924 125.088 29.1241 124.944 29.1873C124.804 29.2506 124.682 29.3387 124.578 29.4517C124.478 29.5601 124.399 29.6889 124.34 29.838C124.286 29.9871 124.259 30.1475 124.259 30.3192C124.259 30.4909 124.286 30.6513 124.34 30.8004C124.399 30.9496 124.478 31.0806 124.578 31.1936C124.682 31.302 124.804 31.3879 124.944 31.4511C125.088 31.5144 125.246 31.546 125.418 31.546ZM128.454 33.4302L129.193 31.8374L127.708 28.6248H128.352L129.518 31.2003L130.677 28.6248H131.328L129.104 33.4302H128.454ZM132.814 30.2786C132.814 30.1882 132.832 30.1023 132.868 30.021C132.909 29.9352 132.958 29.8538 133.017 29.777C133.08 29.7002 133.148 29.6302 133.22 29.5669C133.293 29.5036 133.363 29.4472 133.431 29.3974C133.525 29.3297 133.611 29.2642 133.688 29.2009C133.765 29.1376 133.83 29.0721 133.885 29.0043C133.939 28.9366 133.982 28.8643 134.013 28.7874C134.045 28.7106 134.061 28.6203 134.061 28.5163C134.061 28.3989 134.041 28.2904 134 28.191C133.959 28.0916 133.903 28.0057 133.83 27.9334C133.763 27.8566 133.679 27.7979 133.58 27.7572C133.48 27.712 133.37 27.6894 133.248 27.6894C132.981 27.6894 132.762 27.773 132.59 27.9402C132.418 28.1029 132.333 28.3198 132.333 28.5909H131.75C131.75 28.3876 131.786 28.1978 131.858 28.0216C131.935 27.8408 132.039 27.6849 132.17 27.5539C132.305 27.4183 132.464 27.3122 132.644 27.2353C132.83 27.1585 133.031 27.1201 133.248 27.1201C133.46 27.1201 133.652 27.1585 133.824 27.2353C133.995 27.3076 134.142 27.4093 134.264 27.5403C134.386 27.6669 134.479 27.8137 134.542 27.9809C134.61 28.1481 134.644 28.322 134.644 28.5028C134.644 28.6564 134.621 28.7942 134.576 28.9162C134.535 29.0382 134.479 29.1489 134.407 29.2483C134.339 29.3477 134.262 29.4359 134.176 29.5127C134.095 29.5895 134.013 29.6595 133.932 29.7228C133.869 29.7725 133.806 29.8222 133.742 29.8719C133.679 29.9171 133.62 29.9668 133.566 30.021C133.516 30.0707 133.476 30.1249 133.444 30.1837C133.413 30.2379 133.397 30.2966 133.397 30.3599V30.4141H132.814V30.2786ZM133.098 32.0679C132.958 32.0679 132.839 32.0182 132.739 31.9188C132.644 31.8194 132.597 31.6996 132.597 31.5596C132.597 31.424 132.644 31.3065 132.739 31.2071C132.839 31.1032 132.958 31.0512 133.098 31.0512C133.239 31.0512 133.356 31.1032 133.451 31.2071C133.55 31.3065 133.6 31.424 133.6 31.5596C133.6 31.6996 133.55 31.8194 133.451 31.9188C133.356 32.0182 133.239 32.0679 133.098 32.0679Z" fill="black"/>
<path d="M74.8535 49.0762H163.812V55.5996C163.812 60.6917 163.811 64.4768 163.49 67.4355C163.171 70.3864 162.537 72.4657 161.304 74.1631C160.494 75.2778 159.513 76.2584 158.398 77.0684C156.701 78.3015 154.623 78.9352 151.672 79.2549C148.713 79.5754 144.927 79.5762 139.835 79.5762H74.8535C72.8738 79.5762 71.9221 79.5755 71.1279 79.4775C65.1497 78.7402 60.4396 74.0299 59.7021 68.0518C59.6042 67.2576 59.6035 66.3059 59.6035 64.3262C59.6035 62.3465 59.6042 61.3948 59.7021 60.6006C60.4395 54.6223 65.1497 49.9122 71.1279 49.1748C71.9221 49.0769 72.8738 49.0762 74.8535 49.0762Z" fill="#9364ED"/>
<path d="M74.8535 49.0762H163.812V55.5996C163.812 60.6917 163.811 64.4768 163.49 67.4355C163.171 70.3864 162.537 72.4657 161.304 74.1631C160.494 75.2778 159.513 76.2584 158.398 77.0684C156.701 78.3015 154.623 78.9352 151.672 79.2549C148.713 79.5754 144.927 79.5762 139.835 79.5762H74.8535C72.8738 79.5762 71.9221 79.5755 71.1279 79.4775C65.1497 78.7402 60.4396 74.0299 59.7021 68.0518C59.6042 67.2576 59.6035 66.3059 59.6035 64.3262C59.6035 62.3465 59.6042 61.3948 59.7021 60.6006C60.4395 54.6223 65.1497 49.9122 71.1279 49.1748C71.9221 49.0769 72.8738 49.0762 74.8535 49.0762Z" stroke="#A97DFF" stroke-width="0.847222"/>
<path d="M69.9203 57.5901H72.7195V58.1866H70.5506V59.6438H72.2654V60.2402H70.5506V62.4023H69.9203V57.5901ZM73.7245 58.1052C73.607 58.1052 73.5076 58.0668 73.4263 57.99C73.3449 57.9087 73.3043 57.8093 73.3043 57.6918C73.3043 57.5788 73.3449 57.4817 73.4263 57.4003C73.5076 57.319 73.607 57.2783 73.7245 57.2783C73.842 57.2783 73.9391 57.319 74.0159 57.4003C74.0928 57.4817 74.1312 57.5788 74.1312 57.6918C74.1312 57.8093 74.0928 57.9087 74.0159 57.99C73.9391 58.0668 73.842 58.1052 73.7245 58.1052ZM73.4263 59.0135H74.0092V62.4023H73.4263V59.0135ZM75.1141 59.0135H75.697V59.5353C75.8145 59.332 75.9681 59.1829 76.1579 59.088C76.3477 58.9931 76.5533 58.9457 76.7747 58.9457C76.9644 58.9457 77.1384 58.9773 77.2965 59.0406C77.4547 59.1038 77.588 59.1965 77.6964 59.3185C77.8094 59.4359 77.8975 59.5805 77.9608 59.7522C78.024 59.9194 78.0557 60.1069 78.0557 60.3148V62.4023H77.4795V60.4029C77.4795 60.1182 77.405 59.8946 77.2559 59.7319C77.1113 59.5647 76.9193 59.4811 76.6798 59.4811C76.5442 59.4811 76.4154 59.5082 76.2934 59.5625C76.176 59.6167 76.072 59.698 75.9817 59.8065C75.8958 59.9104 75.8258 60.0392 75.7715 60.1928C75.7218 60.3464 75.697 60.5226 75.697 60.7215V62.4023H75.1141V59.0135ZM80.5015 62.4701C80.2621 62.4701 80.0406 62.4249 79.8373 62.3346C79.6385 62.2397 79.4645 62.1132 79.3154 61.955C79.1663 61.7923 79.0488 61.6048 78.963 61.3925C78.8816 61.1801 78.841 60.9519 78.841 60.7079C78.841 60.4639 78.8816 60.2357 78.963 60.0233C79.0488 59.811 79.1663 59.6257 79.3154 59.4676C79.4645 59.3049 79.6385 59.1784 79.8373 59.088C80.0406 58.9931 80.2621 58.9457 80.5015 58.9457C80.7591 58.9457 80.9941 59.0044 81.2064 59.1219C81.4188 59.2349 81.5815 59.3727 81.6944 59.5353V57.319H82.2773V62.4023H81.6944V61.8805C81.5815 62.0431 81.4188 62.1832 81.2064 62.3007C80.9941 62.4136 80.7591 62.4701 80.5015 62.4701ZM80.5896 61.9347C80.7614 61.9347 80.9172 61.903 81.0573 61.8398C81.1974 61.7765 81.3171 61.6907 81.4165 61.5822C81.5205 61.4693 81.5995 61.3382 81.6538 61.1891C81.7125 61.04 81.7419 60.8796 81.7419 60.7079C81.7419 60.5362 81.7125 60.3758 81.6538 60.2267C81.5995 60.0776 81.5205 59.9488 81.4165 59.8403C81.3171 59.7274 81.1974 59.6393 81.0573 59.576C80.9172 59.5128 80.7614 59.4811 80.5896 59.4811C80.4179 59.4811 80.2598 59.5128 80.1152 59.576C79.9751 59.6393 79.8531 59.7274 79.7492 59.8403C79.6498 59.9488 79.5707 60.0776 79.512 60.2267C79.4578 60.3758 79.4306 60.5362 79.4306 60.7079C79.4306 60.8796 79.4578 61.04 79.512 61.1891C79.5707 61.3382 79.6498 61.4693 79.7492 61.5822C79.8531 61.6907 79.9751 61.7765 80.1152 61.8398C80.2598 61.903 80.4179 61.9347 80.5896 61.9347ZM86.2118 62.4362C86.0627 62.4362 85.9248 62.4159 85.7983 62.3752C85.6718 62.33 85.5611 62.2668 85.4662 62.1855C85.3758 62.0996 85.3035 61.9912 85.2493 61.8601C85.1996 61.7291 85.1748 61.5755 85.1748 61.3992V59.5489H84.4563V59.0135H85.1748V58.0713H85.7577V59.0135H86.7337V59.5489H85.7577V61.3247C85.7577 61.5416 85.8051 61.6929 85.9 61.7788C85.9949 61.8601 86.1349 61.9008 86.3202 61.9008C86.3925 61.9008 86.4648 61.8963 86.5371 61.8872C86.6139 61.8737 86.6794 61.8556 86.7337 61.833V62.3549C86.6614 62.3775 86.5823 62.3956 86.4964 62.4091C86.4106 62.4272 86.3157 62.4362 86.2118 62.4362ZM87.4783 62.4023V57.319H88.0611V59.5353C88.1786 59.332 88.3323 59.1829 88.522 59.088C88.7118 58.9931 88.9174 58.9457 89.1388 58.9457C89.3286 58.9457 89.5025 58.9773 89.6607 59.0406C89.8188 59.1038 89.9521 59.1965 90.0606 59.3185C90.1735 59.4359 90.2617 59.5805 90.3249 59.7522C90.3882 59.9194 90.4198 60.1069 90.4198 60.3148V62.4023H89.8437V60.4029C89.8437 60.1182 89.7691 59.8946 89.62 59.7319C89.4754 59.5647 89.2834 59.4811 89.0439 59.4811C88.9084 59.4811 88.7796 59.5082 88.6576 59.5625C88.5401 59.6167 88.4362 59.698 88.3458 59.8065C88.26 59.9104 88.1899 60.0392 88.1357 60.1928C88.086 60.3464 88.0611 60.5226 88.0611 60.7215V62.4023H87.4783ZM92.9606 62.4701C92.6985 62.4701 92.459 62.4249 92.2421 62.3346C92.0252 62.2442 91.84 62.1199 91.6864 61.9618C91.5327 61.8036 91.413 61.6184 91.3271 61.406C91.2458 61.1891 91.2051 60.9564 91.2051 60.7079C91.2051 60.4594 91.2481 60.2289 91.3339 60.0166C91.4198 59.7997 91.5395 59.6122 91.6931 59.454C91.8513 59.2959 92.0388 59.1716 92.2557 59.0812C92.4726 58.9909 92.7098 58.9457 92.9674 58.9457C93.1888 58.9457 93.3966 58.9841 93.5909 59.0609C93.7852 59.1332 93.9546 59.2439 94.0992 59.393C94.2484 59.5376 94.3658 59.7161 94.4517 59.9285C94.5375 60.1363 94.5805 60.3758 94.5805 60.6469C94.5805 60.6785 94.5805 60.7079 94.5805 60.735C94.5805 60.7576 94.5782 60.787 94.5737 60.8231H91.7948C91.7993 60.9813 91.8309 61.1281 91.8897 61.2637C91.9529 61.3992 92.0343 61.5167 92.1337 61.6161C92.2376 61.7155 92.3596 61.7946 92.4997 61.8533C92.6443 61.9076 92.8002 61.9347 92.9674 61.9347C93.2294 61.9347 93.4441 61.8827 93.6112 61.7788C93.7829 61.6703 93.9208 61.5258 94.0247 61.345L94.4856 61.6636C94.3319 61.9121 94.1264 62.1086 93.8688 62.2532C93.6158 62.3978 93.313 62.4701 92.9606 62.4701ZM93.984 60.3487C93.9614 60.2086 93.9185 60.0843 93.8552 59.9759C93.7965 59.8675 93.7197 59.7748 93.6248 59.698C93.5344 59.6212 93.4305 59.5625 93.313 59.5218C93.1955 59.4811 93.0735 59.4608 92.947 59.4608C92.8205 59.4608 92.6962 59.4811 92.5742 59.5218C92.4522 59.5625 92.3415 59.6212 92.2421 59.698C92.1427 59.7703 92.0569 59.8629 91.9846 59.9759C91.9123 60.0843 91.8626 60.2086 91.8355 60.3487H93.984ZM97.0426 59.0135H97.6255V59.5353C97.743 59.332 97.8966 59.1829 98.0864 59.088C98.2762 58.9931 98.4817 58.9457 98.7032 58.9457C98.8929 58.9457 99.0669 58.9773 99.225 59.0406C99.3832 59.1038 99.5165 59.1965 99.6249 59.3185C99.7379 59.4359 99.826 59.5805 99.8893 59.7522C99.9525 59.9194 99.9842 60.1069 99.9842 60.3148V62.4023H99.408V60.4029C99.408 60.1182 99.3335 59.8946 99.1844 59.7319C99.0398 59.5647 98.8477 59.4811 98.6083 59.4811C98.4727 59.4811 98.3439 59.5082 98.2219 59.5625C98.1044 59.6167 98.0005 59.698 97.9102 59.8065C97.8243 59.9104 97.7543 60.0392 97.7 60.1928C97.6503 60.3464 97.6255 60.5226 97.6255 60.7215V62.4023H97.0426V59.0135ZM102.525 62.4701C102.263 62.4701 102.023 62.4249 101.806 62.3346C101.59 62.2442 101.404 62.1199 101.251 61.9618C101.097 61.8036 100.977 61.6184 100.891 61.406C100.81 61.1891 100.769 60.9564 100.769 60.7079C100.769 60.4594 100.812 60.2289 100.898 60.0166C100.984 59.7997 101.104 59.6122 101.257 59.454C101.416 59.2959 101.603 59.1716 101.82 59.0812C102.037 58.9909 102.274 58.9457 102.532 58.9457C102.753 58.9457 102.961 58.9841 103.155 59.0609C103.35 59.1332 103.519 59.2439 103.664 59.393C103.813 59.5376 103.93 59.7161 104.016 59.9285C104.102 60.1363 104.145 60.3758 104.145 60.6469C104.145 60.6785 104.145 60.7079 104.145 60.735C104.145 60.7576 104.143 60.787 104.138 60.8231H101.359C101.364 60.9813 101.395 61.1281 101.454 61.2637C101.517 61.3992 101.599 61.5167 101.698 61.6161C101.802 61.7155 101.924 61.7946 102.064 61.8533C102.209 61.9076 102.365 61.9347 102.532 61.9347C102.794 61.9347 103.008 61.8827 103.176 61.7788C103.347 61.6703 103.485 61.5258 103.589 61.345L104.05 61.6636C103.896 61.9121 103.691 62.1086 103.433 62.2532C103.18 62.3978 102.877 62.4701 102.525 62.4701ZM103.548 60.3487C103.526 60.2086 103.483 60.0843 103.42 59.9759C103.361 59.8675 103.284 59.7748 103.189 59.698C103.099 59.6212 102.995 59.5625 102.877 59.5218C102.76 59.4811 102.638 59.4608 102.511 59.4608C102.385 59.4608 102.261 59.4811 102.139 59.5218C102.017 59.5625 101.906 59.6212 101.806 59.698C101.707 59.7703 101.621 59.8629 101.549 59.9759C101.477 60.0843 101.427 60.2086 101.4 60.3487H103.548ZM106.241 62.4362C106.092 62.4362 105.954 62.4159 105.827 62.3752C105.701 62.33 105.59 62.2668 105.495 62.1855C105.405 62.0996 105.332 61.9912 105.278 61.8601C105.228 61.7291 105.204 61.5755 105.204 61.3992V59.5489H104.485V59.0135H105.204V58.0713H105.787V59.0135H106.763V59.5489H105.787V61.3247C105.787 61.5416 105.834 61.6929 105.929 61.7788C106.024 61.8601 106.164 61.9008 106.349 61.9008C106.421 61.9008 106.494 61.8963 106.566 61.8872C106.643 61.8737 106.708 61.8556 106.763 61.833V62.3549C106.69 62.3775 106.611 62.3956 106.525 62.4091C106.439 62.4272 106.345 62.4362 106.241 62.4362ZM109.54 59.9691L108.707 62.4023H108.192L107.039 59.0135H107.649L108.47 61.4873L109.317 59.0135H109.764L110.611 61.4873L111.431 59.0135H112.048L110.896 62.4023H110.381L109.54 59.9691ZM114.168 62.4701C113.91 62.4701 113.673 62.4249 113.456 62.3346C113.239 62.2397 113.052 62.1132 112.894 61.955C112.736 61.7969 112.611 61.6116 112.521 61.3992C112.435 61.1823 112.392 60.9519 112.392 60.7079C112.392 60.4639 112.435 60.2357 112.521 60.0233C112.611 59.8065 112.736 59.6189 112.894 59.4608C113.052 59.3026 113.239 59.1784 113.456 59.088C113.673 58.9931 113.91 58.9457 114.168 58.9457C114.421 58.9457 114.656 58.9931 114.873 59.088C115.09 59.1784 115.277 59.3026 115.435 59.4608C115.594 59.6189 115.716 59.8065 115.801 60.0233C115.892 60.2357 115.937 60.4639 115.937 60.7079C115.937 60.9519 115.892 61.1823 115.801 61.3992C115.716 61.6116 115.594 61.7969 115.435 61.955C115.277 62.1132 115.09 62.2397 114.873 62.3346C114.656 62.4249 114.421 62.4701 114.168 62.4701ZM114.168 61.9279C114.344 61.9279 114.505 61.8963 114.649 61.833C114.794 61.7698 114.916 61.6839 115.015 61.5755C115.119 61.4625 115.198 61.3337 115.252 61.1891C115.311 61.04 115.34 60.8796 115.34 60.7079C115.34 60.5407 115.311 60.3826 115.252 60.2335C115.198 60.0843 115.119 59.9556 115.015 59.8471C114.916 59.7342 114.794 59.646 114.649 59.5828C114.505 59.5195 114.344 59.4879 114.168 59.4879C113.992 59.4879 113.831 59.5195 113.687 59.5828C113.542 59.646 113.418 59.7342 113.314 59.8471C113.21 59.9556 113.129 60.0843 113.07 60.2335C113.016 60.3826 112.989 60.5407 112.989 60.7079C112.989 60.8796 113.016 61.04 113.07 61.1891C113.129 61.3337 113.21 61.4625 113.314 61.5755C113.418 61.6839 113.542 61.7698 113.687 61.833C113.831 61.8963 113.992 61.9279 114.168 61.9279ZM116.774 59.0135H117.356V59.6709C117.388 59.5625 117.438 59.4653 117.506 59.3795C117.573 59.2936 117.65 59.2213 117.736 59.1626C117.822 59.1038 117.912 59.0586 118.007 59.027C118.107 58.9954 118.206 58.9796 118.305 58.9796C118.396 58.9796 118.484 58.9886 118.57 59.0067V59.6099C118.515 59.5873 118.464 59.5738 118.414 59.5692C118.364 59.5602 118.31 59.5557 118.251 59.5557C118.143 59.5557 118.034 59.5805 117.926 59.6302C117.822 59.6754 117.727 59.7455 117.641 59.8403C117.56 59.9352 117.492 60.0572 117.438 60.2063C117.384 60.3509 117.356 60.5226 117.356 60.7215V62.4023H116.774V59.0135ZM119.839 60.7079V62.4023H119.256V57.319H119.839V60.3351L121.316 59.0135H122.089L120.421 60.5113L122.462 62.4023H121.675L119.839 60.7079ZM124.412 62.4023V57.319H124.995V59.5353C125.112 59.332 125.266 59.1829 125.456 59.088C125.645 58.9931 125.851 58.9457 126.072 58.9457C126.262 58.9457 126.436 58.9773 126.594 59.0406C126.752 59.1038 126.886 59.1965 126.994 59.3185C127.107 59.4359 127.195 59.5805 127.259 59.7522C127.322 59.9194 127.353 60.1069 127.353 60.3148V62.4023H126.777V60.4029C126.777 60.1182 126.703 59.8946 126.554 59.7319C126.409 59.5647 126.217 59.4811 125.978 59.4811C125.842 59.4811 125.713 59.5082 125.591 59.5625C125.474 59.6167 125.37 59.698 125.279 59.8065C125.194 59.9104 125.124 60.0392 125.069 60.1928C125.02 60.3464 124.995 60.5226 124.995 60.7215V62.4023H124.412ZM129.908 62.4701C129.65 62.4701 129.413 62.4249 129.196 62.3346C128.979 62.2397 128.792 62.1132 128.634 61.955C128.475 61.7969 128.351 61.6116 128.261 61.3992C128.175 61.1823 128.132 60.9519 128.132 60.7079C128.132 60.4639 128.175 60.2357 128.261 60.0233C128.351 59.8065 128.475 59.6189 128.634 59.4608C128.792 59.3026 128.979 59.1784 129.196 59.088C129.413 58.9931 129.65 58.9457 129.908 58.9457C130.161 58.9457 130.396 58.9931 130.613 59.088C130.83 59.1784 131.017 59.3026 131.175 59.4608C131.333 59.6189 131.455 59.8065 131.541 60.0233C131.632 60.2357 131.677 60.4639 131.677 60.7079C131.677 60.9519 131.632 61.1823 131.541 61.3992C131.455 61.6116 131.333 61.7969 131.175 61.955C131.017 62.1132 130.83 62.2397 130.613 62.3346C130.396 62.4249 130.161 62.4701 129.908 62.4701ZM129.908 61.9279C130.084 61.9279 130.244 61.8963 130.389 61.833C130.534 61.7698 130.656 61.6839 130.755 61.5755C130.859 61.4625 130.938 61.3337 130.992 61.1891C131.051 61.04 131.08 60.8796 131.08 60.7079C131.08 60.5407 131.051 60.3826 130.992 60.2335C130.938 60.0843 130.859 59.9556 130.755 59.8471C130.656 59.7342 130.534 59.646 130.389 59.5828C130.244 59.5195 130.084 59.4879 129.908 59.4879C129.732 59.4879 129.571 59.5195 129.427 59.5828C129.282 59.646 129.158 59.7342 129.054 59.8471C128.95 59.9556 128.868 60.0843 128.81 60.2335C128.756 60.3826 128.728 60.5407 128.728 60.7079C128.728 60.8796 128.756 61.04 128.81 61.1891C128.868 61.3337 128.95 61.4625 129.054 61.5755C129.158 61.6839 129.282 61.7698 129.427 61.833C129.571 61.8963 129.732 61.9279 129.908 61.9279ZM133.53 62.4701C133.227 62.4701 132.956 62.4069 132.717 62.2803C132.477 62.1493 132.306 61.9505 132.202 61.6839L132.676 61.4196C132.739 61.5913 132.85 61.7246 133.008 61.8195C133.171 61.9098 133.347 61.955 133.537 61.955C133.7 61.955 133.837 61.9166 133.95 61.8398C134.068 61.7585 134.127 61.6455 134.127 61.5009C134.127 61.3789 134.084 61.2772 133.998 61.1959C133.912 61.1146 133.758 61.04 133.537 60.9722L133.198 60.8638C132.918 60.7825 132.706 60.6582 132.561 60.491C132.421 60.3193 132.351 60.1137 132.351 59.8742C132.351 59.7296 132.38 59.6009 132.439 59.4879C132.502 59.3704 132.586 59.2733 132.69 59.1965C132.798 59.1151 132.922 59.0541 133.063 59.0135C133.203 58.9683 133.354 58.9457 133.517 58.9457C133.77 58.9457 133.991 58.9976 134.181 59.1016C134.371 59.201 134.522 59.3456 134.635 59.5353L134.201 59.8336C134.124 59.7251 134.027 59.6348 133.91 59.5625C133.797 59.4856 133.659 59.4472 133.496 59.4472C133.352 59.4472 133.221 59.4834 133.103 59.5557C132.99 59.628 132.934 59.7274 132.934 59.8539C132.934 59.9578 132.965 60.0505 133.029 60.1318C133.096 60.2131 133.225 60.2832 133.415 60.3419L133.788 60.4571C134.081 60.5475 134.307 60.6718 134.466 60.8299C134.628 60.988 134.71 61.1959 134.71 61.4535C134.71 61.6161 134.68 61.7607 134.621 61.8872C134.563 62.0138 134.479 62.1199 134.371 62.2058C134.267 62.2916 134.142 62.3572 133.998 62.4023C133.853 62.4475 133.697 62.4701 133.53 62.4701ZM135.558 63.8189V59.0135H136.141V59.5353C136.254 59.3727 136.417 59.2349 136.629 59.1219C136.841 59.0044 137.076 58.9457 137.334 58.9457C137.569 58.9457 137.788 58.9931 137.991 59.088C138.195 59.1784 138.371 59.3049 138.52 59.4676C138.669 59.6257 138.784 59.811 138.866 60.0233C138.952 60.2357 138.994 60.4639 138.994 60.7079C138.994 60.9519 138.952 61.1801 138.866 61.3925C138.784 61.6048 138.669 61.7923 138.52 61.955C138.371 62.1132 138.195 62.2397 137.991 62.3346C137.788 62.4249 137.569 62.4701 137.334 62.4701C137.076 62.4701 136.841 62.4136 136.629 62.3007C136.417 62.1832 136.254 62.0431 136.141 61.8805V63.8189H135.558ZM137.246 61.9347C137.417 61.9347 137.573 61.903 137.713 61.8398C137.854 61.7765 137.973 61.6907 138.073 61.5822C138.177 61.4693 138.256 61.3382 138.31 61.1891C138.369 61.04 138.398 60.8796 138.398 60.7079C138.398 60.5362 138.369 60.3758 138.31 60.2267C138.256 60.0776 138.177 59.9488 138.073 59.8403C137.973 59.7274 137.854 59.6393 137.713 59.576C137.573 59.5128 137.417 59.4811 137.246 59.4811C137.074 59.4811 136.918 59.5128 136.778 59.576C136.638 59.6393 136.516 59.7274 136.412 59.8403C136.313 59.9488 136.234 60.0776 136.175 60.2267C136.121 60.3758 136.094 60.5362 136.094 60.7079C136.094 60.8796 136.121 61.04 136.175 61.1891C136.234 61.3382 136.313 61.4693 136.412 61.5822C136.516 61.6907 136.638 61.7765 136.778 61.8398C136.918 61.903 137.074 61.9347 137.246 61.9347ZM140.132 58.1052C140.015 58.1052 139.915 58.0668 139.834 57.99C139.753 57.9087 139.712 57.8093 139.712 57.6918C139.712 57.5788 139.753 57.4817 139.834 57.4003C139.915 57.319 140.015 57.2783 140.132 57.2783C140.25 57.2783 140.347 57.319 140.424 57.4003C140.5 57.4817 140.539 57.5788 140.539 57.6918C140.539 57.8093 140.5 57.9087 140.424 57.99C140.347 58.0668 140.25 58.1052 140.132 58.1052ZM139.834 59.0135H140.417V62.4023H139.834V59.0135ZM142.837 62.4362C142.688 62.4362 142.55 62.4159 142.423 62.3752C142.297 62.33 142.186 62.2668 142.091 62.1855C142.001 62.0996 141.928 61.9912 141.874 61.8601C141.825 61.7291 141.8 61.5755 141.8 61.3992V59.5489H141.081V59.0135H141.8V58.0713H142.383V59.0135H143.359V59.5489H142.383V61.3247C142.383 61.5416 142.43 61.6929 142.525 61.7788C142.62 61.8601 142.76 61.9008 142.945 61.9008C143.017 61.9008 143.09 61.8963 143.162 61.8872C143.239 61.8737 143.304 61.8556 143.359 61.833V62.3549C143.286 62.3775 143.207 62.3956 143.121 62.4091C143.035 62.4272 142.941 62.4362 142.837 62.4362ZM145.453 62.4701C145.214 62.4701 144.992 62.4249 144.789 62.3346C144.59 62.2397 144.416 62.1132 144.267 61.955C144.118 61.7923 144 61.6048 143.914 61.3925C143.833 61.1801 143.792 60.9519 143.792 60.7079C143.792 60.4639 143.833 60.2357 143.914 60.0233C144 59.811 144.118 59.6257 144.267 59.4676C144.416 59.3049 144.59 59.1784 144.789 59.088C144.992 58.9931 145.214 58.9457 145.453 58.9457C145.711 58.9457 145.946 59.0044 146.158 59.1219C146.37 59.2349 146.533 59.3727 146.646 59.5353V59.0135H147.229V62.4023H146.646V61.8805C146.533 62.0431 146.37 62.1832 146.158 62.3007C145.946 62.4136 145.711 62.4701 145.453 62.4701ZM145.541 61.9347C145.713 61.9347 145.869 61.903 146.009 61.8398C146.149 61.7765 146.269 61.6907 146.368 61.5822C146.472 61.4693 146.551 61.3382 146.605 61.1891C146.664 61.04 146.693 60.8796 146.693 60.7079C146.693 60.5362 146.664 60.3758 146.605 60.2267C146.551 60.0776 146.472 59.9488 146.368 59.8403C146.269 59.7274 146.149 59.6393 146.009 59.576C145.869 59.5128 145.713 59.4811 145.541 59.4811C145.369 59.4811 145.211 59.5128 145.067 59.576C144.927 59.6393 144.805 59.7274 144.701 59.8403C144.601 59.9488 144.522 60.0776 144.463 60.2267C144.409 60.3758 144.382 60.5362 144.382 60.7079C144.382 60.8796 144.409 61.04 144.463 61.1891C144.522 61.3382 144.601 61.4693 144.701 61.5822C144.805 61.6907 144.927 61.7765 145.067 61.8398C145.211 61.903 145.369 61.9347 145.541 61.9347ZM148.326 57.319H148.909V62.4023H148.326V57.319ZM151.037 62.4701C150.735 62.4701 150.463 62.4069 150.224 62.2803C149.984 62.1493 149.813 61.9505 149.709 61.6839L150.183 61.4196C150.247 61.5913 150.357 61.7246 150.515 61.8195C150.678 61.9098 150.854 61.955 151.044 61.955C151.207 61.955 151.345 61.9166 151.458 61.8398C151.575 61.7585 151.634 61.6455 151.634 61.5009C151.634 61.3789 151.591 61.2772 151.505 61.1959C151.419 61.1146 151.265 61.04 151.044 60.9722L150.705 60.8638C150.425 60.7825 150.213 60.6582 150.068 60.491C149.928 60.3193 149.858 60.1137 149.858 59.8742C149.858 59.7296 149.887 59.6009 149.946 59.4879C150.009 59.3704 150.093 59.2733 150.197 59.1965C150.305 59.1151 150.43 59.0541 150.57 59.0135C150.71 58.9683 150.861 58.9457 151.024 58.9457C151.277 58.9457 151.498 58.9976 151.688 59.1016C151.878 59.201 152.029 59.3456 152.142 59.5353L151.708 59.8336C151.631 59.7251 151.534 59.6348 151.417 59.5625C151.304 59.4856 151.166 59.4472 151.003 59.4472C150.859 59.4472 150.728 59.4834 150.61 59.5557C150.497 59.628 150.441 59.7274 150.441 59.8539C150.441 59.9578 150.472 60.0505 150.536 60.1318C150.604 60.2131 150.732 60.2832 150.922 60.3419L151.295 60.4571C151.589 60.5475 151.814 60.6718 151.973 60.8299C152.135 60.988 152.217 61.1959 152.217 61.4535C152.217 61.6161 152.187 61.7607 152.129 61.8872C152.07 62.0138 151.986 62.1199 151.878 62.2058C151.774 62.2916 151.65 62.3572 151.505 62.4023C151.36 62.4475 151.204 62.4701 151.037 62.4701ZM69.8322 67.0135H70.4151V67.5353C70.5326 67.332 70.6862 67.1829 70.876 67.088C71.0658 66.9931 71.2714 66.9457 71.4928 66.9457C71.6825 66.9457 71.8565 66.9773 72.0146 67.0406C72.1728 67.1038 72.3061 67.1965 72.4145 67.3185C72.5275 67.4359 72.6156 67.5805 72.6789 67.7522C72.7421 67.9194 72.7738 68.1069 72.7738 68.3148V70.4023H72.1976V68.4029C72.1976 68.1182 72.1231 67.8946 71.974 67.7319C71.8294 67.5647 71.6374 67.4811 71.3979 67.4811C71.2623 67.4811 71.1335 67.5082 71.0115 67.5625C70.8941 67.6167 70.7901 67.698 70.6998 67.8065C70.6139 67.9104 70.5439 68.0392 70.4896 68.1928C70.4399 68.3464 70.4151 68.5226 70.4151 68.7215V70.4023H69.8322V67.0135ZM75.3145 70.4701C75.0525 70.4701 74.813 70.4249 74.5961 70.3346C74.3792 70.2442 74.1939 70.1199 74.0403 69.9618C73.8867 69.8036 73.7669 69.6184 73.6811 69.406C73.5997 69.1891 73.5591 68.9564 73.5591 68.7079C73.5591 68.4594 73.602 68.2289 73.6879 68.0166C73.7737 67.7997 73.8935 67.6122 74.0471 67.454C74.2052 67.2959 74.3927 67.1716 74.6096 67.0812C74.8265 66.9909 75.0637 66.9457 75.3213 66.9457C75.5427 66.9457 75.7506 66.9841 75.9449 67.0609C76.1392 67.1332 76.3086 67.2439 76.4532 67.393C76.6023 67.5376 76.7198 67.7161 76.8056 67.9285C76.8915 68.1363 76.9344 68.3758 76.9344 68.6469C76.9344 68.6785 76.9344 68.7079 76.9344 68.735C76.9344 68.7576 76.9322 68.787 76.9276 68.8231H74.1487C74.1533 68.9813 74.1849 69.1281 74.2436 69.2637C74.3069 69.3992 74.3882 69.5167 74.4876 69.6161C74.5916 69.7155 74.7136 69.7946 74.8536 69.8533C74.9982 69.9076 75.1541 69.9347 75.3213 69.9347C75.5834 69.9347 75.798 69.8827 75.9652 69.7788C76.1369 69.6703 76.2747 69.5258 76.3786 69.345L76.8395 69.6636C76.6859 69.9121 76.4803 70.1086 76.2227 70.2532C75.9697 70.3978 75.667 70.4701 75.3145 70.4701ZM76.338 68.3487C76.3154 68.2086 76.2725 68.0843 76.2092 67.9759C76.1505 67.8675 76.0736 67.7748 75.9787 67.698C75.8884 67.6212 75.7845 67.5625 75.667 67.5218C75.5495 67.4811 75.4275 67.4608 75.301 67.4608C75.1745 67.4608 75.0502 67.4811 74.9282 67.5218C74.8062 67.5625 74.6955 67.6212 74.5961 67.698C74.4967 67.7703 74.4108 67.8629 74.3385 67.9759C74.2662 68.0843 74.2165 68.2086 74.1894 68.3487H76.338ZM79.1579 70.4701C78.9184 70.4701 78.697 70.4249 78.4937 70.3346C78.2949 70.2397 78.1209 70.1132 77.9718 69.955C77.8227 69.7923 77.7052 69.6048 77.6193 69.3925C77.538 69.1801 77.4973 68.9519 77.4973 68.7079C77.4973 68.4639 77.538 68.2357 77.6193 68.0233C77.7052 67.811 77.8227 67.6257 77.9718 67.4676C78.1209 67.3049 78.2949 67.1784 78.4937 67.088C78.697 66.9931 78.9184 66.9457 79.1579 66.9457C79.4155 66.9457 79.6504 67.0044 79.8628 67.1219C80.0752 67.2349 80.2378 67.3727 80.3508 67.5353V67.0135H80.9337V70.4023H80.3508V69.8805C80.2378 70.0431 80.0752 70.1832 79.8628 70.3007C79.6504 70.4136 79.4155 70.4701 79.1579 70.4701ZM79.246 69.9347C79.4177 69.9347 79.5736 69.903 79.7137 69.8398C79.8537 69.7765 79.9735 69.6907 80.0729 69.5822C80.1768 69.4693 80.2559 69.3382 80.3101 69.1891C80.3689 69.04 80.3982 68.8796 80.3982 68.7079C80.3982 68.5362 80.3689 68.3758 80.3101 68.2267C80.2559 68.0776 80.1768 67.9488 80.0729 67.8403C79.9735 67.7274 79.8537 67.6393 79.7137 67.576C79.5736 67.5128 79.4177 67.4811 79.246 67.4811C79.0743 67.4811 78.9162 67.5128 78.7716 67.576C78.6315 67.6393 78.5095 67.7274 78.4056 67.8403C78.3062 67.9488 78.2271 68.0776 78.1683 68.2267C78.1141 68.3758 78.087 68.5362 78.087 68.7079C78.087 68.8796 78.1141 69.04 78.1683 69.1891C78.2271 69.3382 78.3062 69.4693 78.4056 69.5822C78.5095 69.6907 78.6315 69.7765 78.7716 69.8398C78.9162 69.903 79.0743 69.9347 79.246 69.9347ZM82.0309 67.0135H82.6138V67.6709C82.6454 67.5625 82.6951 67.4653 82.7629 67.3795C82.8307 67.2936 82.9075 67.2213 82.9933 67.1626C83.0792 67.1038 83.1695 67.0586 83.2644 67.027C83.3638 66.9954 83.4632 66.9796 83.5627 66.9796C83.653 66.9796 83.7411 66.9886 83.827 67.0067V67.6099C83.7728 67.5873 83.7208 67.5738 83.6711 67.5692C83.6214 67.5602 83.5672 67.5557 83.5084 67.5557C83.4 67.5557 83.2915 67.5805 83.1831 67.6302C83.0792 67.6754 82.9843 67.7455 82.8984 67.8403C82.8171 67.9352 82.7493 68.0572 82.6951 68.2063C82.6409 68.3509 82.6138 68.5226 82.6138 68.7215V70.4023H82.0309V67.0135ZM90.3406 68.4097C90.3406 68.134 90.2842 67.9104 90.1712 67.7387C90.0582 67.567 89.8911 67.4811 89.6696 67.4811C89.3985 67.4811 89.1771 67.5873 89.0054 67.7997C88.8382 68.012 88.7501 68.3012 88.7411 68.6672V70.4023H88.1582V68.4097C88.1582 68.134 88.1017 67.9104 87.9888 67.7387C87.8803 67.567 87.7154 67.4811 87.494 67.4811C87.2184 67.4811 86.9924 67.5918 86.8162 67.8132C86.6445 68.0346 86.5586 68.3374 86.5586 68.7215V70.4023H85.9758V67.0135H86.5586V67.5353C86.6581 67.3546 86.7959 67.2123 86.9721 67.1083C87.1483 66.9999 87.3516 66.9457 87.5821 66.9457C87.8351 66.9457 88.0498 67.0112 88.226 67.1422C88.4067 67.2688 88.54 67.445 88.6259 67.6709C88.7162 67.4495 88.8586 67.2733 89.0529 67.1422C89.2517 67.0112 89.4799 66.9457 89.7374 66.9457C89.9227 66.9457 90.0876 66.9796 90.2322 67.0473C90.3813 67.1106 90.5056 67.2032 90.605 67.3252C90.7089 67.4427 90.788 67.5873 90.8422 67.759C90.8964 67.9262 90.9235 68.1137 90.9235 68.3216V70.4023H90.3406V68.4097ZM93.4636 70.4701C93.2015 70.4701 92.9621 70.4249 92.7452 70.3346C92.5283 70.2442 92.343 70.1199 92.1894 69.9618C92.0358 69.8036 91.916 69.6184 91.8302 69.406C91.7488 69.1891 91.7082 68.9564 91.7082 68.7079C91.7082 68.4594 91.7511 68.2289 91.8369 68.0166C91.9228 67.7997 92.0425 67.6122 92.1962 67.454C92.3543 67.2959 92.5418 67.1716 92.7587 67.0812C92.9756 66.9909 93.2128 66.9457 93.4704 66.9457C93.6918 66.9457 93.8997 66.9841 94.0939 67.0609C94.2882 67.1332 94.4577 67.2439 94.6023 67.393C94.7514 67.5376 94.8689 67.7161 94.9547 67.9285C95.0406 68.1363 95.0835 68.3758 95.0835 68.6469C95.0835 68.6785 95.0835 68.7079 95.0835 68.735C95.0835 68.7576 95.0812 68.787 95.0767 68.8231H92.2978C92.3024 68.9813 92.334 69.1281 92.3927 69.2637C92.456 69.3992 92.5373 69.5167 92.6367 69.6161C92.7407 69.7155 92.8627 69.7946 93.0027 69.8533C93.1473 69.9076 93.3032 69.9347 93.4704 69.9347C93.7325 69.9347 93.9471 69.8827 94.1143 69.7788C94.286 69.6703 94.4238 69.5258 94.5277 69.345L94.9886 69.6636C94.835 69.9121 94.6294 70.1086 94.3718 70.2532C94.1188 70.3978 93.8161 70.4701 93.4636 70.4701ZM94.4871 68.3487C94.4645 68.2086 94.4215 68.0843 94.3583 67.9759C94.2995 67.8675 94.2227 67.7748 94.1278 67.698C94.0375 67.6212 93.9335 67.5625 93.8161 67.5218C93.6986 67.4811 93.5766 67.4608 93.4501 67.4608C93.3235 67.4608 93.1993 67.4811 93.0773 67.5218C92.9553 67.5625 92.8446 67.6212 92.7452 67.698C92.6458 67.7703 92.5599 67.8629 92.4876 67.9759C92.4153 68.0843 92.3656 68.2086 92.3385 68.3487H94.4871Z" fill="white"/>
</g>
<defs>
<radialGradient id="paint0_radial_3129_11770" cx="0" cy="0" r="1" gradientUnits="userSpaceOnUse" gradientTransform="translate(213.21 0.403123) rotate(90) scale(60.2963 221.117)">
<stop stop-color="#7851DF"/>
<stop offset="0.413462" stop-color="#A886FF"/>
<stop offset="0.909524" stop-color="#D3BCFF" stop-opacity="0"/>
</radialGradient>
<radialGradient id="paint1_radial_3129_11770" cx="0" cy="0" r="1" gradientUnits="userSpaceOnUse" gradientTransform="translate(157.507 -44.6755) rotate(114.41) scale(119.502 177.129)">
<stop stop-color="#F1BAB2"/>
<stop offset="0.471154" stop-color="#C9B4FF"/>
<stop offset="1" stop-color="#DDCCFF" stop-opacity="0"/>
</radialGradient>
<linearGradient id="paint2_linear_3129_11770" x1="155.455" y1="53.5602" x2="163.058" y2="2.50842" gradientUnits="userSpaceOnUse">
<stop stop-color="white" stop-opacity="0"/>
<stop offset="0.4375" stop-color="#FED5FF"/>
<stop offset="1" stop-color="#FED5FF"/>
</linearGradient>
<clipPath id="clip0_3129_11770">
<rect width="200" height="100" fill="white"/>
</clipPath>
</defs>
</svg>
